<?xml version="1.0" encoding="UTF-8"?>
<svg xmlns="http://www.w3.org/2000/svg" xmlns:xlink="http://www.w3.org/1999/xlink" width="50px" height="50px" viewBox="0 0 50 50" version="1.1">
<g id="surface1">
<path style=" stroke:none;fill-rule:nonzero;fill:rgb(0%,0%,0%);fill-opacity:1;" d="M 24.753906 1.773438 C 24.738281 1.800781 24.59375 1.890625 24.433594 1.972656 C 24.167969 2.109375 24.089844 2.148438 23.84375 2.273438 C 23.789062 2.292969 23.570312 2.40625 23.359375 2.515625 C 22.996094 2.699219 22.40625 2.972656 22.027344 3.132812 C 21.9375 3.179688 21.773438 3.246094 21.667969 3.289062 C 21.5625 3.339844 21.382812 3.410156 21.277344 3.457031 C 21.171875 3.503906 20.984375 3.578125 20.859375 3.628906 C 20.738281 3.671875 20.527344 3.753906 20.390625 3.804688 C 19.9375 3.976562 19.410156 4.160156 19.195312 4.222656 C 18.84375 4.320312 18.015625 4.566406 17.773438 4.640625 C 17.628906 4.683594 17.449219 4.722656 17.371094 4.722656 C 17.292969 4.722656 17.160156 4.75 17.070312 4.785156 C 16.773438 4.894531 15.316406 5.140625 14.554688 5.199219 C 12.867188 5.332031 10.632812 5.304688 9.761719 5.140625 C 9.527344 5.09375 9.265625 5.054688 9.183594 5.054688 C 9.101562 5.054688 8.882812 5.023438 8.699219 4.976562 C 8.511719 4.933594 8.160156 4.855469 7.917969 4.804688 C 7.671875 4.75 7.410156 4.683594 7.332031 4.648438 C 7.253906 4.621094 7.105469 4.578125 7 4.554688 C 6.800781 4.511719 6.621094 4.449219 6.117188 4.253906 L 5.820312 4.140625 L 5.714844 4.273438 C 5.648438 4.355469 5.609375 4.488281 5.609375 4.640625 C 5.609375 4.765625 5.570312 4.996094 5.527344 5.144531 C 5.484375 5.292969 5.445312 5.488281 5.445312 5.582031 C 5.445312 5.671875 5.410156 5.921875 5.367188 6.140625 C 5.273438 6.589844 5.15625 7.300781 5.027344 8.25 C 4.976562 8.617188 4.910156 9.078125 4.878906 9.277344 C 4.84375 9.476562 4.792969 9.878906 4.765625 10.167969 C 4.746094 10.457031 4.710938 10.785156 4.695312 10.890625 C 4.679688 10.996094 4.644531 11.371094 4.609375 11.722656 C 4.582031 12.070312 4.542969 12.484375 4.527344 12.640625 C 4.511719 12.789062 4.484375 13.027344 4.472656 13.167969 C 4.433594 13.5625 4.433594 19.214844 4.472656 19.527344 C 4.488281 19.679688 4.515625 19.894531 4.535156 20 C 4.550781 20.105469 4.582031 20.433594 4.605469 20.722656 C 4.632812 21.011719 4.683594 21.449219 4.722656 21.695312 C 4.851562 22.59375 4.957031 23.253906 5.011719 23.5 C 5.039062 23.640625 5.082031 23.917969 5.109375 24.121094 C 5.140625 24.328125 5.183594 24.542969 5.214844 24.605469 C 5.25 24.667969 5.277344 24.785156 5.277344 24.859375 C 5.277344 24.945312 5.3125 25.140625 5.355469 25.292969 C 5.394531 25.457031 5.472656 25.785156 5.527344 26.027344 C 5.578125 26.273438 5.648438 26.542969 5.679688 26.640625 C 5.710938 26.726562 5.753906 26.90625 5.785156 27.027344 C 5.828125 27.25 5.9375 27.65625 6.050781 27.972656 C 6.078125 28.0625 6.15625 28.300781 6.214844 28.5 C 6.277344 28.699219 6.355469 28.933594 6.390625 29.027344 C 6.609375 29.667969 6.738281 30.054688 6.777344 30.214844 C 6.804688 30.316406 6.851562 30.429688 6.882812 30.460938 C 6.917969 30.496094 6.945312 30.554688 6.945312 30.601562 C 6.945312 30.644531 6.976562 30.753906 7.023438 30.851562 C 7.0625 30.949219 7.140625 31.140625 7.195312 31.277344 C 7.25 31.417969 7.367188 31.6875 7.457031 31.890625 C 7.542969 32.089844 7.648438 32.320312 7.695312 32.417969 C 7.894531 32.878906 8.695312 34.464844 8.8125 34.640625 C 8.882812 34.75 8.945312 34.871094 8.945312 34.917969 C 8.945312 34.960938 8.972656 35.011719 9.003906 35.027344 C 9.035156 35.050781 9.089844 35.121094 9.117188 35.183594 C 9.144531 35.25 9.214844 35.378906 9.277344 35.472656 C 9.339844 35.5625 9.410156 35.6875 9.445312 35.75 C 9.476562 35.8125 9.550781 35.933594 9.609375 36.027344 C 9.671875 36.117188 9.738281 36.234375 9.761719 36.277344 C 9.777344 36.320312 9.859375 36.449219 9.945312 36.554688 C 10.027344 36.660156 10.105469 36.777344 10.117188 36.8125 C 10.140625 36.871094 10.359375 37.1875 10.972656 38.015625 C 11.445312 38.667969 12.078125 39.421875 12.8125 40.214844 C 13.027344 40.449219 13.3125 40.761719 13.449219 40.910156 C 13.6875 41.179688 13.882812 41.367188 14.890625 42.304688 C 15.511719 42.890625 15.84375 43.183594 16.304688 43.554688 C 16.511719 43.722656 16.734375 43.90625 16.800781 43.964844 C 16.984375 44.128906 18.828125 45.511719 19.167969 45.746094 C 19.332031 45.855469 19.699219 46.109375 19.972656 46.3125 C 20.25 46.503906 20.511719 46.683594 20.554688 46.707031 C 20.601562 46.726562 20.785156 46.84375 20.972656 46.972656 C 21.15625 47.101562 21.34375 47.214844 21.390625 47.238281 C 21.433594 47.261719 21.660156 47.398438 21.890625 47.550781 C 22.671875 48.066406 24.878906 49.390625 24.960938 49.390625 C 25.003906 49.390625 25.070312 49.351562 25.109375 49.304688 C 25.148438 49.261719 25.207031 49.222656 25.234375 49.222656 C 25.265625 49.222656 25.398438 49.144531 25.539062 49.054688 C 25.671875 48.960938 25.792969 48.890625 25.816406 48.890625 C 25.832031 48.890625 25.949219 48.816406 26.078125 48.734375 C 26.199219 48.648438 26.34375 48.5625 26.390625 48.539062 C 26.433594 48.515625 26.539062 48.457031 26.621094 48.398438 C 26.707031 48.351562 27.054688 48.132812 27.398438 47.917969 C 27.746094 47.707031 28.179688 47.429688 28.359375 47.300781 C 28.542969 47.179688 28.722656 47.0625 28.75 47.050781 C 28.785156 47.039062 29.101562 46.828125 29.460938 46.582031 C 29.820312 46.339844 30.179688 46.101562 30.25 46.054688 C 30.523438 45.878906 31.039062 45.523438 31.222656 45.378906 C 31.328125 45.292969 31.671875 45.039062 31.984375 44.8125 C 32.300781 44.578125 32.601562 44.351562 32.648438 44.304688 C 32.707031 44.261719 33.039062 43.984375 33.390625 43.6875 C 33.738281 43.398438 34.15625 43.042969 34.304688 42.90625 C 34.859375 42.394531 36.578125 40.683594 36.855469 40.367188 C 37.011719 40.1875 37.214844 39.960938 37.304688 39.859375 C 37.398438 39.761719 37.511719 39.628906 37.5625 39.5625 C 37.609375 39.496094 37.722656 39.355469 37.800781 39.261719 C 38.417969 38.511719 39.3125 37.3125 39.710938 36.695312 C 39.851562 36.476562 40.027344 36.207031 40.105469 36.082031 C 40.1875 35.960938 40.273438 35.820312 40.292969 35.777344 C 40.316406 35.734375 40.382812 35.617188 40.445312 35.527344 C 40.503906 35.433594 40.578125 35.3125 40.609375 35.25 C 40.644531 35.1875 40.753906 34.988281 40.859375 34.804688 C 40.964844 34.621094 41.15625 34.265625 41.285156 34.011719 C 41.40625 33.761719 41.535156 33.539062 41.5625 33.523438 C 41.589844 33.503906 41.609375 33.449219 41.609375 33.394531 C 41.609375 33.339844 41.648438 33.261719 41.695312 33.222656 C 41.738281 33.183594 41.777344 33.109375 41.777344 33.054688 C 41.777344 33 41.816406 32.929688 41.859375 32.890625 C 41.90625 32.851562 41.945312 32.777344 41.945312 32.722656 C 41.945312 32.667969 41.984375 32.59375 42.027344 32.554688 C 42.070312 32.515625 42.109375 32.457031 42.109375 32.410156 C 42.109375 32.371094 42.207031 32.132812 42.328125 31.878906 C 42.445312 31.621094 42.632812 31.179688 42.746094 30.890625 C 42.855469 30.601562 42.976562 30.3125 43.011719 30.25 C 43.042969 30.1875 43.09375 30.066406 43.117188 29.972656 C 43.140625 29.882812 43.25 29.554688 43.359375 29.25 C 43.472656 28.945312 43.582031 28.617188 43.609375 28.527344 C 43.632812 28.433594 43.683594 28.285156 43.710938 28.195312 C 43.933594 27.539062 44.355469 25.957031 44.445312 25.472656 C 44.464844 25.351562 44.511719 25.148438 44.542969 25.027344 C 44.640625 24.667969 44.726562 24.25 44.777344 23.933594 C 44.800781 23.773438 44.851562 23.488281 44.882812 23.304688 C 44.917969 23.121094 44.972656 22.820312 45.011719 22.640625 C 45.042969 22.457031 45.089844 22.128906 45.109375 21.917969 C 45.140625 21.699219 45.171875 21.449219 45.1875 21.359375 C 45.207031 21.265625 45.25 20.90625 45.277344 20.554688 C 45.304688 20.207031 45.359375 19.804688 45.398438 19.667969 C 45.476562 19.390625 45.496094 12.90625 45.421875 12.332031 C 45.351562 11.789062 45.328125 11.59375 45.277344 11 C 45.246094 10.679688 45.210938 10.339844 45.195312 10.25 C 45.183594 10.15625 45.144531 9.820312 45.109375 9.5 C 45.082031 9.179688 45.027344 8.84375 45 8.753906 C 44.964844 8.667969 44.945312 8.503906 44.945312 8.394531 C 44.945312 8.285156 44.90625 7.964844 44.859375 7.695312 C 44.8125 7.417969 44.738281 6.957031 44.6875 6.667969 C 44.644531 6.378906 44.570312 5.960938 44.527344 5.75 C 44.484375 5.535156 44.421875 5.210938 44.382812 5.027344 C 44.351562 4.84375 44.304688 4.589844 44.292969 4.457031 C 44.277344 4.320312 44.234375 4.199219 44.195312 4.1875 C 44.160156 4.171875 44.015625 4.199219 43.882812 4.25 C 43.75 4.300781 43.464844 4.390625 43.25 4.449219 C 43.039062 4.511719 42.777344 4.589844 42.671875 4.621094 C 42.160156 4.777344 41.054688 4.996094 40.390625 5.0625 C 40.101562 5.089844 39.789062 5.132812 39.695312 5.167969 C 39.421875 5.253906 35.714844 5.199219 34.832031 5.09375 C 34.421875 5.042969 34.027344 4.976562 33.957031 4.945312 C 33.882812 4.917969 33.75 4.890625 33.660156 4.890625 C 33.496094 4.890625 33.027344 4.789062 32.464844 4.632812 C 32.3125 4.589844 32.140625 4.554688 32.082031 4.554688 C 32.035156 4.554688 31.871094 4.515625 31.726562 4.476562 C 31.589844 4.433594 31.320312 4.351562 31.140625 4.300781 C 30.957031 4.25 30.746094 4.183594 30.667969 4.148438 C 30.589844 4.121094 30.457031 4.078125 30.359375 4.054688 C 30.273438 4.027344 30.105469 3.976562 30 3.9375 C 29.367188 3.710938 28.894531 3.535156 28.75 3.472656 C 28.660156 3.429688 28.273438 3.265625 27.890625 3.105469 C 26.84375 2.671875 26.25 2.394531 25.226562 1.851562 C 24.972656 1.714844 24.804688 1.6875 24.753906 1.773438 Z M 24.378906 7.148438 L 24.359375 10.695312 L 23.921875 10.710938 C 23.632812 10.722656 23.4375 10.753906 23.351562 10.816406 C 23.246094 10.890625 23.070312 10.910156 22.699219 10.917969 C 22.171875 10.929688 21.738281 11.003906 21.488281 11.140625 C 21.40625 11.1875 21.195312 11.222656 20.996094 11.222656 C 20.65625 11.222656 20.234375 11.332031 20.054688 11.472656 C 19.960938 11.542969 19.589844 11.722656 19.527344 11.722656 C 19.503906 11.722656 19.339844 11.820312 19.15625 11.945312 C 18.972656 12.066406 18.8125 12.167969 18.800781 12.167969 C 18.789062 12.167969 18.777344 11.417969 18.777344 10.5 C 18.777344 8.867188 18.75 8.640625 18.605469 8.957031 C 18.285156 9.671875 17.632812 10.246094 16.972656 10.398438 C 16.289062 10.5625 14.671875 10.621094 14.660156 10.484375 C 14.660156 10.449219 14.660156 10.078125 14.667969 9.667969 C 14.679688 8.644531 14.84375 8.148438 15.351562 7.648438 C 15.5 7.503906 15.609375 7.359375 15.601562 7.328125 C 15.582031 7.273438 11.683594 7.246094 11.628906 7.300781 C 11.617188 7.3125 11.75 7.464844 11.933594 7.640625 C 12.523438 8.195312 12.640625 8.5625 12.6875 9.984375 C 12.710938 10.488281 12.710938 10.488281 12.566406 10.527344 C 12.289062 10.59375 10.917969 10.539062 10.503906 10.4375 C 10.101562 10.339844 9.753906 10.207031 9.628906 10.089844 C 9.59375 10.054688 9.476562 9.957031 9.367188 9.871094 C 9.15625 9.699219 8.777344 9.167969 8.777344 9.039062 C 8.777344 8.996094 8.714844 8.917969 8.640625 8.867188 L 8.5 8.777344 L 8.5 11.445312 C 8.5 14.105469 8.5 14.117188 8.609375 14.039062 C 8.671875 13.996094 8.789062 13.839844 8.867188 13.6875 C 9.167969 13.121094 9.710938 12.707031 10.390625 12.535156 C 10.710938 12.449219 12.539062 12.394531 12.648438 12.460938 C 12.710938 12.5 12.707031 13.382812 12.640625 14.25 C 12.589844 14.855469 12.394531 15.316406 12.003906 15.734375 C 11.535156 16.25 11.695312 16.226562 8.554688 16.210938 L 5.804688 16.195312 L 5.820312 15.277344 C 5.828125 14.773438 5.859375 14.132812 5.890625 13.859375 C 5.917969 13.582031 5.964844 13 6 12.554688 C 6.109375 11.121094 6.15625 10.589844 6.214844 10.222656 C 6.246094 10.023438 6.300781 9.621094 6.332031 9.332031 C 6.398438 8.734375 6.515625 7.910156 6.640625 7.222656 C 6.6875 6.960938 6.75 6.601562 6.777344 6.417969 C 6.859375 5.921875 6.832031 5.945312 7.261719 6.066406 C 8.0625 6.300781 8.996094 6.460938 10.472656 6.617188 C 12.753906 6.855469 15.65625 6.617188 18.054688 6 C 18.65625 5.84375 19.660156 5.554688 19.804688 5.496094 C 19.867188 5.464844 20.078125 5.394531 20.277344 5.328125 C 20.476562 5.265625 20.714844 5.179688 20.816406 5.132812 C 20.910156 5.089844 21.023438 5.054688 21.066406 5.054688 C 21.109375 5.054688 21.167969 5.035156 21.199219 5.011719 C 21.226562 4.988281 21.398438 4.910156 21.582031 4.839844 C 21.765625 4.765625 21.996094 4.679688 22.082031 4.640625 C 22.179688 4.59375 22.351562 4.523438 22.472656 4.472656 C 22.75 4.355469 23.234375 4.128906 23.804688 3.84375 C 24.050781 3.722656 24.285156 3.617188 24.320312 3.617188 C 24.378906 3.609375 24.390625 4.332031 24.378906 7.148438 Z M 30.285156 8.214844 C 30.488281 8.273438 30.765625 8.382812 30.90625 8.460938 C 31.226562 8.648438 31.539062 9.078125 31.609375 9.421875 C 31.644531 9.570312 31.683594 9.761719 31.699219 9.84375 C 31.746094 10.039062 31.632812 10.089844 31.109375 10.082031 C 30.632812 10.078125 30.554688 10.042969 30.554688 9.859375 C 30.554688 9.5625 30.371094 9.304688 30.039062 9.148438 C 29.566406 8.933594 28.976562 9.101562 28.738281 9.527344 C 28.589844 9.792969 28.578125 10 28.707031 10.238281 C 28.8125 10.449219 29.105469 10.722656 29.226562 10.722656 C 29.273438 10.722656 29.359375 10.761719 29.421875 10.804688 C 29.476562 10.851562 29.566406 10.890625 29.617188 10.890625 C 29.777344 10.890625 30.472656 11.121094 30.820312 11.289062 C 31.1875 11.460938 31.609375 11.90625 31.609375 12.109375 C 31.609375 12.167969 31.640625 12.234375 31.667969 12.25 C 31.761719 12.304688 31.734375 13.289062 31.632812 13.535156 C 31.40625 14.082031 31.035156 14.394531 30.359375 14.59375 C 30.027344 14.695312 29.199219 14.707031 28.90625 14.605469 C 27.929688 14.292969 27.472656 13.777344 27.472656 12.972656 L 27.472656 12.582031 L 27.832031 12.566406 C 28.035156 12.554688 28.277344 12.566406 28.378906 12.582031 C 28.539062 12.609375 28.554688 12.632812 28.554688 12.8125 C 28.554688 13.066406 28.695312 13.359375 28.882812 13.5 C 28.960938 13.5625 29.0625 13.640625 29.105469 13.679688 C 29.148438 13.714844 29.359375 13.746094 29.617188 13.746094 C 29.996094 13.746094 30.066406 13.726562 30.238281 13.59375 C 30.609375 13.3125 30.722656 12.816406 30.496094 12.488281 C 30.359375 12.300781 30.023438 12.078125 29.792969 12.023438 C 29.710938 12 29.617188 11.964844 29.582031 11.945312 C 29.554688 11.921875 29.4375 11.890625 29.332031 11.867188 C 29.023438 11.8125 28.390625 11.550781 28.132812 11.378906 C 27.6875 11.078125 27.5 10.667969 27.5 9.988281 C 27.5 9.566406 27.523438 9.472656 27.726562 9.023438 C 28.066406 8.289062 29.222656 7.921875 30.285156 8.214844 Z M 40.792969 8.1875 C 41.285156 8.316406 41.699219 8.601562 41.929688 8.960938 C 42.121094 9.273438 42.289062 9.832031 42.265625 10.121094 L 42.25 10.359375 L 41.195312 10.359375 L 41.15625 10.066406 C 41.0625 9.40625 40.714844 9.054688 40.167969 9.054688 C 39.726562 9.054688 39.398438 9.300781 39.1875 9.777344 C 39.09375 10 39.082031 10.15625 39.089844 11.445312 C 39.089844 12.785156 39.09375 12.871094 39.210938 13.109375 C 39.367188 13.429688 39.433594 13.503906 39.660156 13.621094 C 39.867188 13.738281 40.390625 13.753906 40.570312 13.660156 C 40.894531 13.496094 41.070312 13.214844 41.160156 12.753906 C 41.1875 12.605469 41.246094 12.464844 41.285156 12.4375 C 41.328125 12.410156 41.5625 12.394531 41.804688 12.398438 L 42.25 12.417969 L 42.265625 12.683594 C 42.285156 12.964844 42.089844 13.722656 41.996094 13.722656 C 41.964844 13.722656 41.945312 13.753906 41.945312 13.800781 C 41.945312 13.84375 41.828125 13.984375 41.683594 14.109375 C 40.960938 14.75 39.890625 14.851562 38.972656 14.367188 C 38.632812 14.183594 38.390625 13.921875 38.238281 13.570312 C 37.988281 13 37.972656 12.859375 37.972656 11.417969 C 37.972656 10.207031 37.984375 9.984375 38.078125 9.699219 C 38.1875 9.355469 38.238281 9.246094 38.417969 8.972656 C 38.851562 8.300781 39.894531 7.957031 40.792969 8.1875 Z M 37.027344 8.75 L 37.027344 9.195312 L 35.777344 9.210938 C 34.683594 9.222656 34.515625 9.234375 34.460938 9.316406 C 34.382812 9.417969 34.359375 10.6875 34.421875 10.929688 C 34.457031 11.054688 34.464844 11.054688 35.523438 11.054688 C 36.121094 11.054688 36.609375 11.078125 36.644531 11.105469 C 36.671875 11.140625 36.683594 11.34375 36.667969 11.566406 L 36.640625 11.972656 L 35.554688 11.988281 C 34.777344 12 34.464844 12.023438 34.433594 12.070312 C 34.410156 12.105469 34.390625 12.667969 34.390625 13.316406 L 34.390625 14.496094 L 33.890625 14.511719 C 33.609375 14.523438 33.359375 14.515625 33.332031 14.511719 C 33.253906 14.484375 33.253906 8.292969 33.332031 8.265625 C 33.359375 8.253906 34.207031 8.261719 35.207031 8.277344 L 37.027344 8.304688 Z M 16.667969 12.503906 C 17.488281 12.671875 17.542969 12.738281 17.140625 13.035156 C 16.972656 13.148438 16.734375 13.382812 16.617188 13.539062 C 16.496094 13.699219 16.277344 13.929688 16.128906 14.050781 C 15.878906 14.25 15.355469 14.785156 15.070312 15.128906 C 15 15.210938 14.921875 15.277344 14.894531 15.277344 C 14.785156 15.277344 14.699219 14.695312 14.671875 13.621094 C 14.65625 13 14.65625 12.476562 14.679688 12.457031 C 14.738281 12.394531 16.320312 12.433594 16.667969 12.503906 Z M 22.8125 14.328125 C 22.839844 14.351562 23 14.417969 23.167969 14.472656 C 23.398438 14.542969 23.648438 14.570312 24.222656 14.566406 C 24.632812 14.566406 25.0625 14.5625 25.171875 14.550781 C 25.316406 14.542969 25.457031 14.582031 25.644531 14.699219 C 26.214844 15.050781 26.800781 15.15625 27.144531 14.972656 C 27.34375 14.867188 27.484375 14.867188 27.683594 14.972656 C 27.894531 15.082031 28.734375 15.1875 29.105469 15.148438 C 29.304688 15.128906 29.457031 15.144531 29.554688 15.195312 C 29.890625 15.367188 30.523438 16.1875 30.816406 16.832031 C 31.027344 17.289062 31.109375 17.503906 31.109375 17.605469 C 31.109375 17.667969 31.132812 17.726562 31.160156 17.746094 C 31.1875 17.765625 31.226562 17.882812 31.25 18.015625 C 31.265625 18.144531 31.304688 18.3125 31.339844 18.390625 C 31.367188 18.464844 31.410156 18.714844 31.445312 18.945312 C 31.472656 19.171875 31.535156 19.5625 31.582031 19.804688 C 31.632812 20.050781 31.6875 20.34375 31.707031 20.460938 C 31.734375 20.671875 31.734375 20.679688 31.609375 20.609375 C 31.4375 20.523438 30.832031 20.605469 30.417969 20.777344 C 29.6875 21.078125 29.339844 21.066406 28.882812 20.710938 C 28.640625 20.523438 28.554688 20.582031 28.554688 20.933594 C 28.554688 21.34375 28.449219 21.605469 28.183594 21.820312 C 28.050781 21.933594 27.945312 22.054688 27.945312 22.101562 C 27.945312 22.140625 28.003906 22.253906 28.082031 22.355469 C 28.160156 22.457031 28.222656 22.554688 28.222656 22.578125 C 28.222656 22.65625 28.621094 23.417969 28.683594 23.457031 C 28.722656 23.476562 28.792969 23.5 28.855469 23.5 C 28.960938 23.5 28.960938 23.496094 28.851562 23.148438 C 28.828125 23.078125 28.851562 23.054688 28.957031 23.054688 C 29.035156 23.054688 29.199219 22.976562 29.320312 22.890625 C 29.609375 22.683594 29.871094 22.667969 29.9375 22.851562 C 30.003906 23.023438 30.09375 23.089844 30.371094 23.167969 C 30.648438 23.25 30.820312 23.210938 31.042969 23.027344 C 31.234375 22.867188 31.371094 22.890625 31.421875 23.089844 C 31.445312 23.183594 31.496094 23.222656 31.589844 23.222656 C 31.667969 23.222656 31.738281 23.261719 31.761719 23.316406 C 31.785156 23.371094 31.890625 23.566406 32.003906 23.753906 C 32.117188 23.9375 32.226562 24.148438 32.25 24.226562 C 32.273438 24.300781 32.3125 24.371094 32.328125 24.390625 C 32.390625 24.429688 32.589844 25.035156 32.671875 25.417969 C 32.789062 25.921875 32.761719 26.929688 32.617188 27.527344 C 32.34375 28.644531 32.253906 28.976562 32.089844 29.554688 C 31.957031 29.996094 31.839844 30.433594 31.765625 30.722656 C 31.734375 30.859375 31.6875 30.996094 31.667969 31.027344 C 31.640625 31.054688 31.605469 31.179688 31.582031 31.292969 C 31.5625 31.40625 31.523438 31.515625 31.496094 31.535156 C 31.464844 31.550781 31.445312 31.617188 31.445312 31.683594 C 31.445312 31.75 31.410156 31.871094 31.367188 31.949219 C 31.328125 32.027344 31.277344 32.1875 31.253906 32.304688 C 31.234375 32.417969 31.195312 32.554688 31.167969 32.605469 C 31.144531 32.65625 31.066406 32.882812 31 33.109375 C 30.929688 33.339844 30.851562 33.550781 30.828125 33.582031 C 30.800781 33.609375 30.777344 33.667969 30.777344 33.710938 C 30.777344 33.789062 30.707031 33.972656 30.484375 34.445312 C 30.332031 34.773438 30.050781 35.070312 29.933594 35.027344 C 29.882812 35.003906 29.832031 34.898438 29.8125 34.785156 C 29.761719 34.445312 29.4375 34.128906 28.894531 33.878906 C 28.292969 33.601562 28.148438 33.539062 27.804688 33.417969 C 27.65625 33.359375 27.5 33.292969 27.464844 33.265625 C 27.433594 33.246094 27.289062 33.207031 27.148438 33.1875 C 26.921875 33.15625 26.898438 33.144531 26.960938 33.050781 C 27 32.988281 27.050781 32.945312 27.070312 32.945312 C 27.101562 32.945312 27.207031 32.90625 27.304688 32.855469 C 27.621094 32.707031 28.472656 32.800781 28.933594 33.035156 C 29.199219 33.167969 29.566406 33.109375 29.820312 32.90625 C 30.359375 32.472656 30.617188 31.867188 30.527344 31.222656 C 30.488281 30.949219 30.371094 30.804688 30.285156 30.921875 C 30.265625 30.949219 30.183594 31.015625 30.101562 31.070312 C 29.921875 31.183594 29.179688 31.207031 28.984375 31.101562 C 28.90625 31.0625 28.539062 31.039062 27.890625 31.042969 C 27.355469 31.050781 26.816406 31.027344 26.695312 30.996094 C 26.570312 30.964844 26.382812 30.917969 26.273438 30.890625 C 26.042969 30.828125 25.5 30.5625 25.5 30.5 C 25.5 30.445312 26.171875 30.109375 26.417969 30.050781 C 26.539062 30.015625 26.738281 29.964844 26.859375 29.9375 C 26.996094 29.898438 27.332031 29.894531 27.722656 29.917969 C 28.070312 29.9375 28.648438 29.949219 29 29.945312 C 29.488281 29.9375 29.6875 29.960938 29.859375 30.027344 C 30.070312 30.117188 30.4375 30.460938 30.710938 30.828125 C 30.785156 30.921875 30.867188 30.988281 30.894531 30.964844 C 30.976562 30.917969 30.949219 30.066406 30.855469 29.734375 C 30.726562 29.300781 30.523438 29.011719 30.167969 28.765625 C 29.789062 28.511719 29.484375 28.457031 29.117188 28.578125 C 28.859375 28.660156 28.8125 28.660156 28.496094 28.578125 C 28.253906 28.515625 27.996094 28.496094 27.667969 28.511719 C 27.253906 28.535156 27.132812 28.566406 26.722656 28.765625 C 26.460938 28.890625 26.003906 29.15625 25.699219 29.359375 C 25.132812 29.738281 25.066406 29.753906 24.8125 29.578125 C 24.65625 29.472656 24.542969 29.554688 24.285156 30 C 24.15625 30.210938 24.011719 30.390625 23.964844 30.390625 C 23.871094 30.390625 23.5 30.023438 23.5 29.929688 C 23.496094 29.890625 23.449219 29.761719 23.390625 29.640625 C 23.328125 29.515625 23.285156 29.382812 23.277344 29.34375 C 23.277344 29.3125 23.253906 29.277344 23.226562 29.277344 C 23.199219 29.277344 23.160156 29.234375 23.140625 29.179688 C 23.066406 28.964844 22.496094 28.644531 21.972656 28.527344 C 21.707031 28.464844 21.484375 28.261719 21.285156 27.882812 C 20.882812 27.117188 20.554688 26.714844 19.964844 26.277344 C 19.433594 25.878906 18.773438 25.648438 17.851562 25.554688 C 17.316406 25.5 17.011719 25.339844 16.871094 25.039062 C 16.765625 24.820312 16.746094 23.867188 16.832031 23.472656 C 16.964844 22.867188 17.015625 22.6875 17.054688 22.640625 C 17.082031 22.605469 17.117188 22.488281 17.140625 22.371094 C 17.160156 22.261719 17.199219 22.148438 17.226562 22.132812 C 17.253906 22.117188 17.277344 22.0625 17.277344 22.011719 C 17.277344 21.960938 17.316406 21.84375 17.359375 21.753906 C 17.40625 21.671875 17.445312 21.566406 17.445312 21.535156 C 17.445312 21.472656 17.867188 20.605469 18.0625 20.277344 C 18.355469 19.761719 19.300781 18.722656 19.464844 18.722656 C 19.554688 18.722656 19.726562 18.523438 19.859375 18.253906 C 19.957031 18.066406 19.972656 17.929688 19.964844 17.3125 C 19.964844 16.910156 19.9375 16.535156 19.90625 16.472656 C 19.871094 16.410156 19.832031 16.261719 19.8125 16.140625 C 19.785156 15.921875 19.789062 15.910156 20.042969 15.75 C 20.238281 15.621094 20.34375 15.503906 20.464844 15.261719 C 20.609375 14.960938 20.632812 14.9375 20.773438 14.972656 C 21.121094 15.0625 21.382812 15.066406 21.511719 14.976562 C 21.578125 14.929688 21.679688 14.890625 21.722656 14.890625 C 21.867188 14.890625 22.234375 14.6875 22.472656 14.476562 C 22.714844 14.261719 22.726562 14.253906 22.8125 14.328125 Z M 14.265625 16.464844 C 14.277344 16.515625 14.25 16.617188 14.207031 16.683594 C 14.160156 16.75 14.105469 16.890625 14.089844 16.988281 C 14.066406 17.082031 14.023438 17.179688 13.996094 17.195312 C 13.964844 17.214844 13.945312 17.3125 13.945312 17.40625 C 13.945312 17.503906 13.910156 17.632812 13.871094 17.695312 C 13.789062 17.828125 13.648438 18.273438 13.535156 18.804688 C 13.417969 19.328125 13.410156 21.484375 13.527344 21.964844 C 13.617188 22.351562 13.570312 22.5 13.359375 22.5 L 13.222656 22.5 L 13.222656 19.484375 C 13.222656 17.65625 13.246094 16.445312 13.273438 16.410156 C 13.304688 16.382812 13.535156 16.359375 13.789062 16.367188 C 14.179688 16.367188 14.253906 16.382812 14.265625 16.464844 Z M 44.0625 16.433594 C 44.117188 16.5 43.929688 19.683594 43.839844 20.195312 C 43.804688 20.378906 43.753906 20.777344 43.726562 21.082031 C 43.65625 21.785156 43.527344 22.679688 43.417969 23.25 C 43.371094 23.496094 43.304688 23.867188 43.273438 24.082031 C 43.238281 24.292969 43.1875 24.496094 43.160156 24.523438 C 43.132812 24.554688 43.109375 24.65625 43.109375 24.753906 C 43.109375 24.851562 43.070312 25.054688 43.027344 25.199219 C 42.949219 25.472656 42.707031 26.421875 42.601562 26.890625 C 42.570312 27.027344 42.523438 27.160156 42.496094 27.1875 C 42.464844 27.222656 42.445312 27.289062 42.445312 27.351562 C 42.445312 27.484375 41.726562 29.621094 41.660156 29.6875 C 41.632812 29.722656 41.609375 29.785156 41.609375 29.828125 C 41.609375 29.878906 41.570312 29.988281 41.527344 30.078125 C 41.484375 30.160156 41.445312 30.261719 41.445312 30.289062 C 41.445312 30.316406 41.394531 30.457031 41.328125 30.601562 C 41.265625 30.746094 41.183594 30.933594 41.140625 31.027344 C 40.734375 31.949219 39.933594 33.582031 39.671875 34.027344 C 39.5625 34.210938 39.410156 34.484375 39.332031 34.628906 C 39.261719 34.773438 39.179688 34.890625 39.15625 34.890625 C 39.128906 34.890625 39.109375 34.921875 39.109375 34.957031 C 39.109375 34.996094 39.027344 35.148438 38.921875 35.304688 C 38.820312 35.457031 38.570312 35.832031 38.371094 36.140625 C 37.75 37.078125 37.148438 37.921875 37 38.054688 C 36.984375 38.070312 36.871094 38.207031 36.75 38.359375 C 36.40625 38.792969 36.332031 38.867188 36.339844 38.773438 C 36.339844 38.726562 36.328125 33.695312 36.316406 27.582031 C 36.304688 21.472656 36.300781 16.445312 36.3125 16.417969 C 36.339844 16.351562 44.003906 16.367188 44.0625 16.433594 Z M 31.855469 21.304688 C 32.027344 21.476562 32.082031 21.8125 32.003906 22.183594 C 31.964844 22.371094 31.921875 22.542969 31.90625 22.570312 C 31.890625 22.59375 31.761719 22.503906 31.617188 22.367188 C 31.300781 22.078125 30.988281 21.90625 30.671875 21.855469 C 30.542969 21.832031 30.445312 21.800781 30.445312 21.773438 C 30.445312 21.707031 30.839844 21.460938 31.15625 21.332031 C 31.476562 21.207031 31.738281 21.195312 31.855469 21.304688 Z M 14.355469 23.027344 C 14.710938 23.0625 14.871094 23.132812 15.332031 23.476562 C 15.5 23.601562 15.734375 23.761719 15.855469 23.832031 C 16.0625 23.957031 16.066406 23.964844 16.027344 24.1875 C 15.976562 24.464844 15.976562 24.359375 16.054688 25.359375 C 16.089844 25.816406 16.109375 26.734375 16.101562 27.394531 L 16.082031 28.601562 L 15.945312 28.714844 C 15.660156 28.949219 15.339844 28.851562 14.816406 28.351562 C 14.4375 28 14.089844 27.722656 13.765625 27.523438 C 13.503906 27.359375 13.132812 26.878906 12.921875 26.4375 C 12.65625 25.871094 12.566406 24.820312 12.746094 24.304688 C 13.027344 23.464844 13.5 22.917969 13.882812 22.972656 C 13.960938 22.984375 14.171875 23.011719 14.355469 23.027344 Z M 13.511719 27.960938 C 13.550781 28 13.734375 28.148438 13.921875 28.289062 C 14.105469 28.433594 14.332031 28.644531 14.421875 28.761719 L 14.582031 28.972656 L 14.566406 29.722656 C 14.5625 30.132812 14.535156 30.660156 14.5 30.890625 C 14.472656 31.117188 14.429688 31.554688 14.40625 31.859375 L 14.359375 32.417969 L 14.027344 32.5 C 13.839844 32.542969 13.609375 32.640625 13.515625 32.707031 C 13.421875 32.777344 13.316406 32.832031 13.285156 32.832031 C 13.238281 32.832031 13.222656 32.101562 13.222656 30.304688 C 13.222656 27.828125 13.222656 27.777344 13.328125 27.832031 C 13.390625 27.859375 13.464844 27.921875 13.511719 27.960938 Z M 25.316406 32.289062 C 25.4375 32.398438 25.445312 32.445312 25.445312 33.199219 C 25.445312 33.632812 25.460938 34.027344 25.476562 34.078125 C 25.515625 34.179688 25.601562 34.140625 26.066406 33.789062 C 26.238281 33.660156 26.40625 33.554688 26.433594 33.554688 C 26.460938 33.554688 26.515625 33.515625 26.554688 33.472656 C 26.65625 33.351562 27 33.371094 27.167969 33.503906 C 27.277344 33.601562 27.304688 33.671875 27.304688 33.894531 C 27.304688 34.207031 27.378906 34.132812 26.359375 34.816406 C 25.964844 35.082031 25.59375 35.339844 25.542969 35.390625 C 25.457031 35.460938 25.445312 35.59375 25.445312 36.621094 C 25.445312 37.304688 25.464844 37.785156 25.5 37.804688 C 25.527344 37.820312 25.621094 37.800781 25.707031 37.75 C 26.027344 37.566406 26.367188 37.367188 26.582031 37.226562 C 26.707031 37.148438 26.894531 37.039062 27 36.984375 C 27.105469 36.921875 27.328125 36.789062 27.488281 36.683594 L 27.777344 36.488281 L 27.777344 34.289062 L 27.964844 34.171875 C 28.226562 34.011719 28.355469 34.027344 28.582031 34.25 L 28.777344 34.449219 L 28.777344 35.167969 C 28.777344 35.5625 28.792969 35.894531 28.820312 35.910156 C 28.84375 35.921875 29.070312 35.8125 29.320312 35.660156 C 29.578125 35.511719 29.804688 35.390625 29.832031 35.390625 C 29.855469 35.390625 29.90625 35.351562 29.945312 35.304688 C 30.109375 35.105469 30.566406 35.273438 30.695312 35.578125 C 30.753906 35.722656 30.753906 35.777344 30.660156 35.960938 C 30.601562 36.078125 30.496094 36.195312 30.429688 36.222656 C 30.359375 36.253906 30.15625 36.367188 29.972656 36.472656 C 29.789062 36.578125 29.582031 36.695312 29.515625 36.722656 C 29.378906 36.777344 29.351562 36.898438 29.460938 36.984375 C 29.496094 37.015625 29.679688 37.121094 29.859375 37.222656 C 30.457031 37.550781 30.59375 37.65625 30.6875 37.859375 C 30.785156 38.050781 30.785156 38.070312 30.695312 38.210938 C 30.570312 38.40625 30.390625 38.550781 30.265625 38.554688 C 30.183594 38.554688 29.65625 38.300781 29.222656 38.042969 C 29.117188 37.984375 28.910156 37.867188 28.761719 37.792969 C 28.617188 37.714844 28.484375 37.632812 28.464844 37.605469 C 28.40625 37.503906 28.054688 37.554688 27.851562 37.699219 C 27.734375 37.777344 27.589844 37.867188 27.527344 37.894531 C 27.464844 37.921875 27.34375 37.996094 27.25 38.054688 C 27.160156 38.117188 27.035156 38.1875 26.972656 38.222656 C 26.910156 38.253906 26.789062 38.328125 26.695312 38.390625 C 26.605469 38.449219 26.488281 38.515625 26.445312 38.539062 C 26.121094 38.6875 26 38.792969 26.054688 38.867188 C 26.09375 38.90625 26.410156 39.109375 26.765625 39.316406 C 27.121094 39.523438 27.457031 39.714844 27.511719 39.75 C 27.5625 39.777344 27.738281 39.878906 27.90625 39.964844 L 28.207031 40.128906 L 28.644531 39.890625 C 28.882812 39.753906 29.171875 39.59375 29.277344 39.527344 C 29.382812 39.460938 29.511719 39.390625 29.554688 39.371094 C 29.601562 39.351562 29.738281 39.273438 29.859375 39.195312 C 30.128906 39.035156 30.238281 39.027344 30.4375 39.144531 C 30.644531 39.265625 30.746094 39.539062 30.660156 39.765625 C 30.59375 39.957031 30.445312 40.0625 29.628906 40.5 C 29.300781 40.671875 29.253906 40.792969 29.488281 40.882812 C 29.640625 40.945312 29.945312 41.117188 30.34375 41.371094 C 30.734375 41.617188 30.8125 41.972656 30.527344 42.253906 C 30.34375 42.4375 30.101562 42.429688 29.765625 42.222656 C 29.621094 42.128906 29.488281 42.054688 29.472656 42.054688 C 29.460938 42.054688 29.320312 41.984375 29.167969 41.890625 C 29.011719 41.800781 28.859375 41.722656 28.832031 41.722656 C 28.800781 41.722656 28.777344 42.023438 28.777344 42.445312 L 28.777344 43.160156 L 28.582031 43.359375 C 28.34375 43.59375 28.183594 43.605469 27.949219 43.410156 L 27.777344 43.265625 L 27.777344 42.199219 C 27.777344 41.25 27.765625 41.117188 27.683594 41.042969 C 27.59375 40.972656 27.066406 40.65625 26.832031 40.539062 C 26.789062 40.515625 26.679688 40.449219 26.582031 40.390625 C 26.496094 40.328125 26.367188 40.253906 26.304688 40.222656 C 26.246094 40.1875 26.121094 40.117188 26.027344 40.054688 C 25.726562 39.867188 25.542969 39.777344 25.496094 39.8125 C 25.464844 39.828125 25.445312 40.351562 25.445312 40.972656 C 25.445312 41.882812 25.460938 42.117188 25.523438 42.183594 C 25.566406 42.226562 25.972656 42.503906 26.417969 42.804688 C 26.972656 43.171875 27.25 43.394531 27.289062 43.496094 C 27.417969 43.828125 27.199219 44.214844 26.882812 44.222656 C 26.792969 44.222656 26.511719 44.070312 26.148438 43.828125 C 25.820312 43.609375 25.535156 43.449219 25.5 43.472656 C 25.464844 43.496094 25.445312 43.820312 25.445312 44.316406 C 25.445312 45.078125 25.4375 45.140625 25.320312 45.261719 C 25.132812 45.460938 24.777344 45.4375 24.589844 45.214844 C 24.449219 45.050781 24.445312 45.027344 24.445312 44.246094 C 24.445312 43.726562 24.421875 43.445312 24.390625 43.445312 C 24.355469 43.445312 24.199219 43.539062 24.039062 43.65625 C 23.59375 43.984375 23.179688 44.222656 23.0625 44.222656 C 23 44.222656 22.878906 44.15625 22.785156 44.078125 C 22.640625 43.957031 22.609375 43.894531 22.609375 43.6875 C 22.609375 43.464844 22.632812 43.433594 22.882812 43.234375 C 23.035156 43.117188 23.445312 42.820312 23.800781 42.589844 L 24.445312 42.15625 L 24.445312 40.964844 C 24.445312 40.3125 24.433594 39.777344 24.417969 39.777344 C 24.371094 39.777344 23.859375 40.066406 23.773438 40.144531 C 23.726562 40.1875 23.671875 40.222656 23.648438 40.222656 C 23.628906 40.222656 23.433594 40.328125 23.210938 40.460938 C 22.988281 40.59375 22.765625 40.714844 22.722656 40.738281 C 22.15625 41.023438 22.167969 40.996094 22.167969 42.117188 C 22.167969 42.734375 22.144531 43.15625 22.105469 43.246094 C 21.976562 43.515625 21.566406 43.566406 21.332031 43.332031 C 21.234375 43.234375 21.222656 43.144531 21.222656 42.5 C 21.222656 41.878906 21.210938 41.765625 21.132812 41.738281 C 21.082031 41.722656 21 41.726562 20.949219 41.761719 C 20.898438 41.789062 20.617188 41.945312 20.320312 42.105469 C 19.75 42.410156 19.683594 42.421875 19.421875 42.214844 C 19.304688 42.121094 19.277344 42.054688 19.277344 41.839844 C 19.277344 41.65625 19.304688 41.542969 19.378906 41.488281 C 19.472656 41.40625 20.277344 40.949219 20.457031 40.878906 C 20.648438 40.800781 20.566406 40.632812 20.265625 40.476562 C 19.464844 40.0625 19.277344 39.898438 19.277344 39.648438 C 19.277344 39.371094 19.316406 39.292969 19.535156 39.167969 L 19.714844 39.050781 L 20.011719 39.1875 C 20.171875 39.265625 20.445312 39.410156 20.609375 39.503906 C 21.800781 40.1875 21.683594 40.140625 21.871094 40.042969 C 22.261719 39.839844 22.621094 39.640625 23.082031 39.351562 C 23.144531 39.3125 23.320312 39.214844 23.476562 39.132812 C 23.8125 38.957031 23.945312 38.792969 23.792969 38.738281 C 23.738281 38.714844 23.265625 38.445312 22.738281 38.128906 C 21.84375 37.589844 21.554688 37.472656 21.472656 37.609375 C 21.449219 37.644531 21.355469 37.707031 21.261719 37.75 C 21.066406 37.832031 20.648438 38.066406 20.160156 38.367188 C 19.785156 38.59375 19.671875 38.601562 19.449219 38.410156 C 19.300781 38.289062 19.277344 38.226562 19.277344 38.003906 C 19.277344 37.746094 19.34375 37.628906 19.554688 37.535156 C 19.601562 37.515625 19.765625 37.421875 19.917969 37.328125 C 20.070312 37.238281 20.277344 37.121094 20.378906 37.078125 C 20.609375 36.972656 20.605469 36.859375 20.34375 36.710938 C 20.226562 36.640625 20.082031 36.554688 20.027344 36.515625 C 19.964844 36.476562 19.8125 36.398438 19.6875 36.332031 C 19.351562 36.160156 19.25 36.027344 19.25 35.738281 C 19.25 35.527344 19.277344 35.464844 19.417969 35.355469 C 19.648438 35.171875 19.773438 35.1875 20.234375 35.460938 C 20.457031 35.59375 20.679688 35.714844 20.722656 35.738281 C 20.765625 35.761719 20.867188 35.816406 20.945312 35.859375 C 21.1875 36.003906 21.226562 35.898438 21.210938 35.101562 L 21.195312 34.378906 L 21.378906 34.214844 C 21.578125 34.039062 21.75 34.011719 21.933594 34.144531 C 22.15625 34.300781 22.179688 34.417969 22.171875 35.464844 C 22.167969 36.199219 22.1875 36.496094 22.238281 36.554688 C 22.3125 36.644531 22.582031 36.839844 22.722656 36.910156 C 22.8125 36.949219 22.8125 36.949219 23.488281 37.359375 C 23.746094 37.511719 24 37.667969 24.0625 37.699219 C 24.128906 37.738281 24.207031 37.792969 24.238281 37.828125 C 24.273438 37.859375 24.332031 37.890625 24.371094 37.890625 C 24.433594 37.890625 24.445312 37.644531 24.433594 36.628906 L 24.417969 35.371094 L 24 35.070312 C 23.773438 34.910156 23.542969 34.761719 23.5 34.738281 C 23.238281 34.617188 22.605469 34.089844 22.578125 33.964844 C 22.476562 33.570312 22.855469 33.195312 23.199219 33.34375 C 23.394531 33.433594 24.199219 33.976562 24.25 34.054688 C 24.265625 34.082031 24.320312 34.109375 24.367188 34.109375 C 24.429688 34.109375 24.445312 33.964844 24.445312 33.300781 L 24.445312 32.488281 L 24.605469 32.328125 C 24.8125 32.121094 25.121094 32.105469 25.316406 32.289062 Z M 14.246094 33.3125 C 14.261719 33.359375 14.277344 33.445312 14.277344 33.503906 C 14.277344 33.59375 14.511719 34.023438 14.695312 34.273438 C 14.722656 34.316406 15.117188 34.726562 15.566406 35.1875 C 16.390625 36.027344 16.960938 36.527344 17.695312 37.027344 C 17.910156 37.171875 18.09375 37.3125 18.109375 37.332031 C 18.128906 37.351562 18.238281 37.429688 18.359375 37.5 C 18.484375 37.570312 18.59375 37.644531 18.609375 37.667969 C 18.628906 37.683594 18.734375 37.753906 18.84375 37.832031 C 19.011719 37.945312 19.054688 38.003906 19.054688 38.140625 C 19.054688 38.253906 19.121094 38.382812 19.277344 38.554688 C 19.5 38.804688 19.566406 39 19.421875 39 C 19.382812 39 19.285156 39.078125 19.199219 39.179688 C 19.015625 39.398438 19 39.777344 19.167969 40.027344 C 19.289062 40.210938 19.3125 40.390625 19.222656 40.390625 C 19.140625 40.390625 18.898438 40.65625 18.792969 40.855469 C 18.722656 40.988281 18.714844 41.160156 18.746094 41.828125 C 18.765625 42.273438 18.8125 42.792969 18.84375 42.984375 C 18.878906 43.179688 18.894531 43.34375 18.878906 43.367188 C 18.84375 43.394531 17.871094 42.695312 17.660156 42.488281 C 17.617188 42.449219 17.445312 42.304688 17.277344 42.179688 C 16.429688 41.511719 14.460938 39.554688 13.304688 38.222656 C 13 37.871094 12.738281 37.570312 12.722656 37.554688 C 12.59375 37.445312 11.609375 36.167969 11.609375 36.117188 C 11.609375 36.082031 11.777344 35.890625 11.988281 35.683594 C 12.40625 35.261719 12.671875 34.878906 12.945312 34.316406 C 13.273438 33.628906 14.117188 32.976562 14.246094 33.3125 Z M 31.265625 40.140625 C 31.351562 40.183594 31.542969 40.273438 31.695312 40.332031 C 32.417969 40.644531 33.515625 41.214844 33.609375 41.332031 C 33.628906 41.355469 33.683594 41.394531 33.738281 41.421875 C 33.832031 41.476562 33.832031 41.488281 33.714844 41.628906 C 33.65625 41.710938 33.382812 41.960938 33.121094 42.183594 C 32.855469 42.40625 32.601562 42.621094 32.550781 42.667969 C 32.433594 42.777344 32.265625 42.917969 31.804688 43.277344 C 31.589844 43.445312 31.382812 43.609375 31.34375 43.648438 C 31.304688 43.6875 31.25 43.722656 31.234375 43.722656 C 31.210938 43.722656 31.132812 43.777344 31.054688 43.851562 C 30.867188 44.023438 29.878906 44.761719 29.472656 45.027344 C 29.105469 45.273438 29.082031 45.289062 28.894531 45.445312 C 28.820312 45.503906 28.726562 45.554688 28.683594 45.554688 C 28.644531 45.554688 28.609375 45.570312 28.609375 45.601562 C 28.609375 45.621094 28.515625 45.6875 28.40625 45.75 C 28.292969 45.8125 28.179688 45.890625 28.144531 45.921875 C 28.023438 46.039062 25.722656 47.394531 25.679688 47.371094 C 25.65625 47.355469 25.644531 47.121094 25.648438 46.855469 C 25.65625 46.320312 25.632812 46.359375 26.140625 46.015625 C 26.261719 45.929688 26.589844 45.699219 26.859375 45.5 C 27.140625 45.300781 27.460938 45.066406 27.589844 44.984375 C 27.710938 44.898438 27.859375 44.789062 27.921875 44.734375 C 27.976562 44.683594 28.214844 44.488281 28.445312 44.304688 C 29.148438 43.746094 29.234375 43.617188 29.328125 42.9375 C 29.382812 42.511719 29.449219 42.390625 29.566406 42.484375 C 29.605469 42.511719 29.761719 42.582031 29.910156 42.640625 C 30.144531 42.722656 30.207031 42.726562 30.394531 42.667969 C 30.511719 42.628906 30.6875 42.503906 30.789062 42.398438 C 30.933594 42.234375 30.972656 42.144531 30.988281 41.890625 C 31.011719 41.601562 30.996094 41.554688 30.84375 41.382812 C 30.753906 41.277344 30.527344 41.105469 30.339844 41 C 30.148438 40.894531 30.003906 40.773438 30.011719 40.734375 C 30.023438 40.695312 30.148438 40.59375 30.300781 40.511719 C 30.449219 40.429688 30.640625 40.292969 30.714844 40.210938 C 30.878906 40.042969 31.054688 40.015625 31.265625 40.140625 Z M 31.265625 40.140625 "/>
<path style=" stroke:none;fill-rule:nonzero;fill:rgb(0%,0%,0%);fill-opacity:1;" d="M 23.167969 19.539062 C 22.871094 19.589844 22.332031 19.800781 21.789062 20.070312 C 21.390625 20.273438 21.378906 20.285156 21.445312 20.390625 C 21.496094 20.464844 21.5625 20.460938 22.332031 20.285156 C 22.75 20.1875 23.300781 20.210938 23.609375 20.332031 C 23.976562 20.476562 24.117188 20.589844 24.515625 21.054688 L 24.726562 21.304688 L 23.945312 21.34375 C 22.957031 21.390625 22.515625 21.488281 21.738281 21.84375 C 21.460938 21.972656 21.144531 22.25 21.1875 22.328125 C 21.25 22.421875 21.566406 22.554688 21.726562 22.554688 C 21.816406 22.554688 21.964844 22.523438 22.066406 22.476562 C 22.167969 22.433594 22.339844 22.359375 22.457031 22.3125 C 22.566406 22.261719 22.695312 22.222656 22.738281 22.222656 C 22.789062 22.222656 22.84375 22.195312 22.859375 22.167969 C 22.929688 22.054688 23.109375 22.105469 23.109375 22.234375 C 23.109375 22.429688 23.367188 22.710938 23.582031 22.753906 C 23.800781 22.792969 24.292969 22.65625 24.457031 22.515625 C 24.59375 22.394531 24.699219 22.460938 24.738281 22.6875 C 24.785156 22.949219 24.976562 23.222656 25.121094 23.222656 C 25.183594 23.222656 25.320312 23.171875 25.421875 23.105469 C 25.578125 23.011719 25.640625 23 25.8125 23.050781 C 26.210938 23.160156 26.617188 22.820312 26.632812 22.367188 C 26.640625 22.070312 26.726562 21.964844 26.988281 21.917969 C 27.550781 21.8125 27.933594 21.394531 27.984375 20.839844 C 28.023438 20.449219 27.960938 20 27.878906 20 C 27.804688 20 27.6875 20.144531 27.589844 20.359375 C 27.542969 20.449219 27.472656 20.578125 27.429688 20.640625 C 27.34375 20.75 27.339844 20.75 27.210938 20.621094 C 27.09375 20.515625 27.015625 20.5 26.589844 20.5 C 25.972656 20.5 25.433594 20.359375 24.890625 20.050781 C 24.121094 19.621094 23.582031 19.460938 23.167969 19.539062 Z M 23.167969 19.539062 "/>
<path style=" stroke:none;fill-rule:nonzero;fill:rgb(0%,0%,0%);fill-opacity:1;" d="M 25.851562 25.160156 C 25.707031 25.304688 25.554688 25.460938 25.523438 25.503906 C 25.355469 25.726562 25.109375 26.351562 25.054688 26.695312 C 25.023438 26.90625 24.976562 27.179688 24.960938 27.289062 C 24.9375 27.433594 24.949219 27.5 24.996094 27.5 C 25.140625 27.5 25.320312 27.210938 25.464844 26.761719 C 25.511719 26.621094 25.609375 26.699219 25.609375 26.871094 C 25.609375 27.214844 26.054688 27.59375 26.476562 27.617188 C 26.59375 27.621094 26.972656 27.605469 27.316406 27.582031 C 27.871094 27.542969 27.957031 27.550781 28.09375 27.644531 C 28.285156 27.765625 28.753906 27.785156 28.964844 27.671875 C 29.089844 27.605469 29.160156 27.601562 29.34375 27.648438 C 29.660156 27.734375 29.957031 27.617188 30.171875 27.316406 C 30.316406 27.117188 30.332031 27.054688 30.332031 26.644531 C 30.328125 26.339844 30.300781 26.132812 30.234375 25.996094 C 30.109375 25.746094 29.917969 25.5 29.839844 25.5 C 29.761719 25.5 29.761719 25.761719 29.839844 25.789062 C 29.917969 25.816406 29.929688 26.429688 29.851562 26.503906 C 29.800781 26.554688 29.75 26.550781 29.65625 26.488281 C 29.539062 26.410156 29.503906 26.410156 29.265625 26.503906 C 29.054688 26.589844 28.957031 26.59375 28.710938 26.550781 C 27.921875 26.410156 27.421875 26.433594 26.773438 26.644531 C 26.632812 26.695312 26.40625 26.722656 26.277344 26.710938 C 26.070312 26.695312 26.015625 26.667969 25.933594 26.515625 C 25.832031 26.351562 25.832031 26.328125 25.921875 26.015625 C 25.972656 25.839844 26.035156 25.671875 26.0625 25.640625 C 26.089844 25.609375 26.109375 25.550781 26.109375 25.5 C 26.109375 25.457031 26.148438 25.34375 26.195312 25.253906 C 26.300781 25.054688 26.300781 24.890625 26.199219 24.890625 C 26.15625 24.890625 26 25.011719 25.851562 25.160156 Z M 25.851562 25.160156 "/>
<path style=" stroke:none;fill-rule:nonzero;fill:rgb(0%,0%,0%);fill-opacity:1;" d="M 13.605469 23.761719 C 13.160156 24.179688 13.101562 24.351562 13.101562 25.167969 C 13.101562 25.6875 13.121094 25.898438 13.1875 26.027344 C 13.238281 26.117188 13.277344 26.226562 13.277344 26.261719 C 13.277344 26.300781 13.300781 26.332031 13.328125 26.332031 C 13.355469 26.332031 13.398438 26.382812 13.417969 26.445312 C 13.433594 26.503906 13.488281 26.554688 13.535156 26.554688 C 13.605469 26.554688 13.609375 26.472656 13.578125 25.984375 C 13.535156 25.273438 13.605469 24.878906 13.839844 24.59375 C 13.933594 24.484375 14.050781 24.390625 14.105469 24.390625 C 14.195312 24.390625 14.554688 24.710938 14.554688 24.792969 C 14.554688 24.816406 14.457031 24.9375 14.339844 25.066406 C 13.878906 25.539062 14.003906 26.222656 14.671875 26.898438 C 14.984375 27.214844 14.996094 27.222656 15.300781 27.222656 C 15.550781 27.222656 15.621094 27.199219 15.6875 27.101562 C 15.820312 26.910156 15.800781 26.828125 15.527344 26.527344 C 15.394531 26.371094 15.253906 26.214844 15.222656 26.179688 C 15.1875 26.140625 15.144531 26.023438 15.128906 25.921875 C 15.105469 25.765625 15.140625 25.679688 15.355469 25.371094 C 15.496094 25.171875 15.609375 24.972656 15.609375 24.929688 C 15.609375 24.671875 14.855469 23.839844 14.433594 23.621094 C 14.054688 23.4375 13.929688 23.460938 13.605469 23.761719 Z M 13.605469 23.761719 "/>
</g>
</svg>
