<?xml version="1.0" encoding="UTF-8"?>
<svg xmlns="http://www.w3.org/2000/svg" xmlns:xlink="http://www.w3.org/1999/xlink" width="50px" height="50px" viewBox="0 0 50 50" version="1.1">
<g id="surface1">
<path style=" stroke:none;fill-rule:nonzero;fill:rgb(0%,0%,0%);fill-opacity:1;" d="M 23.75 11.667969 C 23.75 12.6875 23.667969 13.542969 23.582031 13.542969 C 23.480469 13.542969 23.042969 13.125 22.582031 12.605469 C 22.144531 12.082031 21.6875 11.667969 21.5625 11.667969 C 21.4375 11.667969 20.957031 12.042969 20.519531 12.5 L 19.707031 13.332031 L 21.730469 15.375 L 23.75 17.394531 L 23.75 21.980469 L 21.980469 20.207031 L 20.1875 18.4375 L 21.480469 18.375 L 22.769531 18.3125 L 21.75 17.269531 L 20.75 16.25 L 16.25 16.25 L 16.25 20.957031 L 17.269531 21.957031 L 18.3125 22.980469 L 18.375 21.707031 L 18.4375 20.4375 L 20.125 22.082031 L 21.8125 23.75 L 17.1875 23.75 L 13.332031 19.894531 L 12.457031 20.792969 L 11.582031 21.667969 L 12.605469 22.707031 L 13.625 23.75 L 9.792969 23.75 L 9.769531 24.582031 C 9.730469 25.625 9.730469 26 9.769531 26.1875 C 9.769531 26.292969 10.625 26.332031 11.667969 26.3125 C 12.6875 26.292969 13.542969 26.332031 13.542969 26.417969 C 13.542969 26.480469 13.105469 27 12.5625 27.542969 L 11.582031 28.542969 L 12.457031 29.417969 L 13.332031 30.3125 L 15.355469 28.3125 L 17.394531 26.332031 L 18.542969 26.292969 C 19.167969 26.269531 20.144531 26.3125 20.6875 26.394531 L 21.6875 26.5625 L 20 28.230469 L 18.332031 29.894531 L 18.332031 27.207031 L 17.292969 28.230469 L 16.25 29.25 L 16.25 33.957031 L 20.75 33.957031 L 21.769531 32.917969 L 22.792969 31.875 L 21.5 31.875 C 20.792969 31.875 20.207031 31.8125 20.207031 31.707031 C 20.207031 31.625 20.980469 30.855469 21.917969 29.957031 L 23.644531 28.375 L 23.707031 30.582031 L 23.769531 32.792969 L 19.792969 36.769531 L 20.667969 37.667969 L 21.5625 38.542969 L 22.644531 37.457031 L 23.75 36.375 L 23.75 40.207031 L 26.25 40.207031 L 26.25 36.375 L 27.355469 37.457031 L 28.4375 38.542969 L 29.332031 37.667969 L 30.207031 36.769531 L 26.230469 32.792969 L 26.292969 30.5625 L 26.355469 28.355469 L 28.082031 29.917969 C 29.019531 30.792969 29.792969 31.582031 29.792969 31.6875 C 29.792969 31.792969 29.207031 31.875 28.5 31.875 L 27.207031 31.875 L 28.230469 32.917969 L 29.25 33.957031 L 33.75 33.957031 L 33.75 29.25 L 32.707031 28.230469 L 31.667969 27.207031 L 31.667969 29.894531 L 30 28.230469 L 28.3125 26.5625 L 29 26.417969 C 29.375 26.3125 30.355469 26.269531 31.144531 26.292969 L 32.605469 26.332031 L 34.644531 28.3125 L 36.667969 30.292969 L 38.417969 28.542969 L 37.4375 27.542969 C 36.894531 27 36.457031 26.5 36.457031 26.4375 C 36.457031 26.375 37.332031 26.3125 38.394531 26.3125 L 40.3125 26.269531 L 40.3125 23.855469 L 36.4375 23.644531 L 37.5 22.605469 L 38.542969 21.582031 L 37.769531 20.792969 C 37.355469 20.355469 36.894531 20 36.769531 20 C 36.644531 20 35.707031 20.832031 34.6875 21.875 L 32.8125 23.75 L 28.1875 23.75 L 29.875 22.082031 L 31.5625 20.4375 L 31.625 21.707031 L 31.6875 22.980469 L 32.730469 21.957031 L 33.75 20.957031 L 33.75 16.25 L 29.25 16.25 L 28.25 17.269531 L 27.230469 18.3125 L 28.519531 18.375 L 29.8125 18.4375 L 28.019531 20.207031 L 26.25 21.980469 L 26.25 17.394531 L 30.3125 13.332031 L 29.417969 12.457031 L 28.542969 11.582031 L 27.542969 12.5625 C 27 13.105469 26.480469 13.542969 26.394531 13.542969 C 26.3125 13.542969 26.25 12.6875 26.25 11.667969 L 26.25 9.792969 L 23.75 9.792969 Z M 23.75 11.667969 "/>
</g>
</svg>
