<?xml version="1.0" encoding="UTF-8"?>
<svg xmlns="http://www.w3.org/2000/svg" xmlns:xlink="http://www.w3.org/1999/xlink" width="50px" height="50px" viewBox="0 0 50 50" version="1.1">
<g id="surface1">
<path style=" stroke:none;fill-rule:nonzero;fill:rgb(0%,0%,0%);fill-opacity:1;" d="M 24.753906 0.195312 C 24.734375 0.300781 24.628906 0.566406 24.515625 0.785156 L 24.316406 1.171875 L 24.460938 1.320312 C 24.632812 1.5 24.601562 1.601562 24.289062 1.785156 C 23.9375 2 23.445312 2.457031 23.445312 2.566406 C 23.445312 2.621094 23.527344 2.753906 23.628906 2.855469 C 24.035156 3.277344 24.261719 3.535156 24.300781 3.601562 C 24.339844 3.667969 24.183594 4.226562 24.023438 4.601562 C 23.976562 4.699219 23.945312 4.84375 23.945312 4.917969 C 23.945312 4.996094 23.90625 5.148438 23.855469 5.273438 C 23.683594 5.707031 23.84375 6.042969 24.109375 5.804688 C 24.246094 5.683594 24.410156 5.714844 24.433594 5.878906 C 24.445312 5.964844 24.359375 6.09375 24.140625 6.332031 C 23.722656 6.765625 23.390625 6.878906 22.820312 6.777344 C 22.042969 6.640625 21.9375 6.292969 22.617188 6.117188 C 23.121094 5.988281 23.121094 5.882812 22.632812 5.238281 C 22.429688 4.972656 22.148438 4.632812 22.015625 4.488281 C 21.722656 4.167969 21.738281 4.050781 22.082031 4.066406 C 22.371094 4.070312 22.445312 4.035156 22.445312 3.855469 C 22.445312 3.765625 22.359375 3.640625 22.199219 3.484375 C 21.867188 3.160156 20.746094 1.921875 20.632812 1.75 C 20.515625 1.570312 20.316406 1.515625 20.148438 1.628906 C 20.027344 1.707031 20.027344 1.710938 20.039062 3.0625 C 20.042969 3.804688 20.054688 4.445312 20.054688 4.484375 C 20.054688 4.609375 20.285156 4.628906 20.449219 4.503906 C 20.605469 4.390625 20.726562 4.359375 20.792969 4.421875 C 20.8125 4.4375 20.765625 4.605469 20.695312 4.792969 C 20.628906 4.984375 20.539062 5.289062 20.503906 5.472656 C 20.464844 5.65625 20.398438 5.9375 20.351562 6.101562 C 20.222656 6.503906 20.285156 6.589844 20.65625 6.566406 C 20.890625 6.554688 20.949219 6.570312 21.023438 6.671875 C 21.222656 6.960938 20.832031 7.292969 20.132812 7.445312 C 19.867188 7.496094 19.746094 7.5 19.59375 7.449219 C 19.378906 7.378906 18.945312 7.023438 18.945312 6.921875 C 18.945312 6.882812 19.035156 6.777344 19.140625 6.683594 C 19.246094 6.589844 19.332031 6.476562 19.332031 6.4375 C 19.332031 6.394531 19.023438 6.066406 18.640625 5.699219 C 18.167969 5.25 17.945312 5 17.945312 4.921875 C 17.945312 4.855469 18.035156 4.714844 18.140625 4.609375 C 18.328125 4.429688 18.378906 4.265625 18.289062 4.128906 C 18.265625 4.089844 18.035156 3.996094 17.777344 3.917969 C 17.222656 3.738281 16.878906 3.539062 16.40625 3.101562 C 16.042969 2.761719 15.878906 2.707031 15.777344 2.882812 C 15.707031 3.027344 15.695312 2.996094 15.9375 3.328125 C 16.0625 3.488281 16.25 3.8125 16.367188 4.042969 C 16.476562 4.277344 16.640625 4.5625 16.722656 4.667969 C 16.859375 4.851562 16.976562 5.070312 17.332031 5.859375 C 17.417969 6.042969 17.628906 6.488281 17.800781 6.84375 C 17.972656 7.207031 18.109375 7.523438 18.109375 7.550781 C 18.109375 7.578125 18.179688 7.746094 18.253906 7.921875 C 18.40625 8.253906 18.628906 8.867188 18.726562 9.222656 C 18.832031 9.601562 18.960938 9.917969 19.039062 10.011719 C 19.167969 10.15625 19.078125 10.3125 18.777344 10.464844 C 18.5 10.609375 18.382812 10.683594 17.121094 11.484375 C 16.722656 11.738281 16.34375 11.945312 16.285156 11.945312 C 16.214844 11.945312 16.078125 12.027344 15.964844 12.132812 C 15.789062 12.300781 15.292969 12.578125 14.648438 12.859375 C 14.527344 12.910156 14.390625 13 14.332031 13.054688 C 14.1875 13.199219 14.027344 13.277344 13.871094 13.277344 C 13.800781 13.277344 13.679688 13.320312 13.605469 13.378906 C 13.535156 13.433594 13.25 13.570312 12.972656 13.6875 C 12.699219 13.800781 12.40625 13.933594 12.320312 13.976562 C 12.246094 14.023438 12.128906 14.054688 12.066406 14.054688 C 12.003906 14.054688 11.792969 14.128906 11.601562 14.222656 C 11.410156 14.3125 11.214844 14.390625 11.179688 14.390625 C 11.140625 14.390625 11.089844 14.445312 11.0625 14.511719 C 11.003906 14.671875 11.078125 15.683594 11.167969 15.976562 C 11.214844 16.140625 11.214844 16.238281 11.179688 16.304688 C 11.140625 16.378906 11.144531 16.460938 11.195312 16.578125 C 11.273438 16.773438 11.40625 18.261719 11.355469 18.34375 C 11.332031 18.378906 11.3125 18.777344 11.300781 19.246094 C 11.292969 19.707031 11.253906 20.40625 11.222656 20.804688 C 11.160156 21.464844 11.144531 21.539062 11.015625 21.644531 C 10.882812 21.761719 10.878906 21.765625 10.972656 21.945312 C 11.027344 22.054688 11.054688 22.195312 11.039062 22.300781 C 10.9375 22.933594 10.859375 23.261719 10.800781 23.332031 C 10.75 23.394531 10.738281 23.476562 10.773438 23.617188 C 10.828125 23.859375 10.710938 24.605469 10.5625 24.945312 C 10.457031 25.179688 10.382812 25.898438 10.382812 26.667969 C 10.382812 26.804688 10.382812 27.605469 10.390625 28.445312 C 10.394531 29.285156 10.378906 30.054688 10.355469 30.148438 C 10.332031 30.261719 10.339844 30.332031 10.378906 30.332031 C 10.476562 30.332031 10.515625 30.496094 10.648438 31.566406 C 10.667969 31.710938 10.714844 31.859375 10.753906 31.894531 C 10.800781 31.929688 10.832031 31.996094 10.832031 32.035156 C 10.832031 32.132812 11.089844 32.921875 11.195312 33.148438 C 11.238281 33.246094 11.277344 33.339844 11.277344 33.359375 C 11.277344 33.429688 11.722656 34.285156 11.917969 34.582031 C 12.089844 34.851562 12.144531 35.042969 12.121094 35.285156 C 12.105469 35.4375 11.882812 35.488281 11.316406 35.457031 C 10.804688 35.433594 10.765625 35.4375 10.640625 35.554688 C 10.5625 35.628906 10.5 35.726562 10.5 35.785156 C 10.5 35.917969 11.246094 36.667969 11.371094 36.667969 C 11.433594 36.667969 11.570312 36.566406 11.6875 36.445312 L 11.898438 36.222656 L 11.710938 36.222656 C 11.503906 36.222656 11.25 36.035156 11.3125 35.933594 C 11.359375 35.855469 11.695312 35.722656 11.851562 35.722656 C 11.929688 35.722656 12.015625 35.683594 12.054688 35.632812 C 12.25 35.40625 12.300781 35.429688 12.710938 35.933594 C 13.089844 36.40625 13.605469 36.921875 14.132812 37.351562 C 14.429688 37.601562 14.449219 37.667969 14.226562 37.667969 C 14.105469 37.667969 14.015625 37.609375 13.871094 37.4375 C 13.667969 37.1875 13.542969 37.1875 13.589844 37.433594 C 13.601562 37.515625 13.59375 37.609375 13.570312 37.644531 C 13.542969 37.679688 13.316406 37.75 13.054688 37.800781 C 11.851562 38.039062 10.398438 38.722656 10.3125 39.09375 C 10.289062 39.179688 10.238281 39.289062 10.195312 39.332031 C 10.0625 39.488281 9.445312 40.671875 9.445312 40.773438 C 9.445312 40.828125 9.59375 41.011719 9.777344 41.183594 C 9.960938 41.351562 10.109375 41.527344 10.109375 41.570312 C 10.109375 41.832031 11.855469 43.035156 13.15625 43.667969 C 14.246094 44.195312 14.246094 44.195312 14.722656 44.339844 C 14.949219 44.40625 15.167969 44.476562 15.195312 44.5 C 15.285156 44.566406 15.898438 44.765625 16.140625 44.804688 C 16.261719 44.828125 16.421875 44.878906 16.5 44.921875 C 16.785156 45.0625 17.304688 45.222656 17.488281 45.222656 C 17.589844 45.222656 17.746094 45.261719 17.832031 45.304688 C 17.921875 45.351562 18.238281 45.417969 18.539062 45.445312 C 19.371094 45.535156 19.734375 45.582031 19.945312 45.648438 C 20.378906 45.789062 22.417969 46.050781 23.089844 46.054688 C 23.300781 46.054688 23.398438 46.082031 23.472656 46.167969 C 23.570312 46.273438 23.628906 46.277344 25.011719 46.253906 C 25.867188 46.246094 26.472656 46.210938 26.511719 46.179688 C 26.550781 46.148438 26.910156 46.109375 27.304688 46.089844 C 28.054688 46.054688 28.539062 46 29.054688 45.894531 C 29.222656 45.859375 29.570312 45.792969 29.832031 45.746094 C 30.09375 45.699219 30.484375 45.621094 30.695312 45.570312 C 30.910156 45.527344 31.234375 45.464844 31.417969 45.433594 C 31.765625 45.378906 31.988281 45.320312 32.777344 45.089844 C 33.039062 45.015625 33.339844 44.9375 33.445312 44.917969 C 33.726562 44.871094 34.644531 44.617188 34.988281 44.496094 C 35.15625 44.4375 35.332031 44.390625 35.382812 44.390625 C 35.4375 44.390625 35.617188 44.316406 35.785156 44.222656 C 35.949219 44.132812 36.109375 44.054688 36.148438 44.054688 C 36.183594 44.054688 36.484375 43.898438 36.816406 43.710938 C 37.144531 43.523438 37.503906 43.320312 37.617188 43.273438 C 38.089844 43.039062 39.054688 41.964844 39.054688 41.671875 C 39.054688 41.582031 38.972656 41.34375 38.867188 41.132812 C 38.695312 40.785156 38.679688 40.699219 38.65625 40.140625 C 38.640625 39.554688 38.628906 39.515625 38.457031 39.285156 C 38.355469 39.148438 38.277344 38.984375 38.277344 38.910156 C 38.277344 38.820312 38.226562 38.773438 38.109375 38.726562 C 38.015625 38.699219 37.8125 38.589844 37.648438 38.484375 C 37.3125 38.261719 37.078125 38.144531 36.6875 37.996094 C 36.449219 37.90625 36.378906 37.898438 36.261719 37.949219 C 36.140625 38.003906 36.089844 38 35.972656 37.921875 C 35.859375 37.851562 35.765625 37.839844 35.582031 37.867188 C 35.1875 37.921875 35.246094 37.753906 35.765625 37.328125 C 36 37.140625 36.285156 36.890625 36.394531 36.785156 C 36.714844 36.472656 37.394531 35.648438 37.449219 35.511719 C 37.476562 35.445312 37.523438 35.390625 37.554688 35.390625 C 37.589844 35.390625 37.679688 35.253906 37.753906 35.09375 C 37.828125 34.9375 38.003906 34.621094 38.140625 34.394531 C 38.359375 34.035156 38.539062 33.65625 38.890625 32.777344 C 38.945312 32.640625 39.003906 32.429688 39.027344 32.304688 C 39.050781 32.183594 39.109375 32.015625 39.171875 31.933594 C 39.238281 31.832031 39.277344 31.6875 39.277344 31.515625 C 39.277344 31.367188 39.304688 31.160156 39.332031 31.054688 C 39.539062 30.378906 39.5625 30.128906 39.578125 28.25 C 39.589844 27.167969 39.570312 26.65625 39.515625 26.417969 C 39.476562 26.234375 39.445312 25.988281 39.445312 25.878906 C 39.445312 25.761719 39.421875 25.5625 39.390625 25.433594 C 39.289062 24.988281 39.101562 23.75 39.082031 23.445312 C 39.070312 23.179688 38.882812 22.214844 38.8125 22.023438 C 38.792969 21.984375 38.804688 21.878906 38.828125 21.792969 C 38.859375 21.679688 38.84375 21.582031 38.773438 21.445312 C 38.710938 21.332031 38.667969 21.140625 38.667969 20.988281 C 38.667969 20.84375 38.644531 20.605469 38.617188 20.460938 C 38.542969 20.101562 38.410156 18.890625 38.429688 18.75 C 38.433594 18.6875 38.4375 18.460938 38.445312 18.25 C 38.445312 17.6875 38.554688 16.734375 38.644531 16.464844 C 38.699219 16.316406 38.710938 16.195312 38.679688 16.105469 C 38.644531 16.023438 38.648438 15.894531 38.699219 15.75 C 38.894531 15.140625 38.945312 14.640625 38.820312 14.496094 C 38.726562 14.382812 38.199219 14.183594 37.917969 14.148438 C 37.792969 14.140625 37.578125 14.078125 37.445312 14.015625 C 37.304688 13.957031 37.082031 13.867188 36.945312 13.8125 C 36.804688 13.753906 36.578125 13.648438 36.4375 13.578125 C 36.292969 13.503906 36.132812 13.445312 36.078125 13.445312 C 35.957031 13.445312 35.292969 13.140625 35.167969 13.027344 C 35.121094 12.988281 34.777344 12.800781 34.40625 12.617188 C 34.035156 12.429688 33.695312 12.226562 33.65625 12.171875 C 33.617188 12.117188 33.496094 12.042969 33.382812 12.011719 C 33.199219 11.960938 32.820312 11.726562 31.351562 10.738281 C 31.070312 10.550781 30.828125 10.367188 30.804688 10.332031 C 30.785156 10.300781 30.832031 10.1875 30.90625 10.089844 C 30.984375 9.988281 31.128906 9.695312 31.222656 9.4375 C 31.320312 9.183594 31.433594 8.894531 31.472656 8.804688 C 31.722656 8.234375 31.777344 8.089844 31.777344 8.027344 C 31.777344 7.988281 31.867188 7.777344 31.972656 7.5625 C 32.078125 7.34375 32.167969 7.148438 32.167969 7.128906 C 32.167969 7.089844 32.785156 5.84375 32.890625 5.667969 C 32.917969 5.621094 32.996094 5.460938 33.0625 5.3125 C 33.128906 5.15625 33.222656 4.972656 33.277344 4.894531 C 33.332031 4.816406 33.542969 4.460938 33.75 4.109375 C 33.960938 3.761719 34.238281 3.359375 34.371094 3.222656 C 34.644531 2.9375 34.707031 2.648438 34.5 2.582031 C 34.417969 2.554688 34.285156 2.644531 33.945312 2.949219 C 33.699219 3.171875 33.417969 3.398438 33.316406 3.449219 C 33.027344 3.601562 32.605469 3.789062 32.277344 3.921875 C 32.015625 4.027344 31.972656 4.070312 31.957031 4.207031 C 31.945312 4.328125 31.972656 4.382812 32.109375 4.460938 C 32.367188 4.609375 32.328125 4.753906 31.945312 5.109375 C 31.183594 5.816406 30.777344 6.238281 30.777344 6.328125 C 30.777344 6.382812 30.878906 6.503906 31 6.605469 C 31.253906 6.8125 31.285156 6.976562 31.101562 7.148438 C 30.917969 7.316406 30.792969 7.359375 30.355469 7.445312 C 29.898438 7.527344 29.644531 7.496094 29.382812 7.316406 C 29.1875 7.183594 28.945312 6.820312 28.945312 6.65625 C 28.945312 6.601562 29.003906 6.515625 29.082031 6.464844 C 29.195312 6.394531 29.25 6.390625 29.410156 6.445312 C 29.554688 6.488281 29.632812 6.488281 29.722656 6.445312 C 29.839844 6.382812 29.84375 6.351562 29.804688 5.929688 C 29.789062 5.679688 29.746094 5.320312 29.710938 5.140625 C 29.628906 4.640625 29.628906 4.535156 29.726562 4.511719 C 29.773438 4.503906 29.871094 4.550781 29.945312 4.609375 C 30.015625 4.679688 30.128906 4.722656 30.195312 4.710938 C 30.285156 4.699219 30.304688 4.660156 30.292969 4.5 C 30.285156 4.394531 30.261719 3.746094 30.238281 3.054688 C 30.210938 2.367188 30.171875 1.773438 30.148438 1.734375 C 30.101562 1.660156 29.894531 1.644531 29.804688 1.710938 C 29.773438 1.734375 29.683594 1.839844 29.609375 1.945312 C 29.539062 2.050781 29.359375 2.277344 29.222656 2.445312 C 29.082031 2.609375 28.84375 2.910156 28.695312 3.109375 C 28.542969 3.3125 28.328125 3.578125 28.207031 3.710938 C 28.027344 3.910156 28.003906 3.964844 28.0625 4.035156 C 28.101562 4.078125 28.195312 4.109375 28.273438 4.101562 C 28.382812 4.089844 28.421875 4.109375 28.433594 4.195312 C 28.4375 4.273438 28.261719 4.5 27.859375 4.917969 C 27.539062 5.25 27.277344 5.570312 27.277344 5.632812 C 27.277344 5.6875 27.378906 5.84375 27.5 5.976562 C 27.765625 6.265625 27.777344 6.390625 27.5625 6.570312 C 27.234375 6.84375 26.378906 6.8125 26 6.511719 C 25.746094 6.304688 25.59375 6.023438 25.671875 5.878906 C 25.753906 5.722656 25.878906 5.695312 25.996094 5.804688 C 26.148438 5.945312 26.410156 5.898438 26.433594 5.726562 C 26.449219 5.605469 26.410156 5.488281 26.1875 4.960938 C 26.144531 4.867188 26.109375 4.765625 26.109375 4.738281 C 26.109375 4.714844 26.042969 4.496094 25.964844 4.25 C 25.871094 3.964844 25.828125 3.75 25.851562 3.660156 C 25.871094 3.582031 26.078125 3.328125 26.3125 3.101562 C 26.792969 2.628906 26.816406 2.527344 26.484375 2.277344 C 25.945312 1.878906 25.609375 1.582031 25.609375 1.511719 C 25.609375 1.472656 25.660156 1.371094 25.722656 1.292969 C 25.851562 1.128906 25.839844 1.105469 25.433594 0.550781 C 25.289062 0.34375 25.167969 0.140625 25.167969 0.0898438 C 25.167969 0.0234375 25.117188 0 24.976562 0 C 24.804688 0 24.789062 0.015625 24.753906 0.195312 Z M 25.25 0.972656 C 25.351562 1.167969 25.351562 1.183594 25.261719 1.34375 C 25.210938 1.433594 25.167969 1.539062 25.167969 1.578125 C 25.167969 1.617188 25.34375 1.8125 25.566406 2.003906 C 26.109375 2.496094 26.167969 2.550781 26.167969 2.605469 C 26.167969 2.640625 25.996094 2.859375 25.777344 3.109375 C 25.542969 3.382812 25.390625 3.609375 25.390625 3.6875 C 25.390625 3.839844 25.761719 4.949219 25.839844 5.023438 C 25.867188 5.054688 25.890625 5.140625 25.890625 5.207031 C 25.890625 5.320312 25.867188 5.339844 25.683594 5.320312 C 25.484375 5.304688 25.472656 5.316406 25.457031 5.472656 C 25.449219 5.5625 25.398438 5.734375 25.351562 5.84375 C 25.246094 6.089844 25.304688 6.289062 25.578125 6.601562 C 25.855469 6.917969 26.222656 7.0625 26.828125 7.09375 L 27.359375 7.121094 L 27.632812 6.9375 C 27.785156 6.832031 27.957031 6.660156 28.011719 6.542969 C 28.109375 6.355469 28.109375 6.328125 28.027344 6.15625 C 27.984375 6.054688 27.898438 5.90625 27.851562 5.828125 C 27.753906 5.679688 27.753906 5.679688 28.089844 5.273438 C 28.695312 4.515625 29.109375 3.9375 29.109375 3.84375 C 29.109375 3.816406 29.039062 3.777344 28.945312 3.753906 C 28.722656 3.714844 28.734375 3.632812 29.003906 3.332031 C 29.128906 3.195312 29.316406 2.957031 29.421875 2.792969 C 29.609375 2.511719 29.707031 2.410156 29.75 2.457031 C 29.761719 2.464844 29.785156 2.628906 29.800781 2.804688 C 29.816406 2.988281 29.84375 3.355469 29.867188 3.621094 C 29.890625 3.894531 29.882812 4.109375 29.859375 4.109375 C 29.839844 4.109375 29.75 4.066406 29.660156 4.015625 C 29.554688 3.949219 29.484375 3.9375 29.445312 3.976562 C 29.359375 4.0625 29.320312 4.511719 29.332031 5.3125 C 29.339844 5.945312 29.328125 6.042969 29.25 6.078125 C 29.199219 6.09375 29.132812 6.101562 29.105469 6.078125 C 28.933594 5.972656 28.609375 6.359375 28.609375 6.671875 C 28.609375 6.898438 28.816406 7.304688 29.011719 7.476562 C 29.390625 7.792969 29.582031 7.851562 30.199219 7.820312 C 30.683594 7.800781 30.800781 7.777344 31.015625 7.648438 C 31.328125 7.464844 31.484375 7.253906 31.535156 6.949219 C 31.566406 6.761719 31.550781 6.683594 31.449219 6.554688 C 31.390625 6.464844 31.332031 6.367188 31.332031 6.332031 C 31.332031 6.292969 31.632812 5.949219 32 5.566406 C 32.679688 4.851562 32.746094 4.734375 32.601562 4.503906 C 32.566406 4.449219 32.550781 4.367188 32.570312 4.320312 C 32.59375 4.25 33.261719 3.890625 33.355469 3.890625 C 33.4375 3.890625 33.371094 4.054688 33.167969 4.359375 C 33.042969 4.542969 32.945312 4.714844 32.945312 4.746094 C 32.945312 4.773438 32.832031 4.972656 32.699219 5.1875 C 32.359375 5.734375 31.957031 6.566406 31.800781 7.023438 C 31.726562 7.234375 31.621094 7.484375 31.566406 7.578125 C 31.511719 7.671875 31.410156 7.90625 31.339844 8.09375 C 31.195312 8.476562 31.101562 8.527344 30.789062 8.367188 C 30.644531 8.292969 30.472656 8.25 29.695312 8.082031 C 29.511719 8.042969 29.289062 7.988281 29.195312 7.957031 C 28.601562 7.75 28.027344 7.605469 27.667969 7.5625 C 26.464844 7.417969 25.75 7.378906 24.890625 7.410156 C 23.398438 7.464844 22.472656 7.605469 20.917969 7.996094 C 20.792969 8.027344 20.433594 8.105469 20.109375 8.171875 C 19.789062 8.238281 19.503906 8.3125 19.472656 8.332031 C 19.445312 8.355469 19.289062 8.394531 19.128906 8.417969 L 18.839844 8.457031 L 18.777344 8.210938 C 18.667969 7.804688 18.011719 6.300781 17.644531 5.617188 C 17.332031 5.039062 17.488281 5.039062 18.039062 5.621094 C 18.214844 5.8125 18.457031 6.054688 18.570312 6.167969 C 18.8125 6.398438 18.820312 6.449219 18.660156 6.660156 C 18.554688 6.800781 18.550781 6.84375 18.605469 7.015625 C 18.683594 7.246094 19.199219 7.753906 19.417969 7.8125 C 19.628906 7.859375 20.214844 7.792969 20.632812 7.667969 C 21.035156 7.539062 21.289062 7.300781 21.398438 6.933594 C 21.496094 6.605469 21.429688 6.457031 21.109375 6.320312 C 20.960938 6.261719 20.820312 6.167969 20.804688 6.117188 C 20.792969 6.066406 20.816406 5.90625 20.859375 5.753906 C 20.960938 5.417969 21.109375 4.457031 21.109375 4.128906 C 21.109375 3.90625 21.101562 3.890625 20.964844 3.890625 C 20.890625 3.890625 20.761719 3.9375 20.679688 4 C 20.578125 4.082031 20.515625 4.09375 20.476562 4.054688 C 20.410156 3.988281 20.429688 2.332031 20.496094 2.261719 C 20.515625 2.238281 20.601562 2.300781 20.679688 2.398438 C 20.753906 2.5 21.035156 2.804688 21.300781 3.082031 C 21.5625 3.355469 21.773438 3.621094 21.761719 3.667969 C 21.75 3.726562 21.6875 3.746094 21.515625 3.734375 C 21.222656 3.710938 21.179688 3.789062 21.351562 4.042969 C 21.421875 4.15625 21.539062 4.351562 21.605469 4.472656 C 21.738281 4.710938 21.964844 5.027344 22.265625 5.394531 C 22.488281 5.679688 22.488281 5.753906 22.261719 5.855469 C 21.871094 6.015625 21.726562 6.40625 21.945312 6.683594 C 22.148438 6.945312 22.359375 7.050781 22.804688 7.117188 C 23.511719 7.222656 24.023438 7.054688 24.4375 6.578125 C 24.6875 6.292969 24.761719 6.09375 24.753906 5.667969 C 24.75 5.277344 24.726562 5.261719 24.40625 5.359375 C 24.300781 5.394531 24.277344 5.382812 24.277344 5.273438 C 24.277344 5.199219 24.378906 4.828125 24.503906 4.445312 C 24.628906 4.0625 24.734375 3.695312 24.734375 3.628906 C 24.734375 3.550781 24.59375 3.34375 24.367188 3.09375 C 24.167969 2.867188 24 2.644531 24 2.605469 C 24 2.5625 24.210938 2.34375 24.472656 2.121094 C 24.894531 1.761719 24.945312 1.699219 24.945312 1.527344 C 24.945312 1.429688 24.917969 1.320312 24.882812 1.300781 C 24.804688 1.253906 24.851562 0.859375 24.945312 0.746094 C 25.035156 0.644531 25.101562 0.699219 25.25 0.972656 Z M 17.316406 4.144531 C 17.570312 4.261719 17.777344 4.390625 17.777344 4.421875 C 17.777344 4.496094 17.433594 5.050781 17.390625 5.050781 C 17.355469 5.054688 16.816406 4.066406 16.789062 3.949219 C 16.777344 3.910156 16.789062 3.890625 16.816406 3.898438 C 16.839844 3.910156 17.066406 4.023438 17.316406 4.144531 Z M 26.804688 7.753906 C 27.816406 7.871094 28.140625 7.921875 28.445312 8 C 28.582031 8.039062 28.785156 8.089844 28.890625 8.109375 C 29.066406 8.15625 29.523438 8.273438 29.917969 8.382812 C 30.011719 8.410156 30.234375 8.472656 30.410156 8.523438 C 30.816406 8.628906 31 8.746094 31 8.890625 C 31 9.0625 30.898438 9.042969 29.667969 8.640625 C 29.527344 8.59375 29.378906 8.554688 29.332031 8.554688 C 29.289062 8.554688 28.960938 8.484375 28.609375 8.394531 C 28.261719 8.304688 27.851562 8.199219 27.695312 8.160156 C 27.464844 8.105469 25.628906 8.027344 25.109375 8.050781 C 25.035156 8.054688 24.570312 8.066406 24.082031 8.070312 C 23.550781 8.082031 23.144531 8.117188 23.070312 8.15625 C 23.003906 8.195312 22.707031 8.25 22.40625 8.277344 C 22.105469 8.3125 21.789062 8.355469 21.695312 8.382812 C 21.605469 8.410156 21.378906 8.460938 21.195312 8.496094 C 21.011719 8.535156 20.75 8.589844 20.609375 8.621094 C 20.472656 8.65625 20.261719 8.699219 20.140625 8.726562 C 20.015625 8.75 19.761719 8.8125 19.570312 8.859375 C 19.210938 8.960938 19.054688 8.945312 19.054688 8.816406 C 19.054688 8.710938 19.300781 8.601562 19.640625 8.550781 C 19.792969 8.527344 20.128906 8.445312 20.390625 8.367188 C 20.648438 8.285156 21.011719 8.195312 21.195312 8.167969 C 21.378906 8.140625 21.707031 8.070312 21.917969 8.027344 C 23.351562 7.710938 25.421875 7.601562 26.804688 7.753906 Z M 27.222656 8.300781 C 27.484375 8.351562 27.90625 8.429688 28.167969 8.476562 C 28.429688 8.527344 28.6875 8.582031 28.75 8.609375 C 28.8125 8.632812 29.039062 8.699219 29.25 8.75 C 29.707031 8.867188 30.328125 9.066406 30.628906 9.1875 C 30.9375 9.320312 30.882812 9.609375 30.542969 9.609375 L 30.394531 9.609375 L 30.527344 9.753906 C 30.667969 9.90625 30.707031 10.078125 30.617188 10.132812 C 30.515625 10.199219 30.15625 9.988281 29.898438 9.714844 C 29.578125 9.371094 29.390625 9.273438 28.75 9.117188 C 28.476562 9.050781 28.148438 8.964844 28.027344 8.933594 C 27.6875 8.839844 26.457031 8.699219 25.371094 8.632812 C 24.667969 8.589844 22.972656 8.695312 22.445312 8.8125 C 21.851562 8.949219 20.695312 9.316406 20.171875 9.539062 C 20.066406 9.582031 19.878906 9.707031 19.75 9.8125 C 19.621094 9.910156 19.460938 10 19.390625 10 C 19.277344 10 19.265625 9.976562 19.300781 9.820312 C 19.328125 9.6875 19.3125 9.632812 19.222656 9.570312 C 19.160156 9.527344 19.109375 9.445312 19.109375 9.390625 C 19.109375 9.246094 19.394531 9.054688 19.621094 9.054688 C 19.722656 9.050781 19.898438 9.015625 20.015625 8.972656 C 20.132812 8.933594 20.484375 8.84375 20.792969 8.777344 C 21.105469 8.710938 21.429688 8.621094 21.511719 8.578125 C 21.589844 8.535156 21.722656 8.5 21.804688 8.5 C 21.882812 8.5 22.003906 8.472656 22.070312 8.433594 C 22.140625 8.398438 22.40625 8.351562 22.667969 8.320312 C 22.929688 8.292969 23.351562 8.25 23.609375 8.222656 C 24.359375 8.148438 26.671875 8.199219 27.222656 8.300781 Z M 26.328125 9.273438 C 26.484375 9.300781 26.515625 9.332031 26.535156 9.464844 C 26.542969 9.554688 26.527344 9.671875 26.5 9.722656 C 26.472656 9.777344 26.445312 10.15625 26.4375 10.5625 C 26.429688 11.304688 26.382812 11.640625 26.292969 11.726562 C 26.246094 11.777344 25.832031 11.644531 25.304688 11.417969 C 24.949219 11.261719 24.320312 11.128906 23.484375 11.027344 C 23.261719 11 23.207031 10.964844 23.132812 10.820312 C 23.089844 10.734375 23.039062 10.5 23.027344 10.316406 C 23.015625 10.128906 22.996094 9.84375 22.972656 9.695312 C 22.917969 9.292969 22.972656 9.261719 23.800781 9.214844 C 24.539062 9.183594 26.027344 9.214844 26.328125 9.273438 Z M 22.460938 9.523438 C 22.476562 9.5625 22.472656 10.042969 22.445312 10.589844 C 22.390625 11.726562 22.398438 11.75 22.75 11.667969 C 23.171875 11.566406 23.898438 11.601562 24.464844 11.75 C 24.996094 11.890625 26.367188 12.496094 26.648438 12.722656 C 26.804688 12.84375 26.878906 12.855469 27 12.777344 C 27.066406 12.738281 27.078125 12.578125 27.066406 11.878906 C 27.054688 11.410156 27.027344 10.726562 27 10.359375 C 26.964844 9.90625 26.964844 9.679688 27.011719 9.628906 C 27.121094 9.496094 27.785156 9.5625 28.535156 9.785156 C 28.628906 9.8125 28.800781 9.832031 28.917969 9.832031 C 29.160156 9.832031 29.570312 10.066406 31.054688 11.054688 C 33.816406 12.898438 35.566406 13.820312 37.609375 14.5 L 38.417969 14.773438 L 38.40625 15.09375 C 38.40625 15.273438 38.328125 15.753906 38.246094 16.167969 C 38.101562 16.882812 38.09375 16.984375 38.09375 18.5 C 38.101562 19.699219 38.121094 20.214844 38.1875 20.640625 C 38.238281 20.945312 38.292969 21.292969 38.3125 21.417969 C 38.429688 22.355469 38.457031 22.550781 38.503906 22.707031 C 38.539062 22.800781 38.582031 23.050781 38.605469 23.261719 C 38.632812 23.464844 38.699219 23.878906 38.765625 24.167969 C 39.070312 25.601562 39.140625 26.359375 39.132812 28.277344 C 39.132812 30.015625 39.128906 30.109375 38.984375 30.804688 C 38.679688 32.273438 38.261719 33.371094 37.570312 34.527344 C 37.109375 35.292969 36.710938 35.792969 35.890625 36.609375 C 35.160156 37.339844 34.851562 37.601562 33.820312 38.320312 C 32.960938 38.929688 31.289062 39.777344 30.957031 39.777344 C 30.839844 39.777344 30.761719 39.820312 30.699219 39.917969 C 30.644531 40 30.554688 40.054688 30.476562 40.054688 C 30.355469 40.054688 30.171875 40.128906 29.167969 40.554688 C 28.964844 40.640625 28.683594 40.753906 28.527344 40.8125 C 28.378906 40.859375 28.226562 40.929688 28.195312 40.945312 C 28.167969 40.964844 28.078125 41.003906 28.003906 41.027344 C 27.933594 41.050781 27.644531 41.199219 27.367188 41.355469 C 27.089844 41.515625 26.601562 41.792969 26.285156 41.964844 C 25.960938 42.144531 25.5625 42.410156 25.394531 42.5625 C 25.222656 42.714844 25.027344 42.851562 24.964844 42.867188 C 24.878906 42.890625 24.734375 42.804688 24.394531 42.523438 C 23.917969 42.128906 23.832031 42.070312 22.832031 41.527344 C 22.484375 41.339844 22.105469 41.132812 22 41.070312 C 21.785156 40.949219 20.535156 40.390625 20.476562 40.390625 C 20.460938 40.390625 20.3125 40.328125 20.148438 40.25 C 19.785156 40.070312 19.140625 39.792969 18.390625 39.5 C 17.617188 39.199219 16.535156 38.65625 16.222656 38.417969 C 16.082031 38.3125 15.839844 38.132812 15.679688 38.027344 C 14.351562 37.144531 13.121094 35.855469 12.390625 34.582031 C 11.5 33.042969 11.105469 31.964844 10.882812 30.472656 C 10.777344 29.792969 10.777344 26.394531 10.878906 25.695312 C 10.9375 25.265625 11.042969 24.679688 11.398438 22.804688 C 11.433594 22.621094 11.484375 22.261719 11.503906 22 C 11.535156 21.738281 11.578125 21.390625 11.605469 21.222656 C 11.632812 21.054688 11.679688 20.078125 11.695312 19.054688 C 11.734375 17.234375 11.734375 17.179688 11.59375 16.304688 C 11.40625 15.132812 11.394531 14.976562 11.457031 14.867188 C 11.515625 14.761719 11.710938 14.667969 12.582031 14.316406 C 13.59375 13.910156 15.378906 13.050781 15.933594 12.699219 C 16.042969 12.628906 16.378906 12.4375 16.667969 12.277344 C 16.957031 12.109375 17.320312 11.898438 17.472656 11.804688 C 17.628906 11.707031 18.039062 11.457031 18.390625 11.25 C 18.738281 11.042969 19.160156 10.777344 19.328125 10.65625 C 19.738281 10.34375 20.5 9.949219 20.851562 9.859375 C 21.011719 9.820312 21.390625 9.714844 21.695312 9.621094 C 22.34375 9.429688 22.421875 9.417969 22.460938 9.523438 Z M 14.566406 38.023438 C 15.011719 38.117188 15.238281 38.246094 15.542969 38.578125 C 15.746094 38.792969 15.773438 38.859375 15.804688 39.195312 C 15.878906 39.855469 15.753906 40.421875 15.472656 40.722656 C 15.398438 40.800781 15.316406 40.964844 15.285156 41.089844 C 15.207031 41.371094 15.070312 41.421875 14.820312 41.253906 C 14.609375 41.109375 14.289062 40.9375 13.988281 40.804688 C 13.753906 40.699219 13.707031 40.554688 13.90625 40.554688 C 14.082031 40.554688 14.183594 40.476562 14.15625 40.355469 C 14.140625 40.253906 13.9375 40.128906 13.34375 39.828125 C 13.214844 39.761719 13.09375 39.6875 13.078125 39.660156 C 13.003906 39.542969 13.132812 39.40625 13.484375 39.222656 C 13.871094 39.023438 14.1875 38.777344 14.277344 38.605469 C 14.316406 38.535156 14.304688 38.484375 14.246094 38.417969 C 14.070312 38.246094 13 38.445312 12.359375 38.765625 C 12.042969 38.929688 11.101562 39.578125 10.832031 39.816406 C 10.683594 39.949219 10.4375 40.222656 10.292969 40.421875 C 10.144531 40.632812 9.996094 40.777344 9.933594 40.777344 C 9.878906 40.777344 9.832031 40.75 9.832031 40.714844 C 9.832031 40.589844 10.429688 39.527344 10.632812 39.292969 C 10.894531 38.996094 11.121094 38.851562 11.671875 38.609375 C 12.238281 38.371094 12.621094 38.238281 13.234375 38.082031 C 13.84375 37.929688 14.070312 37.917969 14.566406 38.023438 Z M 35.890625 38.195312 C 35.964844 38.238281 36.109375 38.273438 36.210938 38.277344 C 36.410156 38.277344 36.984375 38.488281 37.34375 38.695312 C 37.671875 38.882812 38.167969 39.371094 38.285156 39.632812 C 38.40625 39.898438 38.421875 40.167969 38.316406 40.167969 C 38.277344 40.167969 37.957031 39.882812 37.59375 39.535156 C 37.226562 39.179688 36.839844 38.84375 36.695312 38.777344 C 36.554688 38.710938 36.433594 38.632812 36.410156 38.605469 C 36.394531 38.578125 36.332031 38.554688 36.273438 38.554688 C 36.207031 38.554688 36.109375 38.5 36.0625 38.4375 C 35.972656 38.328125 35.949219 38.320312 35.800781 38.394531 C 35.679688 38.457031 35.632812 38.515625 35.621094 38.648438 C 35.605469 38.8125 35.640625 38.851562 36.050781 39.140625 C 36.554688 39.488281 36.617188 39.632812 36.328125 39.734375 C 36.234375 39.765625 36.050781 39.851562 35.921875 39.917969 C 35.800781 39.984375 35.601562 40.066406 35.488281 40.105469 C 35.144531 40.222656 35.140625 40.5 35.488281 40.589844 C 35.777344 40.660156 35.773438 40.820312 35.472656 40.964844 C 35.351562 41.027344 35.207031 41.09375 35.15625 41.121094 C 35.101562 41.144531 34.984375 41.167969 34.890625 41.167969 C 34.800781 41.167969 34.609375 41.222656 34.464844 41.289062 L 34.210938 41.417969 L 34.117188 41.300781 C 34.066406 41.234375 33.988281 41.035156 33.949219 40.855469 C 33.910156 40.671875 33.851562 40.457031 33.816406 40.367188 C 33.785156 40.277344 33.753906 39.9375 33.753906 39.617188 C 33.75 39.128906 33.765625 39 33.855469 38.878906 C 33.976562 38.695312 34.617188 38.261719 34.890625 38.183594 C 35.179688 38.09375 35.726562 38.101562 35.890625 38.195312 Z M 13.570312 38.589844 C 13.699219 38.714844 12.90625 39.222656 12.582031 39.222656 C 12.34375 39.222656 12.429688 39.015625 12.722656 38.867188 C 13.292969 38.570312 13.488281 38.511719 13.570312 38.589844 Z M 36.496094 38.859375 C 36.566406 38.9375 36.609375 39.015625 36.59375 39.039062 C 36.554688 39.078125 36.167969 38.828125 36.167969 38.761719 C 36.167969 38.671875 36.371094 38.734375 36.496094 38.859375 Z M 12.910156 39.8125 C 13.09375 39.945312 13.277344 40.054688 13.316406 40.054688 C 13.429688 40.054688 13.609375 40.265625 13.609375 40.390625 C 13.609375 40.472656 13.570312 40.5 13.457031 40.5 C 13.253906 40.5 12.371094 39.851562 12.25 39.617188 C 12.179688 39.464844 12.179688 39.445312 12.261719 39.359375 C 12.351562 39.273438 12.359375 39.277344 12.460938 39.417969 C 12.523438 39.5 12.722656 39.679688 12.910156 39.8125 Z M 17.445312 39.582031 C 17.523438 39.628906 17.714844 39.726562 17.878906 39.804688 C 18.035156 39.878906 18.167969 39.972656 18.167969 40.003906 C 18.167969 40.0625 17.351562 40.972656 16.839844 41.488281 L 16.59375 41.734375 L 16.25 41.699219 C 15.765625 41.648438 15.554688 41.570312 15.554688 41.433594 C 15.554688 41.300781 16.195312 40.4375 16.695312 39.898438 C 17.082031 39.476562 17.1875 39.433594 17.445312 39.582031 Z M 32.828125 39.65625 C 33.078125 39.929688 33.261719 40.339844 33.390625 40.933594 C 33.503906 41.457031 33.511719 41.511719 33.433594 41.59375 C 33.289062 41.734375 33.117188 41.644531 32.640625 41.1875 C 32.394531 40.957031 32.027344 40.628906 31.820312 40.464844 C 31.621094 40.300781 31.4375 40.121094 31.421875 40.070312 C 31.382812 39.972656 31.472656 39.890625 31.628906 39.890625 C 31.753906 39.890625 32.128906 39.699219 32.214844 39.589844 C 32.339844 39.4375 32.65625 39.476562 32.828125 39.65625 Z M 12.023438 39.761719 C 12.328125 40.253906 12.890625 40.667969 14.035156 41.253906 C 14.933594 41.722656 15.601562 41.972656 16.25 42.089844 C 16.765625 42.183594 17.015625 42.253906 17.667969 42.5 C 17.929688 42.59375 18.316406 42.707031 18.527344 42.75 C 19.210938 42.871094 19.714844 42.945312 19.933594 42.945312 C 20.042969 42.945312 20.226562 42.964844 20.332031 43 C 20.609375 43.078125 22.726562 43.171875 24.722656 43.195312 C 26.746094 43.214844 28.722656 43.109375 29.640625 42.9375 C 29.976562 42.878906 30.488281 42.804688 30.777344 42.777344 C 31.472656 42.710938 32.261719 42.523438 32.527344 42.367188 C 32.695312 42.265625 33.472656 42.003906 35.050781 41.527344 C 35.609375 41.355469 37.042969 40.449219 37.351562 40.066406 C 37.40625 40 37.484375 39.945312 37.527344 39.945312 C 37.710938 39.945312 38.445312 40.988281 38.5625 41.410156 C 38.644531 41.722656 38.550781 41.929688 38.121094 42.339844 C 37.695312 42.753906 37.484375 42.917969 37.054688 43.148438 C 36.101562 43.671875 35.3125 44.027344 34.8125 44.171875 C 33.929688 44.417969 33.820312 44.445312 33.699219 44.445312 C 33.628906 44.445312 33.285156 44.527344 32.9375 44.632812 C 32.214844 44.84375 31.945312 44.917969 31.472656 45.003906 C 31.289062 45.039062 30.964844 45.117188 30.75 45.179688 C 30.539062 45.238281 30.222656 45.3125 30.054688 45.332031 C 29.890625 45.355469 29.4375 45.429688 29.054688 45.496094 C 28.671875 45.554688 27.960938 45.632812 27.472656 45.667969 C 26.984375 45.699219 26.34375 45.75 26.054688 45.785156 C 25.234375 45.878906 23.367188 45.789062 22.4375 45.621094 C 22.273438 45.589844 21.890625 45.550781 21.582031 45.527344 C 21.277344 45.503906 20.9375 45.460938 20.832031 45.433594 C 20.726562 45.398438 20.476562 45.351562 20.277344 45.328125 C 20.078125 45.304688 19.746094 45.246094 19.527344 45.195312 C 19.316406 45.144531 18.929688 45.082031 18.667969 45.0625 C 18.40625 45.035156 18.082031 44.972656 17.949219 44.921875 C 17.816406 44.871094 17.640625 44.832031 17.554688 44.832031 C 17.476562 44.832031 17.132812 44.738281 16.800781 44.617188 C 16.464844 44.5 16.082031 44.382812 15.945312 44.359375 C 15.804688 44.339844 15.671875 44.300781 15.640625 44.277344 C 15.582031 44.234375 15.371094 44.15625 14.457031 43.828125 C 13.800781 43.59375 12.5625 42.964844 11.882812 42.527344 C 11.566406 42.320312 11.292969 42.132812 11.277344 42.117188 C 11.261719 42.09375 11.183594 42.039062 11.101562 41.984375 C 10.839844 41.820312 10.277344 41.265625 10.277344 41.179688 C 10.277344 41.011719 10.699219 40.4375 11.078125 40.09375 C 11.289062 39.90625 11.5 39.707031 11.550781 39.648438 C 11.695312 39.488281 11.871094 39.535156 12.023438 39.761719 Z M 37.277344 39.6875 C 37.277344 39.785156 37.171875 39.894531 36.832031 40.144531 C 36.3125 40.527344 36.144531 40.605469 36.011719 40.523438 C 35.800781 40.382812 35.898438 40.253906 36.472656 39.957031 C 36.777344 39.800781 37.039062 39.640625 37.042969 39.609375 C 37.054688 39.578125 37.109375 39.554688 37.171875 39.554688 C 37.246094 39.554688 37.277344 39.59375 37.277344 39.6875 Z M 19.371094 40.410156 C 19.648438 40.550781 20.121094 40.761719 20.421875 40.878906 C 20.726562 41 21.050781 41.140625 21.140625 41.1875 C 21.234375 41.238281 21.320312 41.277344 21.34375 41.277344 C 21.390625 41.277344 23.226562 42.1875 23.582031 42.382812 C 23.890625 42.554688 24.023438 42.695312 23.984375 42.800781 C 23.945312 42.90625 23.773438 42.910156 23.5 42.828125 C 23.394531 42.800781 22.785156 42.75 22.140625 42.722656 C 21.5 42.695312 20.851562 42.644531 20.695312 42.609375 C 20.542969 42.582031 20.167969 42.535156 19.859375 42.5 C 18.539062 42.371094 18.300781 42.332031 18.027344 42.207031 C 17.878906 42.132812 17.65625 42.054688 17.539062 42.039062 C 17.289062 42 17.167969 41.917969 17.167969 41.777344 C 17.167969 41.570312 18.542969 40.167969 18.746094 40.167969 C 18.8125 40.167969 19.09375 40.277344 19.371094 40.410156 Z M 30.960938 40.214844 C 31.035156 40.246094 31.1875 40.359375 31.304688 40.472656 C 31.421875 40.589844 31.738281 40.878906 32.011719 41.121094 C 32.476562 41.542969 32.503906 41.578125 32.488281 41.773438 C 32.472656 41.945312 32.4375 41.988281 32.261719 42.078125 C 32.144531 42.132812 31.90625 42.199219 31.734375 42.222656 C 31.5625 42.25 31.3125 42.292969 31.183594 42.328125 C 31.054688 42.359375 30.804688 42.382812 30.628906 42.378906 C 30.449219 42.378906 30.195312 42.40625 30.054688 42.445312 C 29.640625 42.5625 28.777344 42.683594 28.277344 42.699219 C 27.589844 42.722656 26.339844 42.820312 26.078125 42.878906 C 25.828125 42.933594 25.589844 42.871094 25.621094 42.765625 C 25.632812 42.726562 26.15625 42.433594 26.785156 42.109375 C 27.40625 41.789062 28.015625 41.460938 28.140625 41.378906 C 28.261719 41.292969 28.488281 41.199219 28.640625 41.160156 C 29.183594 41.035156 30.539062 40.40625 30.628906 40.246094 C 30.679688 40.15625 30.773438 40.144531 30.960938 40.214844 Z M 30.960938 40.214844 "/>
<path style=" stroke:none;fill-rule:nonzero;fill:rgb(0%,0%,0%);fill-opacity:1;" d="M 31.171875 11.878906 C 31.140625 11.945312 31.140625 12.066406 31.171875 12.222656 C 31.210938 12.394531 31.207031 12.539062 31.160156 12.726562 C 31.121094 12.867188 31.109375 13.027344 31.128906 13.078125 C 31.179688 13.210938 31.398438 13.1875 31.640625 13.023438 C 31.882812 12.859375 32.183594 12.855469 32.210938 13.015625 C 32.234375 13.132812 31.449219 14.015625 31.117188 14.246094 C 31 14.328125 30.765625 14.433594 30.605469 14.476562 C 30.292969 14.554688 29.328125 14.589844 29.253906 14.515625 C 29.234375 14.496094 29.109375 14.445312 28.984375 14.410156 C 28.855469 14.371094 28.550781 14.265625 28.304688 14.167969 C 27.511719 13.84375 26.773438 13.609375 26.5625 13.609375 C 25.933594 13.609375 25.445312 14.183594 25.445312 14.910156 C 25.445312 15.273438 25.449219 15.277344 25.710938 15.550781 C 26.042969 15.898438 26.246094 15.996094 27.195312 16.246094 C 28.933594 16.714844 29.160156 16.816406 30.667969 17.855469 C 30.957031 18.054688 31.234375 18.222656 31.285156 18.222656 C 31.332031 18.222656 31.511719 18.285156 31.671875 18.355469 C 31.917969 18.464844 32.070312 18.496094 32.527344 18.5 C 32.832031 18.503906 33.128906 18.511719 33.179688 18.503906 C 33.34375 18.496094 33.722656 18.117188 33.722656 17.960938 C 33.722656 17.804688 33.523438 17.390625 33.445312 17.390625 C 33.417969 17.390625 33.316406 17.5 33.226562 17.632812 C 33.054688 17.878906 33.054688 17.878906 32.683594 17.898438 C 32.277344 17.917969 31.964844 17.859375 31.683594 17.707031 C 31.582031 17.65625 31.472656 17.609375 31.429688 17.609375 C 31.355469 17.609375 30.550781 17.101562 30.398438 16.957031 C 30.359375 16.921875 30.300781 16.890625 30.273438 16.890625 C 30.238281 16.890625 30.066406 16.789062 29.878906 16.667969 C 29.304688 16.285156 28.570312 16 27.25 15.644531 C 26.765625 15.511719 26.179688 15.222656 26.148438 15.101562 C 26.117188 14.984375 26.1875 14.40625 26.238281 14.355469 C 26.261719 14.332031 26.398438 14.304688 26.542969 14.292969 C 26.839844 14.273438 27.589844 14.484375 28.039062 14.710938 C 28.160156 14.777344 28.359375 14.855469 28.484375 14.882812 C 28.601562 14.917969 28.894531 14.996094 29.140625 15.0625 C 29.707031 15.210938 30.25 15.183594 30.816406 14.988281 C 31.378906 14.789062 31.855469 14.398438 32.34375 13.734375 C 32.464844 13.570312 32.605469 13.421875 32.65625 13.40625 C 32.699219 13.382812 32.84375 13.429688 32.964844 13.496094 C 33.09375 13.566406 33.621094 13.832031 34.140625 14.09375 C 34.660156 14.355469 35.144531 14.605469 35.222656 14.644531 C 35.300781 14.6875 35.472656 14.773438 35.609375 14.832031 C 36.226562 15.117188 36.488281 15.214844 36.671875 15.25 C 36.949219 15.292969 37.144531 15.460938 37.1875 15.683594 C 37.207031 15.785156 37.183594 16.160156 37.140625 16.527344 C 37.089844 16.921875 37.054688 17.65625 37.054688 18.316406 C 37.054688 19.429688 37.054688 19.445312 36.929688 19.527344 C 36.828125 19.59375 36.578125 19.609375 35.699219 19.617188 C 34.957031 19.621094 34.582031 19.605469 34.539062 19.5625 C 34.496094 19.515625 34.5 19.429688 34.578125 19.234375 C 34.785156 18.6875 34.839844 18.398438 34.777344 18.132812 C 34.644531 17.550781 34.042969 16.945312 33.738281 17.089844 C 33.65625 17.128906 33.660156 17.132812 33.777344 17.15625 C 33.917969 17.171875 34.042969 17.371094 34.207031 17.828125 C 34.367188 18.285156 34.355469 18.421875 34.140625 18.859375 C 33.851562 19.4375 33.511719 19.683594 32.917969 19.746094 C 32.445312 19.792969 18.292969 19.820312 18.214844 19.773438 C 18.132812 19.722656 18.144531 12.457031 18.226562 12.234375 C 18.253906 12.15625 18.273438 12.0625 18.253906 12.015625 C 18.214844 11.917969 17.972656 11.921875 17.890625 12.027344 C 17.816406 12.117188 17.289062 12.472656 17.027344 12.617188 C 16.9375 12.660156 16.640625 12.832031 16.359375 13 C 15.878906 13.277344 15.707031 13.378906 14.972656 13.777344 C 14.199219 14.195312 12.964844 14.726562 12.332031 14.917969 C 12.195312 14.957031 12.039062 15.003906 11.984375 15.027344 C 11.859375 15.078125 11.804688 15.289062 11.882812 15.433594 C 11.917969 15.5 12 15.855469 12.066406 16.234375 C 12.171875 16.816406 12.1875 17.105469 12.1875 18.195312 C 12.183594 19.171875 12.160156 19.542969 12.09375 19.777344 C 12.050781 19.945312 12.027344 20.109375 12.042969 20.148438 C 12.089844 20.222656 16.660156 20.277344 23.109375 20.285156 C 26.496094 20.285156 28.429688 20.289062 30.554688 20.300781 C 31.027344 20.304688 32.828125 20.289062 34.554688 20.265625 L 37.695312 20.226562 L 37.695312 20.015625 C 37.6875 19.898438 37.660156 19.550781 37.621094 19.234375 C 37.5 18.179688 37.582031 16.773438 37.828125 15.777344 C 37.894531 15.527344 37.945312 15.273438 37.945312 15.214844 C 37.945312 15.09375 37.722656 14.972656 37.410156 14.921875 C 37.285156 14.90625 37.109375 14.851562 37.023438 14.804688 C 36.933594 14.761719 36.8125 14.722656 36.753906 14.722656 C 36.617188 14.722656 35.429688 14.1875 34.582031 13.75 C 33.433594 13.148438 32.039062 12.304688 31.644531 11.964844 C 31.398438 11.753906 31.25 11.726562 31.171875 11.878906 Z M 17.503906 13.253906 C 17.566406 13.523438 17.5625 19.40625 17.5 19.5 C 17.457031 19.570312 17.121094 19.582031 15.15625 19.601562 C 13.039062 19.609375 12.855469 19.605469 12.792969 19.515625 C 12.738281 19.449219 12.722656 19.101562 12.722656 18.226562 C 12.722656 17.566406 12.695312 16.929688 12.667969 16.804688 C 12.640625 16.683594 12.59375 16.328125 12.578125 16.023438 C 12.542969 15.496094 12.542969 15.457031 12.648438 15.394531 C 12.710938 15.367188 12.777344 15.351562 12.792969 15.371094 C 12.816406 15.390625 12.898438 15.355469 12.984375 15.300781 C 13.179688 15.171875 13.785156 14.90625 14 14.859375 C 14.089844 14.84375 14.1875 14.789062 14.222656 14.75 C 14.261719 14.707031 14.429688 14.617188 14.59375 14.554688 C 14.765625 14.496094 14.964844 14.390625 15.042969 14.332031 C 15.117188 14.273438 15.210938 14.222656 15.238281 14.222656 C 15.304688 14.222656 16.539062 13.542969 16.828125 13.351562 C 16.933594 13.277344 17.0625 13.222656 17.109375 13.222656 C 17.167969 13.222656 17.238281 13.183594 17.277344 13.140625 C 17.378906 13.015625 17.464844 13.0625 17.503906 13.253906 Z M 17.503906 13.253906 "/>
<path style=" stroke:none;fill-rule:nonzero;fill:rgb(0%,0%,0%);fill-opacity:1;" d="M 22.355469 12.433594 C 21.859375 12.605469 21.476562 13 21.277344 13.539062 C 21.171875 13.820312 21.167969 13.964844 21.167969 16.5 L 21.167969 19.160156 L 21.351562 19.261719 C 21.464844 19.320312 21.699219 19.359375 22.066406 19.378906 C 22.511719 19.398438 22.660156 19.382812 22.972656 19.277344 C 23.714844 19.027344 24.199219 18.34375 24.289062 17.390625 C 24.382812 16.378906 24.40625 14.753906 24.332031 13.949219 C 24.261719 13.199219 24.246094 13.132812 24.082031 12.894531 C 23.753906 12.410156 22.984375 12.207031 22.355469 12.433594 Z M 23.210938 13.023438 C 23.417969 13.128906 23.582031 13.320312 23.667969 13.554688 C 23.765625 13.828125 23.8125 16.109375 23.726562 16.878906 C 23.617188 17.964844 23.367188 18.429688 22.738281 18.722656 C 22.238281 18.960938 22.042969 18.929688 21.890625 18.582031 C 21.785156 18.355469 21.777344 18.222656 21.777344 16.207031 C 21.777344 13.949219 21.789062 13.84375 22.042969 13.417969 C 22.144531 13.25 22.4375 13.070312 22.75 12.996094 C 23 12.933594 23.050781 12.9375 23.210938 13.023438 Z M 23.210938 13.023438 "/>
<path style=" stroke:none;fill-rule:nonzero;fill:rgb(0%,0%,0%);fill-opacity:1;" d="M 20.90625 20.75 C 20.839844 20.800781 20.828125 21.050781 20.820312 22.09375 C 20.820312 22.800781 20.839844 23.40625 20.859375 23.4375 C 20.878906 23.472656 21.054688 23.5 21.246094 23.5 C 21.710938 23.5 21.761719 23.445312 21.671875 23 C 21.632812 22.8125 21.621094 22.609375 21.640625 22.554688 C 21.683594 22.417969 21.910156 22.355469 22.089844 22.4375 C 22.167969 22.472656 22.3125 22.5 22.410156 22.5 C 22.566406 22.5 22.609375 22.472656 22.667969 22.332031 C 22.714844 22.214844 22.722656 22.109375 22.683594 21.984375 L 22.632812 21.804688 L 22.15625 21.804688 C 21.601562 21.804688 21.503906 21.753906 21.589844 21.515625 C 21.644531 21.359375 21.644531 21.359375 22.15625 21.359375 C 22.550781 21.359375 22.683594 21.34375 22.722656 21.277344 C 22.804688 21.148438 22.789062 20.855469 22.695312 20.777344 C 22.589844 20.695312 21.015625 20.667969 20.90625 20.75 Z M 20.90625 20.75 "/>
<path style=" stroke:none;fill-rule:nonzero;fill:rgb(0%,0%,0%);fill-opacity:1;" d="M 24.859375 20.710938 C 24.433594 20.714844 24.0625 20.75 24.039062 20.773438 C 24.011719 20.800781 23.988281 21.40625 23.988281 22.109375 C 23.988281 23.132812 24.003906 23.410156 24.066406 23.449219 C 24.167969 23.515625 24.648438 23.511719 24.785156 23.445312 C 24.90625 23.378906 24.917969 23.195312 24.828125 22.871094 C 24.785156 22.695312 24.789062 22.632812 24.859375 22.515625 C 24.933594 22.40625 24.984375 22.382812 25.101562 22.410156 C 25.738281 22.5625 25.890625 22.511719 25.890625 22.140625 C 25.890625 21.804688 25.804688 21.753906 25.332031 21.800781 C 24.894531 21.84375 24.722656 21.785156 24.722656 21.589844 C 24.722656 21.359375 24.84375 21.3125 25.339844 21.355469 C 25.859375 21.398438 25.945312 21.359375 25.945312 21.0625 C 25.945312 20.6875 25.929688 20.6875 24.859375 20.710938 Z M 24.859375 20.710938 "/>
<path style=" stroke:none;fill-rule:nonzero;fill:rgb(0%,0%,0%);fill-opacity:1;" d="M 27.921875 20.722656 C 27.804688 20.753906 27.617188 20.855469 27.5 20.945312 C 26.792969 21.503906 26.871094 22.949219 27.621094 23.34375 C 27.949219 23.511719 28.929688 23.5625 29.144531 23.421875 C 29.265625 23.339844 29.285156 23.292969 29.265625 23.039062 C 29.25 22.765625 29.238281 22.75 29.09375 22.734375 C 29.011719 22.722656 28.832031 22.753906 28.707031 22.804688 C 28.496094 22.882812 28.449219 22.890625 28.265625 22.804688 C 27.972656 22.6875 27.871094 22.5 27.871094 22.105469 C 27.871094 21.738281 27.972656 21.539062 28.238281 21.390625 C 28.371094 21.316406 28.410156 21.316406 28.648438 21.40625 C 29.042969 21.554688 29.078125 21.5625 29.167969 21.5 C 29.285156 21.429688 29.273438 20.917969 29.15625 20.800781 C 29.050781 20.6875 28.246094 20.644531 27.921875 20.722656 Z M 27.921875 20.722656 "/>
<path style=" stroke:none;fill-rule:nonzero;fill:rgb(0%,0%,0%);fill-opacity:1;" d="M 11.609375 23.976562 C 11.570312 24.015625 11.511719 24.398438 11.464844 24.816406 C 11.421875 25.238281 11.367188 25.734375 11.339844 25.917969 C 11.199219 26.789062 11.148438 28.082031 11.214844 29.109375 C 11.34375 30.996094 11.570312 31.945312 12.238281 33.332031 C 13.101562 35.140625 14.351562 36.535156 16.167969 37.734375 C 16.515625 37.964844 16.894531 38.199219 17 38.25 C 17.105469 38.304688 17.378906 38.472656 17.605469 38.621094 C 17.832031 38.773438 18.050781 38.890625 18.09375 38.878906 C 18.160156 38.859375 18.171875 37.878906 18.167969 32.027344 C 18.167969 28.265625 18.148438 25.027344 18.128906 24.828125 C 18.105469 24.566406 18.117188 24.449219 18.167969 24.417969 C 18.25 24.367188 22.320312 24.355469 22.371094 24.410156 C 22.394531 24.429688 22.40625 25.417969 22.394531 26.601562 C 22.382812 28.726562 22.378906 28.75 22.261719 28.871094 C 22.1875 28.949219 22.015625 29.023438 21.839844 29.054688 C 21.609375 29.101562 21.472656 29.171875 21.246094 29.367188 C 20.964844 29.601562 20.945312 29.640625 20.945312 29.867188 C 20.945312 30.109375 20.9375 30.117188 20.65625 30.25 C 20.359375 30.394531 20.101562 30.523438 19.945312 30.605469 C 19.792969 30.683594 19.820312 30.855469 20.015625 31.039062 C 20.195312 31.207031 20.207031 31.238281 20.246094 31.726562 C 20.265625 32.003906 20.265625 32.609375 20.246094 33.078125 C 20.214844 33.761719 20.1875 33.949219 20.101562 34.105469 C 19.945312 34.378906 20.003906 34.503906 20.417969 34.832031 C 20.621094 34.988281 20.867188 35.25 20.976562 35.417969 C 21.25 35.84375 21.410156 35.90625 22 35.8125 C 22.476562 35.734375 22.457031 35.621094 22.449219 38.035156 C 22.445312 39.1875 22.429688 40.277344 22.410156 40.449219 C 22.378906 40.726562 22.390625 40.773438 22.503906 40.882812 C 22.570312 40.945312 22.671875 41 22.726562 41 C 22.777344 41 22.949219 41.070312 23.117188 41.167969 C 23.285156 41.253906 23.605469 41.421875 23.832031 41.539062 C 24.0625 41.648438 24.378906 41.851562 24.535156 41.984375 C 24.6875 42.117188 24.859375 42.222656 24.910156 42.222656 C 24.960938 42.222656 25.128906 42.121094 25.285156 42 C 25.566406 41.777344 26.339844 41.382812 26.734375 41.265625 C 26.851562 41.234375 26.972656 41.171875 27.003906 41.132812 C 27.039062 41.089844 27.066406 40.160156 27.070312 38.503906 C 27.082031 36.183594 27.09375 35.9375 27.179688 35.855469 C 27.253906 35.777344 27.382812 35.761719 27.828125 35.753906 C 28.472656 35.75 28.539062 35.710938 28.832031 35.160156 C 28.929688 34.984375 29.144531 34.699219 29.3125 34.535156 C 29.621094 34.214844 29.667969 34.09375 29.527344 33.910156 C 29.464844 33.828125 29.449219 33.589844 29.445312 32.746094 C 29.445312 31.867188 29.429688 31.667969 29.359375 31.609375 C 29.214844 31.496094 29.261719 31.246094 29.4375 31.109375 C 29.535156 31.050781 29.621094 30.949219 29.640625 30.890625 C 29.6875 30.734375 29.621094 30.554688 29.511719 30.554688 C 29.398438 30.554688 29.015625 30.382812 28.867188 30.265625 C 28.785156 30.199219 28.753906 30.105469 28.75 29.855469 C 28.738281 29.566406 28.714844 29.515625 28.566406 29.390625 C 28.472656 29.3125 28.199219 29.1875 27.960938 29.117188 C 27.277344 28.898438 27.128906 28.8125 27.09375 28.601562 C 27.042969 28.3125 27.023438 24.460938 27.070312 24.410156 C 27.09375 24.390625 27.957031 24.367188 28.988281 24.359375 C 30.015625 24.355469 30.921875 24.332031 31 24.3125 C 31.078125 24.292969 31.171875 24.292969 31.210938 24.320312 C 31.265625 24.359375 31.285156 25.722656 31.277344 31.496094 C 31.277344 35.410156 31.261719 38.726562 31.238281 38.867188 C 31.183594 39.285156 31.359375 39.3125 31.820312 38.960938 C 31.957031 38.859375 32.148438 38.738281 32.246094 38.695312 C 32.472656 38.589844 33.550781 37.917969 34.035156 37.582031 C 35.660156 36.449219 36.90625 35 37.621094 33.417969 C 38.027344 32.527344 38.445312 31.289062 38.445312 30.976562 C 38.445312 30.894531 38.472656 30.777344 38.5 30.714844 C 38.535156 30.660156 38.601562 30.285156 38.644531 29.878906 C 38.773438 28.800781 38.695312 26.3125 38.503906 25.332031 C 38.476562 25.167969 38.429688 24.804688 38.398438 24.535156 C 38.359375 24.179688 38.320312 24.015625 38.253906 23.964844 C 38.183594 23.917969 35.167969 23.898438 24.917969 23.898438 C 13.589844 23.894531 11.667969 23.90625 11.609375 23.976562 Z M 26.253906 24.582031 C 26.328125 24.628906 26.390625 24.746094 26.40625 24.871094 C 26.457031 25.144531 26.457031 27.128906 26.410156 27.398438 C 26.378906 27.605469 26.367188 27.609375 26.132812 27.609375 C 25.972656 27.609375 25.773438 27.550781 25.5 27.410156 C 24.851562 27.082031 24.707031 27.101562 24.105469 27.535156 C 23.960938 27.640625 23.8125 27.722656 23.773438 27.722656 C 23.726562 27.722656 23.605469 27.773438 23.496094 27.828125 C 23.390625 27.890625 23.238281 27.945312 23.160156 27.957031 L 23.027344 27.972656 L 23.015625 26.332031 C 23.003906 25.367188 23.023438 24.660156 23.054688 24.609375 C 23.121094 24.503906 23.90625 24.460938 25.222656 24.496094 C 25.859375 24.503906 26.171875 24.535156 26.253906 24.582031 Z M 17.390625 24.609375 L 17.554688 24.726562 L 17.554688 31.167969 C 17.554688 36.945312 17.542969 37.609375 17.464844 37.6875 C 17.421875 37.738281 17.371094 37.777344 17.359375 37.777344 C 17.289062 37.777344 16.34375 37.261719 16.25 37.167969 C 15.984375 36.910156 15.855469 36.800781 15.773438 36.75 C 15.714844 36.714844 15.570312 36.632812 15.449219 36.5625 C 15.320312 36.484375 15.222656 36.394531 15.222656 36.355469 C 15.222656 36.316406 15.171875 36.273438 15.109375 36.25 C 14.933594 36.195312 14.234375 35.449219 13.800781 34.859375 C 13.578125 34.554688 13.355469 34.261719 13.3125 34.210938 C 13.261719 34.15625 13.082031 33.84375 12.910156 33.515625 C 12.738281 33.183594 12.578125 32.890625 12.554688 32.859375 C 12.535156 32.828125 12.484375 32.695312 12.445312 32.554688 C 12.40625 32.417969 12.320312 32.179688 12.25 32.027344 C 12.183594 31.871094 12.082031 31.523438 12.035156 31.25 C 11.976562 30.972656 11.917969 30.671875 11.890625 30.582031 C 11.734375 30.082031 11.667969 27.105469 11.789062 26.304688 C 11.816406 26.121094 11.871094 25.746094 11.910156 25.472656 C 11.949219 25.195312 12.027344 24.878906 12.078125 24.765625 C 12.183594 24.515625 11.976562 24.535156 15.015625 24.511719 C 17.1875 24.496094 17.226562 24.5 17.390625 24.609375 Z M 37.660156 24.65625 C 37.871094 24.8125 38.039062 25.382812 38.101562 26.195312 C 38.148438 26.8125 38.144531 29.765625 38.09375 30.109375 C 38.070312 30.25 38.027344 30.460938 37.996094 30.582031 C 37.960938 30.707031 37.890625 31.003906 37.832031 31.25 C 37.648438 32.015625 37.472656 32.5 37.078125 33.304688 C 36.589844 34.292969 36.238281 34.851562 35.859375 35.246094 C 35.738281 35.371094 35.476562 35.648438 35.277344 35.859375 C 35.078125 36.078125 34.828125 36.316406 34.722656 36.398438 C 33.761719 37.144531 33.714844 37.179688 32.917969 37.695312 C 32.445312 38 32.144531 38.15625 32.066406 38.128906 C 32.027344 38.109375 31.964844 38.035156 31.933594 37.949219 C 31.898438 37.855469 31.878906 35.628906 31.882812 31.285156 C 31.890625 25.355469 31.894531 24.75 31.976562 24.660156 C 32.027344 24.605469 32.121094 24.550781 32.1875 24.535156 C 32.25 24.523438 33.484375 24.523438 34.917969 24.539062 C 37.238281 24.5625 37.542969 24.578125 37.660156 24.65625 Z M 24.949219 27.722656 C 25.023438 27.765625 25.054688 27.839844 25.054688 27.972656 C 25.054688 28.195312 25.109375 28.210938 25.328125 28.050781 C 25.550781 27.890625 25.632812 27.957031 25.589844 28.261719 C 25.550781 28.570312 25.660156 28.632812 25.882812 28.421875 C 26.070312 28.246094 26.265625 28.234375 26.328125 28.398438 C 26.398438 28.605469 26.292969 28.789062 25.957031 29.042969 C 25.785156 29.171875 25.503906 29.40625 25.339844 29.554688 L 25.039062 29.832031 L 25.066406 30.417969 C 25.101562 31.039062 25.0625 31.167969 24.839844 31.167969 C 24.632812 31.167969 24.605469 31.042969 24.644531 30.367188 C 24.6875 29.605469 24.667969 29.542969 24.183594 29.273438 C 23.535156 28.898438 23.238281 28.503906 23.457031 28.289062 C 23.566406 28.179688 23.660156 28.210938 24.066406 28.527344 C 24.277344 28.695312 24.476562 28.832031 24.503906 28.832031 C 24.609375 28.832031 24.617188 28.667969 24.535156 28.367188 C 24.421875 27.988281 24.421875 27.867188 24.535156 27.753906 C 24.632812 27.65625 24.792969 27.644531 24.949219 27.722656 Z M 26.722656 28.566406 C 26.722656 28.65625 26.707031 28.671875 26.660156 28.628906 C 26.628906 28.59375 26.617188 28.539062 26.632812 28.503906 C 26.695312 28.410156 26.722656 28.433594 26.722656 28.566406 Z M 22.972656 29.011719 C 23.050781 29.042969 23.109375 29.09375 23.109375 29.117188 C 23.109375 29.144531 23.332031 29.339844 23.601562 29.550781 C 23.867188 29.761719 24.117188 29.996094 24.148438 30.066406 C 24.183594 30.132812 24.226562 30.460938 24.25 30.792969 C 24.277344 31.300781 24.265625 31.394531 24.195312 31.421875 C 24.105469 31.460938 23.777344 31.351562 23.777344 31.285156 C 23.777344 31.261719 23.523438 31.070312 23.210938 30.855469 C 22.894531 30.644531 22.601562 30.421875 22.550781 30.359375 C 22.433594 30.222656 22.320312 29.472656 22.394531 29.3125 C 22.4375 29.222656 22.753906 28.945312 22.816406 28.945312 C 22.820312 28.945312 22.894531 28.972656 22.972656 29.011719 Z M 27.167969 29.195312 C 27.277344 29.292969 27.355469 30.023438 27.273438 30.183594 C 27.238281 30.234375 27.042969 30.394531 26.832031 30.535156 C 26.617188 30.671875 26.285156 30.933594 26.082031 31.117188 C 25.699219 31.460938 25.609375 31.5 25.496094 31.355469 C 25.417969 31.253906 25.417969 30.320312 25.5 30.167969 C 25.527344 30.117188 25.8125 29.832031 26.132812 29.539062 C 26.695312 29.027344 26.722656 29.003906 26.894531 29.054688 C 26.988281 29.082031 27.117188 29.144531 27.167969 29.195312 Z M 21.945312 29.550781 C 21.972656 29.609375 21.984375 29.800781 21.964844 29.984375 C 21.921875 30.398438 21.996094 30.570312 22.289062 30.761719 C 22.421875 30.84375 22.640625 31 22.777344 31.105469 C 22.917969 31.210938 23.183594 31.367188 23.378906 31.460938 C 23.777344 31.648438 23.882812 31.777344 23.738281 31.917969 C 23.660156 31.996094 23.570312 32.003906 23.226562 31.976562 C 22.996094 31.960938 22.496094 31.972656 22.109375 32.003906 C 20.957031 32.101562 20.972656 32.101562 20.957031 31.960938 C 20.933594 31.820312 21.078125 31.714844 21.417969 31.609375 C 22.050781 31.417969 22.109375 31.382812 22.109375 31.25 C 22.109375 31.070312 21.945312 31.027344 21.550781 31.109375 C 21.144531 31.199219 20.644531 31.144531 20.496094 30.996094 C 20.359375 30.859375 20.359375 30.804688 20.515625 30.667969 C 20.617188 30.566406 20.683594 30.554688 20.890625 30.578125 C 21.027344 30.59375 21.214844 30.609375 21.304688 30.621094 L 21.472656 30.640625 L 21.449219 30.132812 C 21.433594 29.65625 21.4375 29.621094 21.5625 29.535156 C 21.734375 29.417969 21.871094 29.421875 21.945312 29.550781 Z M 28.277344 29.609375 C 28.410156 29.746094 28.417969 29.8125 28.300781 30.199219 C 28.179688 30.628906 28.210938 30.6875 28.554688 30.644531 C 28.90625 30.601562 29.183594 30.714844 29.15625 30.90625 C 29.128906 31.109375 28.929688 31.15625 28.265625 31.09375 C 27.648438 31.039062 27.5 31.066406 27.5 31.253906 C 27.5 31.355469 27.648438 31.421875 28.09375 31.523438 C 28.542969 31.621094 28.855469 31.777344 28.882812 31.910156 C 28.921875 32.128906 28.609375 32.207031 28.394531 32.035156 C 28.34375 31.996094 27.890625 31.960938 27.1875 31.945312 C 26.570312 31.929688 26.050781 31.898438 26.027344 31.878906 C 25.921875 31.773438 26.132812 31.570312 26.859375 31.089844 C 27.300781 30.792969 27.6875 30.503906 27.722656 30.449219 C 27.75 30.390625 27.777344 30.1875 27.777344 30.003906 C 27.777344 29.828125 27.792969 29.640625 27.8125 29.589844 C 27.859375 29.460938 28.144531 29.476562 28.277344 29.609375 Z M 25.304688 31.894531 C 25.550781 32.109375 25.554688 32.273438 25.332031 32.554688 C 25.039062 32.929688 24.640625 32.90625 24.359375 32.5 L 24.210938 32.285156 L 24.332031 32.082031 C 24.589844 31.671875 24.964844 31.59375 25.304688 31.894531 Z M 28.09375 32.578125 C 28.484375 32.726562 28.617188 32.859375 28.527344 33 C 28.511719 33.027344 28.355469 33.054688 28.1875 33.054688 C 27.960938 33.054688 27.785156 33.101562 27.515625 33.222656 C 27.082031 33.421875 27.050781 33.421875 26.851562 33.253906 C 26.765625 33.183594 26.5625 33.054688 26.398438 32.972656 C 26.070312 32.800781 25.964844 32.667969 26.050781 32.511719 C 26.09375 32.421875 26.1875 32.410156 26.898438 32.417969 C 27.628906 32.421875 27.726562 32.4375 28.09375 32.578125 Z M 23.765625 32.671875 C 23.785156 32.800781 23.746094 32.839844 23.511719 32.960938 C 23.355469 33.042969 23.078125 33.207031 22.882812 33.332031 C 22.488281 33.589844 22.433594 33.59375 22.222656 33.445312 C 22.140625 33.382812 21.882812 33.273438 21.660156 33.1875 C 21.433594 33.109375 21.226562 33.023438 21.195312 32.988281 C 21.117188 32.917969 21.292969 32.792969 21.582031 32.714844 C 21.917969 32.621094 22.976562 32.511719 23.390625 32.515625 C 23.734375 32.527344 23.75 32.535156 23.765625 32.671875 Z M 29.035156 33.082031 C 29.054688 33.128906 29 33.253906 28.921875 33.355469 C 28.746094 33.59375 28.738281 33.683594 28.917969 33.910156 C 29.207031 34.289062 29.027344 34.554688 28.644531 34.328125 C 28.535156 34.265625 28.40625 34.226562 28.359375 34.246094 C 28.25 34.285156 28.25 34.609375 28.359375 34.753906 C 28.496094 34.933594 28.464844 35.160156 28.300781 35.226562 C 28.089844 35.304688 27.90625 35.171875 27.859375 34.90625 C 27.773438 34.351562 27.710938 34.140625 27.601562 33.988281 C 27.445312 33.765625 27.503906 33.671875 27.921875 33.503906 C 28.101562 33.4375 28.339844 33.3125 28.445312 33.226562 C 28.761719 32.988281 28.976562 32.933594 29.035156 33.082031 Z M 24.261719 33.117188 C 24.351562 33.207031 24.289062 34.378906 24.1875 34.539062 C 24.144531 34.609375 24.003906 34.714844 23.871094 34.785156 C 23.746094 34.851562 23.503906 34.996094 23.339844 35.101562 L 23.042969 35.292969 L 22.746094 35.195312 C 22.578125 35.140625 22.417969 35.0625 22.390625 35.027344 C 22.332031 34.960938 22.449219 34.367188 22.5625 34.15625 C 22.589844 34.105469 22.855469 33.898438 23.15625 33.699219 C 23.449219 33.503906 23.773438 33.277344 23.859375 33.199219 C 24.042969 33.042969 24.167969 33.023438 24.261719 33.117188 Z M 26.050781 33.265625 C 26.1875 33.382812 26.472656 33.582031 26.671875 33.710938 C 26.976562 33.90625 27.066406 34 27.15625 34.210938 C 27.289062 34.523438 27.355469 34.996094 27.285156 35.105469 C 27.253906 35.144531 27.105469 35.222656 26.949219 35.277344 L 26.660156 35.371094 L 26.4375 35.1875 C 26.316406 35.082031 26.050781 34.898438 25.855469 34.773438 C 25.457031 34.511719 25.460938 34.527344 25.421875 33.789062 C 25.398438 33.316406 25.40625 33.265625 25.515625 33.167969 C 25.679688 33.011719 25.753906 33.027344 26.050781 33.265625 Z M 21.367188 33.476562 C 21.515625 33.5625 21.738281 33.65625 21.859375 33.6875 C 22.070312 33.75 22.082031 33.765625 22.078125 33.976562 C 22.070312 34.367188 21.957031 35.054688 21.882812 35.144531 C 21.839844 35.199219 21.746094 35.222656 21.617188 35.210938 C 21.445312 35.195312 21.417969 35.171875 21.398438 35.039062 C 21.390625 34.949219 21.421875 34.761719 21.476562 34.609375 C 21.527344 34.464844 21.554688 34.304688 21.539062 34.253906 C 21.496094 34.144531 21.300781 34.144531 21.109375 34.25 C 20.929688 34.355469 20.746094 34.355469 20.699219 34.25 C 20.660156 34.144531 20.800781 33.523438 20.890625 33.410156 C 20.984375 33.300781 21.054688 33.3125 21.367188 33.476562 Z M 24.988281 33.523438 C 25.082031 33.644531 25.089844 33.726562 25.066406 34.246094 C 25.050781 34.632812 25.0625 34.882812 25.105469 34.984375 C 25.148438 35.078125 25.339844 35.25 25.601562 35.417969 C 26.183594 35.800781 26.371094 35.972656 26.445312 36.199219 C 26.621094 36.734375 26.261719 36.667969 25.5 36.035156 C 25.171875 35.753906 24.984375 35.722656 24.957031 35.921875 C 24.945312 36.003906 25.003906 36.09375 25.148438 36.214844 C 25.265625 36.3125 25.390625 36.390625 25.421875 36.390625 C 25.457031 36.390625 25.550781 36.4375 25.632812 36.503906 C 25.804688 36.644531 25.820312 36.859375 25.667969 36.945312 C 25.542969 37.011719 25.484375 36.988281 25.292969 36.816406 C 25.132812 36.671875 25.078125 36.722656 25.035156 37.039062 C 24.984375 37.394531 24.933594 37.464844 24.761719 37.421875 C 24.605469 37.382812 24.527344 37.226562 24.542969 36.984375 C 24.5625 36.792969 24.421875 36.726562 24.285156 36.855469 C 24.132812 36.996094 23.960938 36.964844 23.921875 36.800781 C 23.859375 36.570312 23.933594 36.457031 24.195312 36.355469 C 24.5 36.238281 24.617188 36.109375 24.628906 35.882812 C 24.644531 35.566406 24.484375 35.609375 24.027344 36.050781 C 23.707031 36.359375 23.589844 36.445312 23.457031 36.445312 C 23.253906 36.445312 23.207031 36.34375 23.265625 36.0625 C 23.3125 35.851562 23.570312 35.640625 24.214844 35.277344 C 24.65625 35.039062 24.695312 34.9375 24.644531 34.140625 C 24.621094 33.679688 24.628906 33.570312 24.707031 33.488281 C 24.820312 33.355469 24.859375 33.359375 24.988281 33.523438 Z M 23.445312 37.09375 C 23.542969 37.148438 23.679688 37.246094 23.746094 37.3125 C 23.917969 37.472656 24.542969 37.832031 24.722656 37.867188 C 24.878906 37.898438 25.429688 37.65625 25.851562 37.367188 C 26.109375 37.1875 26.25 37.183594 26.355469 37.351562 C 26.429688 37.449219 26.445312 37.726562 26.445312 38.859375 C 26.449219 40.472656 26.40625 40.753906 26.140625 40.882812 C 26.050781 40.929688 25.945312 40.996094 25.90625 41.035156 C 25.867188 41.070312 25.738281 41.132812 25.628906 41.167969 C 25.511719 41.207031 25.339844 41.285156 25.246094 41.339844 C 25.148438 41.398438 25.015625 41.445312 24.945312 41.445312 C 24.785156 41.445312 23.40625 40.773438 23.210938 40.59375 L 23.054688 40.460938 L 23.054688 38.816406 C 23.054688 37.917969 23.070312 37.140625 23.089844 37.089844 C 23.132812 36.972656 23.226562 36.976562 23.445312 37.09375 Z M 23.445312 37.09375 "/>
<path style=" stroke:none;fill-rule:nonzero;fill:rgb(0%,0%,0%);fill-opacity:1;" d="M 13.578125 9.339844 C 13.4375 9.496094 12.34375 10.328125 12.1875 10.394531 C 12.160156 10.40625 12.015625 10.496094 11.871094 10.582031 C 11.605469 10.75 11.496094 10.945312 11.59375 11.070312 C 11.628906 11.105469 11.753906 11.476562 11.882812 11.890625 C 12.015625 12.300781 12.144531 12.660156 12.171875 12.6875 C 12.253906 12.777344 12.234375 12.90625 12.082031 13.210938 C 11.933594 13.515625 11.910156 13.667969 12 13.667969 C 12.089844 13.667969 12.316406 13.398438 12.457031 13.140625 C 12.589844 12.882812 12.578125 12.800781 12.214844 11.710938 C 12.09375 11.351562 12 11.035156 12 11.003906 C 12 10.976562 12.117188 10.878906 12.265625 10.785156 C 12.6875 10.503906 13.105469 10.195312 13.300781 10.003906 C 13.464844 9.84375 13.609375 9.785156 13.609375 9.871094 C 13.628906 10.761719 13.671875 11.417969 13.726562 11.476562 C 13.765625 11.523438 13.894531 11.554688 14.050781 11.554688 C 14.1875 11.554688 14.460938 11.582031 14.648438 11.609375 C 15.179688 11.699219 16.066406 11.707031 16.09375 11.628906 C 16.132812 11.511719 15.878906 11.433594 15.3125 11.378906 C 14.523438 11.3125 14.210938 11.261719 14.082031 11.183594 C 13.976562 11.121094 13.972656 11.054688 13.964844 10.234375 C 13.960938 9.746094 13.945312 9.316406 13.921875 9.285156 C 13.859375 9.183594 13.695312 9.210938 13.578125 9.339844 Z M 13.578125 9.339844 "/>
<path style=" stroke:none;fill-rule:nonzero;fill:rgb(0%,0%,0%);fill-opacity:1;" d="M 35.9375 9.316406 C 35.878906 9.382812 35.859375 9.632812 35.859375 10.371094 C 35.859375 10.972656 35.839844 11.339844 35.804688 11.339844 C 35.777344 11.34375 35.351562 11.34375 34.855469 11.332031 C 33.972656 11.320312 33.960938 11.320312 33.816406 11.460938 C 33.667969 11.601562 33.617188 11.800781 33.722656 11.859375 C 33.753906 11.882812 33.859375 11.84375 33.960938 11.785156 C 34.128906 11.683594 34.210938 11.671875 34.984375 11.695312 C 35.445312 11.710938 35.84375 11.722656 35.871094 11.726562 C 36.042969 11.753906 36.109375 11.707031 36.167969 11.496094 C 36.199219 11.367188 36.214844 11.171875 36.199219 11.0625 C 36.148438 10.738281 36.238281 9.707031 36.316406 9.683594 C 36.355469 9.667969 36.503906 9.773438 36.648438 9.90625 C 37.082031 10.304688 37.738281 10.839844 37.898438 10.921875 C 38.089844 11.023438 38.148438 11.222656 38.039062 11.398438 C 37.921875 11.578125 37.464844 12.710938 37.421875 12.929688 C 37.390625 13.078125 37.417969 13.144531 37.632812 13.429688 C 38.070312 14.003906 38.207031 14.039062 38.003906 13.515625 C 37.933594 13.339844 37.867188 13.140625 37.851562 13.066406 C 37.8125 12.917969 38.023438 12.328125 38.421875 11.460938 C 38.621094 11.023438 38.609375 10.996094 38.101562 10.632812 C 37.84375 10.457031 37.523438 10.199219 37.378906 10.0625 C 37.234375 9.929688 36.996094 9.738281 36.851562 9.640625 C 36.699219 9.539062 36.535156 9.40625 36.476562 9.339844 C 36.351562 9.195312 36.042969 9.183594 35.9375 9.316406 Z M 35.9375 9.316406 "/>
<path style=" stroke:none;fill-rule:nonzero;fill:rgb(0%,0%,0%);fill-opacity:1;" d="M 40.390625 12.304688 C 40.359375 12.382812 40.332031 12.753906 40.332031 13.128906 C 40.332031 13.511719 40.292969 13.972656 40.25 14.195312 C 40.207031 14.40625 40.167969 14.632812 40.167969 14.695312 C 40.167969 14.765625 39.9375 15.042969 39.582031 15.40625 C 39.082031 15.917969 38.898438 16.167969 39.027344 16.167969 C 39.132812 16.167969 39.476562 15.933594 39.867188 15.605469 C 40.207031 15.320312 40.351562 15.15625 40.433594 14.957031 C 40.566406 14.648438 40.671875 13.949219 40.695312 13.25 C 40.707031 12.972656 40.710938 12.714844 40.714844 12.679688 C 40.722656 12.578125 40.855469 12.59375 41.179688 12.746094 C 41.339844 12.820312 41.539062 12.898438 41.628906 12.917969 C 41.804688 12.949219 41.820312 13.078125 41.683594 13.320312 C 41.601562 13.464844 41.601562 13.5 41.667969 13.578125 C 41.777344 13.714844 42.011719 13.667969 42.09375 13.496094 C 42.234375 13.207031 42.316406 13.171875 43.042969 13.144531 C 43.828125 13.109375 43.855469 13.132812 43.550781 13.554688 C 43.449219 13.6875 43.300781 13.957031 43.210938 14.148438 C 42.984375 14.628906 42.851562 14.722656 42.410156 14.722656 C 42.0625 14.722656 41.890625 14.804688 41.890625 14.964844 C 41.890625 15.140625 42.027344 15.171875 42.445312 15.105469 C 42.996094 15.023438 43.0625 15.0625 43.222656 15.550781 C 43.289062 15.765625 43.332031 15.976562 43.316406 16.023438 C 43.285156 16.105469 42.996094 16.105469 41.289062 16.035156 C 40.785156 16.011719 40.773438 16.011719 40.710938 16.144531 C 40.671875 16.222656 40.355469 16.535156 40.003906 16.84375 C 39.648438 17.148438 39.273438 17.484375 39.167969 17.578125 C 38.871094 17.832031 38.6875 18.101562 38.753906 18.167969 C 38.855469 18.265625 39.089844 18.140625 39.496094 17.765625 C 39.699219 17.570312 40.027344 17.289062 40.214844 17.140625 C 40.40625 16.984375 40.671875 16.75 40.8125 16.621094 C 41.054688 16.378906 41.054688 16.378906 41.378906 16.410156 C 41.550781 16.429688 42.109375 16.449219 42.621094 16.457031 L 43.554688 16.472656 L 43.855469 16.171875 L 43.734375 15.851562 C 43.660156 15.671875 43.542969 15.410156 43.472656 15.261719 C 43.394531 15.117188 43.332031 14.949219 43.332031 14.894531 C 43.332031 14.75 44.023438 13.382812 44.199219 13.171875 C 44.277344 13.078125 44.34375 12.933594 44.351562 12.851562 C 44.359375 12.710938 44.34375 12.695312 44.195312 12.710938 C 44.105469 12.722656 43.570312 12.738281 43.011719 12.753906 C 42.09375 12.785156 41.984375 12.777344 41.84375 12.6875 C 41.628906 12.542969 40.839844 12.214844 40.628906 12.183594 C 40.472656 12.160156 40.4375 12.171875 40.390625 12.304688 Z M 40.390625 12.304688 "/>
<path style=" stroke:none;fill-rule:nonzero;fill:rgb(0%,0%,0%);fill-opacity:1;" d="M 9 12.359375 C 8.859375 12.4375 8.660156 12.515625 8.554688 12.535156 C 8.332031 12.578125 7.976562 12.789062 7.898438 12.921875 C 7.855469 13 7.746094 13.011719 7.167969 13.003906 C 6.789062 13 6.4375 12.972656 6.378906 12.9375 C 6.234375 12.859375 5.996094 12.894531 5.929688 13.003906 C 5.871094 13.101562 5.910156 13.199219 6.171875 13.589844 C 6.253906 13.710938 6.398438 13.957031 6.496094 14.140625 C 6.738281 14.589844 6.800781 14.648438 7.089844 14.683594 C 7.378906 14.710938 7.460938 14.773438 7.410156 14.90625 C 7.390625 14.972656 7.3125 15 7.167969 15 C 6.777344 15 6.679688 15.078125 6.464844 15.523438 C 6.128906 16.253906 6.238281 16.472656 6.890625 16.394531 C 7.089844 16.367188 7.355469 16.316406 7.476562 16.285156 C 7.660156 16.234375 7.746094 16.238281 7.90625 16.304688 C 8.015625 16.351562 8.222656 16.390625 8.359375 16.390625 C 8.746094 16.390625 8.726562 16.378906 9.890625 17.449219 C 10.511719 18.023438 10.933594 18.359375 10.976562 18.316406 C 11.105469 18.195312 9.988281 16.949219 9.222656 16.359375 C 8.878906 16.09375 8.839844 16.082031 8.417969 16.042969 C 8.171875 16.027344 7.714844 16.003906 7.398438 16.003906 C 6.734375 16 6.699219 15.972656 6.894531 15.582031 C 7.039062 15.292969 7.234375 15.167969 7.515625 15.167969 C 7.734375 15.167969 7.832031 15.082031 7.832031 14.898438 C 7.832031 14.660156 7.734375 14.554688 7.511719 14.554688 C 7.253906 14.550781 7.054688 14.394531 6.890625 14.054688 C 6.816406 13.917969 6.699219 13.726562 6.628906 13.632812 C 6.445312 13.382812 6.539062 13.320312 7.089844 13.34375 C 7.503906 13.359375 7.527344 13.367188 7.601562 13.515625 C 7.6875 13.699219 7.785156 13.746094 7.964844 13.699219 C 8.082031 13.671875 8.105469 13.628906 8.121094 13.398438 L 8.140625 13.140625 L 8.554688 12.933594 C 9.027344 12.707031 9.222656 12.648438 9.25 12.746094 C 9.261719 12.777344 9.285156 13.34375 9.292969 14 C 9.3125 14.859375 9.339844 15.195312 9.382812 15.210938 C 9.421875 15.222656 9.640625 15.390625 9.871094 15.578125 C 10.40625 16.015625 10.722656 16.238281 10.753906 16.207031 C 10.828125 16.140625 10.640625 15.882812 10.179688 15.421875 L 9.667969 14.917969 L 9.640625 13.734375 C 9.617188 12.59375 9.582031 12.371094 9.421875 12.265625 C 9.332031 12.207031 9.273438 12.214844 9 12.359375 Z M 9 12.359375 "/>
<path style=" stroke:none;fill-rule:nonzero;fill:rgb(0%,0%,0%);fill-opacity:1;" d="M 35.820312 12.761719 C 35.765625 12.773438 35.722656 12.8125 35.722656 12.832031 C 35.722656 12.898438 36.015625 13.054688 36.140625 13.054688 C 36.261719 13.054688 36.246094 12.851562 36.117188 12.777344 C 36.003906 12.722656 35.976562 12.714844 35.820312 12.761719 Z M 35.820312 12.761719 "/>
<path style=" stroke:none;fill-rule:nonzero;fill:rgb(0%,0%,0%);fill-opacity:1;" d="M 40.617188 18.148438 C 40.589844 18.207031 40.503906 18.5 40.429688 18.804688 C 40.140625 19.929688 39.949219 20.515625 39.820312 20.65625 C 39.75 20.734375 39.550781 20.933594 39.378906 21.105469 C 39.199219 21.285156 39.054688 21.449219 39.054688 21.488281 C 39.054688 21.644531 39.332031 21.527344 39.789062 21.195312 C 40.183594 20.898438 40.285156 20.792969 40.351562 20.601562 C 40.515625 20.144531 40.738281 19.304688 40.789062 18.945312 C 40.878906 18.367188 40.917969 18.359375 41.4375 18.839844 C 41.6875 19.066406 41.890625 19.273438 41.890625 19.300781 C 41.890625 19.320312 41.828125 19.417969 41.75 19.511719 C 41.59375 19.695312 41.578125 19.777344 41.679688 19.878906 C 41.789062 19.988281 41.929688 19.957031 42.066406 19.785156 C 42.144531 19.695312 42.320312 19.535156 42.464844 19.421875 L 42.726562 19.222656 L 43.515625 19.246094 C 43.949219 19.253906 44.316406 19.265625 44.328125 19.273438 C 44.378906 19.289062 44.171875 19.476562 43.878906 19.679688 C 43.695312 19.792969 43.429688 20.003906 43.273438 20.144531 C 43.003906 20.378906 42.984375 20.390625 42.640625 20.390625 C 42.285156 20.390625 42.109375 20.464844 42.109375 20.640625 C 42.109375 20.8125 42.277344 20.890625 42.667969 20.890625 C 43.023438 20.890625 43.054688 20.898438 43.160156 21.050781 C 43.226562 21.140625 43.277344 21.226562 43.277344 21.25 C 43.277344 21.273438 43.328125 21.359375 43.394531 21.449219 C 43.628906 21.777344 43.582031 21.789062 42.171875 21.75 L 40.898438 21.710938 L 40.527344 22.003906 C 39.667969 22.695312 39.390625 22.972656 39.390625 23.148438 C 39.390625 23.3125 39.609375 23.199219 40.082031 22.804688 C 40.359375 22.570312 40.695312 22.316406 40.828125 22.238281 L 41.066406 22.09375 L 42.429688 22.128906 C 43.304688 22.148438 43.828125 22.144531 43.894531 22.105469 C 44.027344 22.039062 44.027344 21.828125 43.894531 21.660156 C 43.839844 21.589844 43.714844 21.378906 43.621094 21.1875 C 43.527344 21.003906 43.417969 20.820312 43.367188 20.785156 C 43.226562 20.667969 43.261719 20.578125 43.515625 20.382812 C 43.644531 20.285156 43.859375 20.101562 44 19.972656 C 44.140625 19.851562 44.394531 19.660156 44.570312 19.554688 C 44.929688 19.34375 45.015625 19.171875 44.867188 19.003906 C 44.777344 18.910156 44.667969 18.898438 43.6875 18.894531 C 42.820312 18.890625 42.570312 18.90625 42.445312 18.972656 C 42.171875 19.109375 42.082031 19.078125 41.695312 18.65625 C 41.488281 18.433594 41.25 18.210938 41.160156 18.15625 C 40.949219 18.027344 40.6875 18.027344 40.617188 18.148438 Z M 40.617188 18.148438 "/>
<path style=" stroke:none;fill-rule:nonzero;fill:rgb(0%,0%,0%);fill-opacity:1;" d="M 8.445312 18.503906 C 8.277344 18.65625 8.039062 18.882812 7.910156 19 C 7.660156 19.25 7.582031 19.265625 7.429688 19.128906 C 7.300781 19.003906 6.429688 18.898438 5.851562 18.933594 C 5.515625 18.949219 5.445312 18.976562 5.417969 19.0625 C 5.367188 19.214844 5.460938 19.339844 5.871094 19.632812 C 6.078125 19.785156 6.351562 20.027344 6.472656 20.171875 C 6.710938 20.457031 6.882812 20.539062 7.054688 20.445312 C 7.222656 20.355469 7.359375 20.378906 7.488281 20.515625 C 7.609375 20.644531 7.609375 20.648438 7.511719 20.738281 C 7.449219 20.792969 7.316406 20.832031 7.171875 20.832031 C 6.820312 20.832031 6.601562 20.949219 6.472656 21.199219 C 6.410156 21.316406 6.265625 21.503906 6.15625 21.617188 C 5.921875 21.839844 5.894531 21.945312 6.039062 22.082031 C 6.109375 22.160156 6.183594 22.171875 6.410156 22.132812 C 6.785156 22.078125 8.933594 22.109375 9.109375 22.179688 C 9.183594 22.207031 9.484375 22.449219 9.777344 22.714844 C 10.503906 23.390625 10.683594 23.472656 10.464844 23.039062 C 10.339844 22.789062 9.511719 21.957031 9.277344 21.851562 C 9.132812 21.785156 8.890625 21.753906 8.332031 21.75 C 7.800781 21.746094 7.527344 21.714844 7.390625 21.65625 C 7.277344 21.609375 7.109375 21.582031 7.011719 21.601562 C 6.589844 21.660156 6.9375 21.179688 7.40625 21.050781 C 7.535156 21.015625 7.695312 20.964844 7.765625 20.9375 C 7.898438 20.890625 8.015625 20.660156 7.964844 20.535156 C 7.933594 20.445312 7.707031 20.332031 7.5625 20.332031 C 7.289062 20.332031 6.957031 20.144531 6.601562 19.789062 C 6.394531 19.582031 6.222656 19.382812 6.222656 19.339844 C 6.222656 19.277344 6.320312 19.265625 6.777344 19.300781 C 7.285156 19.332031 7.359375 19.355469 7.582031 19.511719 C 7.738281 19.621094 7.839844 19.738281 7.859375 19.84375 C 7.921875 20.121094 8.238281 20.171875 8.300781 19.910156 C 8.339844 19.761719 8.292969 19.511719 8.207031 19.398438 C 8.128906 19.304688 8.59375 18.820312 8.738281 18.84375 C 8.890625 18.867188 9.277344 19.910156 9.277344 20.289062 C 9.277344 20.355469 9.472656 20.605469 9.765625 20.898438 C 10.253906 21.40625 10.589844 21.667969 10.75 21.667969 C 10.878906 21.667969 10.695312 21.410156 10.140625 20.832031 C 9.75 20.429688 9.679688 20.316406 9.644531 20.109375 C 9.601562 19.804688 9.234375 18.582031 9.128906 18.371094 C 9.011719 18.132812 8.804688 18.171875 8.445312 18.503906 Z M 8.445312 18.503906 "/>
<path style=" stroke:none;fill-rule:nonzero;fill:rgb(0%,0%,0%);fill-opacity:1;" d="M 44.140625 23.449219 C 44.015625 23.578125 43.753906 23.8125 43.554688 23.972656 C 43.355469 24.132812 43.042969 24.390625 42.855469 24.542969 L 42.515625 24.816406 L 41.1875 24.855469 C 40.460938 24.878906 39.816406 24.90625 39.765625 24.921875 C 39.632812 24.960938 39.640625 25.09375 39.773438 25.160156 C 39.832031 25.199219 40.398438 25.207031 41.3125 25.1875 C 42.996094 25.15625 42.789062 25.226562 43.722656 24.339844 C 44.042969 24.035156 44.320312 23.777344 44.34375 23.777344 C 44.367188 23.777344 44.488281 23.917969 44.621094 24.09375 C 44.753906 24.265625 44.945312 24.496094 45.042969 24.605469 C 45.140625 24.710938 45.222656 24.820312 45.222656 24.84375 C 45.222656 24.910156 45.105469 24.996094 44.777344 25.15625 C 44.535156 25.273438 44.464844 25.339844 44.457031 25.457031 C 44.429688 25.707031 44.609375 25.707031 45.078125 25.449219 C 45.300781 25.320312 45.542969 25.222656 45.609375 25.222656 C 45.679688 25.222656 45.828125 25.292969 45.9375 25.382812 C 46.050781 25.472656 46.253906 25.589844 46.394531 25.644531 C 46.8125 25.8125 46.804688 25.910156 46.371094 26.109375 C 46.214844 26.183594 45.964844 26.328125 45.816406 26.429688 C 45.554688 26.609375 45.367188 26.660156 45.304688 26.554688 C 45.246094 26.449219 44.589844 26.054688 44.488281 26.054688 C 44.433594 26.054688 44.371094 26.09375 44.355469 26.140625 C 44.292969 26.289062 44.5 26.503906 44.867188 26.679688 C 45.289062 26.878906 45.316406 26.976562 45.027344 27.261719 C 44.917969 27.367188 44.765625 27.554688 44.6875 27.671875 C 44.476562 28.011719 44.417969 28.003906 44.035156 27.601562 C 43.851562 27.398438 43.488281 27.054688 43.238281 26.832031 L 42.785156 26.433594 L 41.792969 26.429688 C 40.828125 26.417969 40.804688 26.417969 40.789062 26.535156 C 40.777344 26.601562 40.832031 26.722656 40.90625 26.8125 C 40.976562 26.898438 41.105469 27.09375 41.1875 27.25 C 41.351562 27.554688 41.378906 27.605469 41.683594 28.066406 C 41.792969 28.238281 41.890625 28.417969 41.890625 28.457031 C 41.890625 28.554688 40.949219 29.417969 40.839844 29.417969 C 40.761719 29.417969 40.75 29.328125 40.765625 28.710938 C 40.777344 28.199219 40.761719 27.988281 40.710938 27.933594 C 40.671875 27.894531 40.503906 27.707031 40.34375 27.511719 C 40.066406 27.195312 39.890625 27.078125 39.890625 27.222656 C 39.890625 27.3125 40.050781 27.605469 40.234375 27.871094 C 40.398438 28.101562 40.398438 28.109375 40.398438 28.828125 C 40.394531 29.484375 40.40625 29.566406 40.523438 29.734375 C 40.589844 29.832031 40.695312 29.921875 40.761719 29.933594 C 40.890625 29.949219 41.195312 29.695312 41.871094 29 C 42.351562 28.511719 42.378906 28.390625 42.09375 28.035156 C 41.996094 27.90625 41.800781 27.640625 41.667969 27.429688 C 41.535156 27.222656 41.398438 27.054688 41.378906 27.054688 C 41.355469 27.054688 41.332031 26.996094 41.332031 26.917969 C 41.332031 26.789062 41.40625 26.746094 41.570312 26.773438 C 41.605469 26.777344 42.449219 26.828125 42.5625 26.832031 C 42.722656 26.839844 44.109375 28.105469 44.109375 28.246094 C 44.109375 28.292969 44.171875 28.371094 44.25 28.421875 C 44.378906 28.503906 44.398438 28.503906 44.527344 28.421875 C 44.601562 28.371094 44.695312 28.277344 44.726562 28.210938 C 44.765625 28.140625 44.871094 27.996094 44.964844 27.882812 C 45.0625 27.773438 45.199219 27.59375 45.277344 27.496094 C 45.679688 26.957031 46.011719 26.671875 46.609375 26.359375 C 47.140625 26.082031 47.226562 26.003906 47.210938 25.84375 C 47.195312 25.695312 47.171875 25.683594 46.222656 25.167969 C 46.082031 25.09375 45.867188 24.945312 45.734375 24.84375 C 45.484375 24.648438 44.84375 23.828125 44.695312 23.515625 C 44.621094 23.367188 44.464844 23.222656 44.378906 23.222656 C 44.367188 23.222656 44.253906 23.320312 44.140625 23.449219 Z M 44.140625 23.449219 "/>
<path style=" stroke:none;fill-rule:nonzero;fill:rgb(0%,0%,0%);fill-opacity:1;" d="M 5.351562 23.390625 C 5.285156 23.417969 5.214844 23.496094 5.195312 23.5625 C 5.171875 23.628906 4.984375 23.859375 4.777344 24.089844 C 4.539062 24.351562 4.371094 24.578125 4.328125 24.734375 C 4.261719 24.945312 4.226562 24.972656 4.027344 25.023438 C 3.90625 25.050781 3.644531 25.179688 3.445312 25.304688 C 3.246094 25.433594 3.011719 25.578125 2.917969 25.617188 C 2.722656 25.710938 2.660156 25.929688 2.816406 25.976562 C 3.066406 26.0625 3.65625 26.378906 3.871094 26.539062 C 4.144531 26.746094 4.304688 26.773438 4.382812 26.621094 C 4.417969 26.5625 4.550781 26.433594 4.6875 26.328125 C 4.828125 26.222656 4.945312 26.121094 4.945312 26.09375 C 4.945312 26.015625 4.726562 26.054688 4.527344 26.171875 C 4.289062 26.316406 4.179688 26.289062 3.816406 26.023438 C 3.527344 25.8125 3.515625 25.746094 3.726562 25.609375 C 3.804688 25.566406 3.957031 25.472656 4.0625 25.40625 C 4.304688 25.246094 4.382812 25.246094 4.640625 25.421875 C 5.066406 25.710938 5.371094 25.445312 4.976562 25.128906 C 4.84375 25.023438 4.777344 24.929688 4.777344 24.832031 C 4.777344 24.667969 5.421875 23.871094 5.535156 23.898438 C 5.570312 23.910156 5.839844 24.144531 6.132812 24.429688 C 6.421875 24.707031 6.765625 25.003906 6.898438 25.09375 L 7.140625 25.25 L 8.484375 25.265625 C 9.84375 25.285156 10.054688 25.261719 10.054688 25.082031 C 10.054688 25.035156 10 25 9.90625 24.996094 C 9.816406 24.988281 9.171875 24.972656 8.464844 24.957031 L 7.183594 24.917969 L 6.855469 24.640625 C 6.679688 24.484375 6.292969 24.128906 6.003906 23.84375 C 5.714844 23.566406 5.476562 23.332031 5.476562 23.339844 C 5.472656 23.339844 5.417969 23.359375 5.351562 23.390625 Z M 4.765625 25.121094 C 4.734375 25.222656 4.609375 25.238281 4.609375 25.144531 C 4.609375 25.09375 4.648438 25.054688 4.699219 25.054688 C 4.75 25.054688 4.777344 25.082031 4.765625 25.121094 Z M 4.765625 25.121094 "/>
<path style=" stroke:none;fill-rule:nonzero;fill:rgb(0%,0%,0%);fill-opacity:1;" d="M 5.316406 26.039062 C 5.292969 26.054688 5.277344 26.140625 5.277344 26.222656 C 5.277344 26.394531 5.121094 26.550781 4.789062 26.714844 C 4.464844 26.878906 4.449219 26.964844 4.679688 27.1875 C 4.785156 27.289062 4.964844 27.523438 5.082031 27.699219 C 5.285156 28.011719 5.476562 28.214844 5.566406 28.222656 C 5.605469 28.222656 5.894531 27.960938 6.949219 26.957031 C 7.214844 26.707031 7.464844 26.5 7.511719 26.496094 C 7.816406 26.472656 8.726562 26.496094 8.777344 26.527344 C 8.917969 26.617188 8.820312 26.84375 8.472656 27.246094 C 7.964844 27.828125 7.722656 28.210938 7.722656 28.429688 C 7.722656 28.589844 7.804688 28.695312 8.359375 29.25 C 9.023438 29.90625 9.179688 29.996094 9.339844 29.800781 C 9.394531 29.734375 9.394531 29.667969 9.34375 29.464844 C 9.246094 29.09375 9.394531 28.160156 9.601562 27.878906 C 9.683594 27.761719 9.804688 27.589844 9.878906 27.496094 C 10.003906 27.3125 10.042969 27 9.9375 27 C 9.878906 27 9.789062 27.09375 9.367188 27.628906 C 9.035156 28.039062 9 28.132812 9 28.699219 C 9 29.050781 8.984375 29.167969 8.929688 29.167969 C 8.8125 29.167969 8.167969 28.496094 8.167969 28.378906 C 8.167969 28.234375 8.292969 27.996094 8.59375 27.59375 C 8.929688 27.132812 9.132812 26.707031 9.09375 26.542969 C 9.039062 26.328125 8.785156 26.226562 8.15625 26.171875 C 7.714844 26.132812 7.542969 26.140625 7.40625 26.195312 C 7.304688 26.238281 6.964844 26.511719 6.648438 26.800781 C 6.015625 27.371094 5.699219 27.609375 5.5625 27.609375 C 5.484375 27.609375 5.054688 27.027344 5.054688 26.921875 C 5.054688 26.898438 5.179688 26.75 5.328125 26.59375 C 5.582031 26.320312 5.632812 26.234375 5.617188 26.066406 C 5.609375 25.996094 5.378906 25.972656 5.316406 26.039062 Z M 5.316406 26.039062 "/>
<path style=" stroke:none;fill-rule:nonzero;fill:rgb(0%,0%,0%);fill-opacity:1;" d="M 9.976562 30.390625 C 9.855469 30.449219 9.707031 30.542969 9.644531 30.601562 C 9.578125 30.660156 9.429688 30.765625 9.304688 30.839844 C 9.183594 30.910156 8.9375 31.105469 8.761719 31.265625 L 8.433594 31.566406 L 7.292969 31.550781 C 6.167969 31.535156 6.148438 31.535156 6.066406 31.65625 C 5.996094 31.765625 6.003906 31.792969 6.183594 32.039062 C 6.289062 32.1875 6.433594 32.417969 6.5 32.554688 C 6.570312 32.695312 6.648438 32.820312 6.683594 32.839844 C 6.710938 32.859375 6.878906 32.867188 7.050781 32.851562 C 7.410156 32.820312 7.5 32.867188 7.515625 33.089844 L 7.527344 33.25 L 7.171875 33.234375 C 6.792969 33.222656 6.609375 33.304688 6.609375 33.496094 C 6.609375 33.542969 6.570312 33.65625 6.527344 33.746094 C 6.484375 33.828125 6.445312 33.929688 6.445312 33.964844 C 6.445312 34 6.351562 34.167969 6.238281 34.332031 C 6.078125 34.566406 6.035156 34.695312 6.035156 34.890625 C 6.027344 35.105469 6.042969 35.140625 6.167969 35.183594 C 6.273438 35.222656 6.371094 35.207031 6.5625 35.121094 C 6.785156 35.023438 6.894531 35.011719 7.59375 35.027344 C 8.140625 35.042969 8.445312 35.078125 8.582031 35.132812 C 8.699219 35.183594 8.84375 35.222656 8.910156 35.222656 C 8.972656 35.222656 9.078125 35.261719 9.132812 35.304688 C 9.285156 35.421875 9.410156 35.410156 9.535156 35.273438 C 9.621094 35.171875 9.632812 35.070312 9.621094 34.371094 C 9.609375 33.9375 9.632812 33.398438 9.660156 33.179688 C 9.710938 32.785156 9.714844 32.765625 10.078125 32.382812 C 10.277344 32.171875 10.445312 31.972656 10.445312 31.945312 C 10.445312 31.800781 10.039062 31.988281 9.640625 32.316406 C 9.4375 32.484375 9.429688 32.511719 9.355469 33.011719 C 9.316406 33.292969 9.285156 33.816406 9.277344 34.171875 C 9.277344 34.917969 9.246094 34.988281 8.933594 34.894531 C 8.328125 34.710938 8.210938 34.648438 8.15625 34.488281 C 8.078125 34.277344 7.898438 34.285156 7.710938 34.511719 C 7.566406 34.695312 7.5625 34.695312 7.132812 34.679688 C 6.894531 34.667969 6.683594 34.648438 6.65625 34.632812 C 6.570312 34.578125 6.609375 34.429688 6.804688 34.109375 C 6.910156 33.933594 7 33.753906 7 33.707031 C 7 33.609375 7.117188 33.554688 7.3125 33.554688 C 7.484375 33.554688 7.890625 33.167969 7.890625 33.003906 C 7.890625 32.855469 7.726562 32.761719 7.25 32.609375 C 6.929688 32.515625 6.839844 32.460938 6.738281 32.300781 C 6.484375 31.90625 6.464844 31.917969 7.59375 31.910156 L 8.601562 31.90625 L 8.890625 31.660156 C 9.632812 31.035156 10.09375 30.605469 10.183594 30.449219 C 10.300781 30.25 10.273438 30.246094 9.976562 30.390625 Z M 9.976562 30.390625 "/>
<path style=" stroke:none;fill-rule:nonzero;fill:rgb(0%,0%,0%);fill-opacity:1;" d="M 39.8125 30.488281 C 39.714844 30.640625 40.640625 31.632812 41.042969 31.820312 C 41.148438 31.871094 41.488281 31.882812 42.246094 31.878906 C 43.089844 31.867188 43.300781 31.878906 43.320312 31.9375 C 43.359375 32.050781 43.0625 32.75 42.945312 32.820312 C 42.878906 32.859375 42.785156 32.867188 42.65625 32.832031 C 42.554688 32.804688 42.332031 32.773438 42.167969 32.765625 C 41.894531 32.75 41.859375 32.761719 41.84375 32.859375 C 41.816406 33.054688 42.0625 33.222656 42.40625 33.261719 C 42.804688 33.300781 42.90625 33.398438 43.027344 33.871094 C 43.082031 34.078125 43.1875 34.367188 43.261719 34.511719 C 43.332031 34.65625 43.390625 34.800781 43.390625 34.828125 C 43.390625 34.933594 43.199219 34.9375 42.976562 34.839844 C 42.851562 34.785156 42.628906 34.722656 42.484375 34.699219 C 42.253906 34.667969 42.210938 34.632812 42.144531 34.484375 C 42.054688 34.261719 41.929688 34.148438 41.792969 34.179688 C 41.714844 34.195312 41.699219 34.246094 41.710938 34.398438 C 41.726562 34.605469 41.726562 34.605469 41.300781 34.804688 C 41.066406 34.910156 40.839844 35 40.800781 35 C 40.695312 35 40.679688 34.890625 40.640625 33.804688 C 40.617188 33.253906 40.582031 32.765625 40.5625 32.722656 C 40.5 32.5625 39.746094 31.890625 39.609375 31.878906 C 39.410156 31.851562 39.421875 31.964844 39.648438 32.234375 C 40.09375 32.746094 40.207031 32.984375 40.273438 33.566406 C 40.304688 33.859375 40.332031 34.398438 40.332031 34.765625 C 40.332031 35.3125 40.351562 35.445312 40.421875 35.503906 C 40.496094 35.566406 40.535156 35.566406 40.660156 35.496094 C 40.933594 35.332031 41.027344 35.285156 41.285156 35.171875 C 41.421875 35.105469 41.5625 35.054688 41.59375 35.054688 C 41.621094 35.054688 41.707031 35.003906 41.777344 34.945312 C 41.851562 34.882812 41.933594 34.832031 41.964844 34.832031 C 42 34.832031 42.070312 34.882812 42.128906 34.945312 C 42.1875 35.023438 42.289062 35.054688 42.445312 35.054688 C 42.5625 35.054688 42.746094 35.089844 42.84375 35.132812 C 42.945312 35.179688 43.15625 35.238281 43.316406 35.277344 C 43.5625 35.332031 43.628906 35.328125 43.777344 35.25 C 43.917969 35.179688 43.945312 35.140625 43.910156 35.039062 C 43.894531 34.972656 43.832031 34.867188 43.777344 34.804688 C 43.660156 34.679688 43.351562 33.90625 43.300781 33.609375 C 43.277344 33.503906 43.207031 33.351562 43.132812 33.273438 L 43 33.132812 L 43.214844 32.957031 C 43.355469 32.84375 43.449219 32.714844 43.472656 32.601562 C 43.496094 32.5 43.5625 32.320312 43.617188 32.210938 C 43.75 31.945312 43.75 31.75 43.609375 31.609375 C 43.503906 31.503906 43.421875 31.5 42.351562 31.5 C 41.550781 31.496094 41.15625 31.476562 41.070312 31.429688 C 41.003906 31.390625 40.753906 31.183594 40.515625 30.964844 C 40.0625 30.554688 39.855469 30.417969 39.8125 30.488281 Z M 39.8125 30.488281 "/>
<path style=" stroke:none;fill-rule:nonzero;fill:rgb(0%,0%,0%);fill-opacity:1;" d="M 38.003906 35.328125 C 37.90625 35.390625 37.964844 35.554688 38.089844 35.554688 C 38.140625 35.554688 38.253906 35.59375 38.351562 35.640625 C 38.449219 35.683594 38.667969 35.726562 38.832031 35.734375 C 39.246094 35.753906 39.253906 35.859375 38.894531 36.234375 L 38.617188 36.527344 L 37.582031 36.527344 L 37.566406 36.671875 C 37.554688 36.785156 37.589844 36.851562 37.707031 36.933594 C 37.789062 36.996094 38 37.179688 38.167969 37.339844 C 38.671875 37.820312 39.210938 38.265625 39.398438 38.367188 C 39.621094 38.484375 39.734375 38.617188 39.660156 38.6875 C 39.589844 38.765625 39 38.945312 38.820312 38.945312 C 38.734375 38.945312 38.667969 38.964844 38.667969 38.996094 C 38.667969 39.082031 38.832031 39.222656 38.984375 39.253906 C 39.261719 39.328125 40.148438 38.957031 40.226562 38.734375 C 40.273438 38.609375 40.253906 38.589844 39.6875 38.167969 C 38.710938 37.433594 38.167969 36.957031 38.167969 36.828125 C 38.167969 36.804688 38.300781 36.789062 38.460938 36.792969 C 38.617188 36.792969 38.804688 36.777344 38.867188 36.753906 C 38.933594 36.738281 39.167969 36.515625 39.390625 36.273438 C 39.710938 35.917969 39.785156 35.804688 39.753906 35.699219 C 39.710938 35.527344 39.496094 35.4375 38.945312 35.382812 C 38.683594 35.355469 38.382812 35.320312 38.277344 35.304688 C 38.171875 35.289062 38.050781 35.300781 38.003906 35.328125 Z M 38.003906 35.328125 "/>
<path style=" stroke:none;fill-rule:nonzero;fill:rgb(0%,0%,0%);fill-opacity:1;" d="M 12.277344 36.726562 C 12.277344 36.9375 12.410156 36.921875 12.433594 36.707031 C 12.445312 36.601562 12.429688 36.554688 12.367188 36.554688 C 12.304688 36.554688 12.277344 36.609375 12.277344 36.726562 Z M 12.277344 36.726562 "/>
<path style=" stroke:none;fill-rule:nonzero;fill:rgb(0%,0%,0%);fill-opacity:1;" d="M 11.417969 37.277344 C 11.277344 37.398438 11.105469 37.527344 11.042969 37.5625 C 10.976562 37.59375 10.738281 37.777344 10.511719 37.960938 C 10.261719 38.160156 9.984375 38.332031 9.816406 38.390625 C 9.355469 38.539062 9.339844 38.75 9.765625 38.929688 C 9.996094 39.023438 10.109375 38.949219 10.109375 38.714844 C 10.109375 38.589844 10.167969 38.523438 10.40625 38.359375 C 11.867188 37.367188 12.132812 37.160156 12.042969 37.105469 C 11.882812 37 11.671875 37.054688 11.417969 37.277344 Z M 11.417969 37.277344 "/>
<path style=" stroke:none;fill-rule:nonzero;fill:rgb(0%,0%,0%);fill-opacity:1;" d="M 36.390625 37.304688 C 36.332031 37.371094 36.339844 37.394531 36.40625 37.421875 C 36.515625 37.460938 36.609375 37.40625 36.609375 37.300781 C 36.609375 37.199219 36.476562 37.199219 36.390625 37.304688 Z M 36.390625 37.304688 "/>
<path style=" stroke:none;fill-rule:nonzero;fill:rgb(0%,0%,0%);fill-opacity:1;" d="M 38.421875 38.710938 C 38.382812 38.777344 38.542969 38.921875 38.59375 38.867188 C 38.617188 38.851562 38.59375 38.789062 38.542969 38.746094 C 38.496094 38.6875 38.445312 38.679688 38.421875 38.710938 Z M 38.421875 38.710938 "/>
<path style=" stroke:none;fill-rule:nonzero;fill:rgb(0%,0%,0%);fill-opacity:1;" d="M 22.972656 46.804688 C 22.761719 46.972656 22.570312 47.109375 22.550781 47.109375 C 22.472656 47.109375 22.390625 47.320312 22.421875 47.410156 C 22.4375 47.457031 22.511719 47.511719 22.570312 47.527344 C 22.789062 47.589844 23.070312 47.746094 23.40625 47.984375 C 23.589844 48.117188 23.765625 48.222656 23.8125 48.222656 C 23.851562 48.222656 23.9375 48.328125 24.003906 48.460938 C 24.070312 48.589844 24.1875 48.765625 24.261719 48.855469 C 24.332031 48.9375 24.429688 49.089844 24.464844 49.1875 C 24.566406 49.433594 24.828125 49.722656 24.9375 49.722656 C 24.996094 49.722656 25.195312 49.511719 25.421875 49.214844 C 25.632812 48.9375 25.882812 48.609375 25.976562 48.484375 C 26.15625 48.261719 26.535156 48.003906 27 47.804688 C 27.378906 47.644531 27.667969 47.449219 27.667969 47.359375 C 27.667969 47.320312 27.535156 47.195312 27.378906 47.089844 C 27.214844 46.984375 27.011719 46.820312 26.921875 46.726562 C 26.734375 46.535156 26.550781 46.496094 26.59375 46.65625 C 26.605469 46.714844 26.726562 46.882812 26.867188 47.035156 C 27 47.183594 27.109375 47.320312 27.109375 47.339844 C 27.109375 47.394531 26.984375 47.484375 26.832031 47.527344 C 26.753906 47.550781 26.605469 47.628906 26.5 47.699219 C 26.394531 47.773438 26.265625 47.832031 26.214844 47.832031 C 26.09375 47.832031 25.945312 47.65625 25.945312 47.515625 C 25.945312 47.382812 25.75 47.121094 25.695312 47.179688 C 25.671875 47.199219 25.683594 47.332031 25.714844 47.472656 C 25.820312 47.894531 25.671875 47.988281 25.550781 47.578125 C 25.460938 47.289062 25.359375 47.171875 25.273438 47.261719 C 25.210938 47.320312 25.34375 47.722656 25.429688 47.722656 C 25.449219 47.722656 25.503906 47.816406 25.542969 47.929688 C 25.707031 48.378906 25.699219 48.398438 25.355469 48.792969 C 25.070312 49.121094 24.832031 49.265625 24.832031 49.117188 C 24.832031 49.089844 24.722656 48.894531 24.582031 48.6875 C 24.445312 48.488281 24.332031 48.261719 24.332031 48.1875 C 24.332031 48.121094 24.421875 47.894531 24.527344 47.6875 C 24.710938 47.339844 24.714844 47.304688 24.640625 47.183594 C 24.535156 47.027344 24.355469 47.015625 24.277344 47.160156 C 24.195312 47.316406 24.207031 47.371094 24.332031 47.40625 C 24.484375 47.445312 24.472656 47.5625 24.300781 47.683594 C 24.195312 47.761719 24.144531 47.773438 24.089844 47.726562 C 24.035156 47.679688 24.003906 47.683594 23.976562 47.75 C 23.921875 47.90625 23.738281 47.832031 23.449219 47.550781 C 23.292969 47.394531 23.167969 47.246094 23.167969 47.214844 C 23.167969 47.1875 23.226562 47.066406 23.304688 46.945312 C 23.4375 46.734375 23.488281 46.5 23.398438 46.5 C 23.378906 46.5 23.183594 46.640625 22.972656 46.804688 Z M 22.972656 46.804688 "/>
</g>
</svg>
