<?xml version="1.0" encoding="UTF-8"?>
<svg xmlns="http://www.w3.org/2000/svg" xmlns:xlink="http://www.w3.org/1999/xlink" width="50px" height="26px" viewBox="0 0 50 26" version="1.1">
<g id="surface1">
<path style=" stroke:none;fill-rule:nonzero;fill:rgb(0%,0%,0%);fill-opacity:1;" d="M 18.160156 6.300781 L 16.347656 9.847656 L 12.71875 10.59375 L 9.09375 11.3125 L 11.226562 12.601562 C 12.402344 13.324219 13.503906 13.992188 13.699219 14.117188 C 13.96875 14.289062 13.554688 15.257812 11.542969 18.878906 C 10.148438 21.386719 8.847656 23.667969 8.652344 23.992188 C 8.234375 24.609375 8.578125 24.785156 9.070312 24.1875 C 9.289062 23.917969 13.675781 20.394531 17.328125 17.539062 C 17.648438 17.292969 18.699219 17.988281 23.359375 21.507812 C 24.679688 22.5 25.785156 23.320312 25.832031 23.320312 C 25.882812 23.320312 25.660156 22.453125 25.34375 21.410156 C 24.707031 19.300781 24.753906 18.78125 25.636719 18.210938 C 26.128906 17.863281 26.691406 17.835938 29.265625 17.988281 C 32.792969 18.183594 34.238281 17.886719 36.570312 16.472656 C 38.136719 15.503906 38.699219 14.933594 37.449219 15.582031 C 36.199219 16.226562 33.359375 16.25 30.710938 15.65625 C 25.929688 14.5625 23.628906 15.332031 23.160156 18.109375 C 23.0625 18.65625 22.964844 19.101562 22.917969 19.101562 C 22.867188 19.101562 21.714844 18.308594 20.34375 17.367188 C 18.210938 15.878906 17.769531 15.65625 17.425781 15.925781 C 17.207031 16.101562 15.957031 17.167969 14.632812 18.308594 C 13.308594 19.449219 12.207031 20.367188 12.15625 20.320312 C 12.132812 20.269531 12.84375 18.78125 13.773438 16.996094 C 14.679688 15.234375 15.441406 13.746094 15.441406 13.71875 C 15.441406 13.667969 14.707031 13.171875 13.800781 12.601562 L 12.132812 11.535156 L 14.609375 11.089844 L 17.082031 10.617188 L 18.382812 7.914062 C 19.117188 6.425781 19.78125 5.210938 19.851562 5.210938 C 19.925781 5.210938 20.195312 6.175781 20.441406 7.367188 C 20.6875 8.582031 20.929688 9.625 20.980469 9.699219 C 21.03125 9.773438 22.449219 9.550781 24.140625 9.179688 C 25.832031 8.808594 27.207031 8.582031 27.207031 8.660156 C 27.207031 8.757812 26.496094 9.378906 25.613281 10.046875 C 24.730469 10.71875 24.019531 11.289062 24.019531 11.335938 C 24.019531 11.386719 24.484375 11.164062 25.074219 10.816406 C 27.597656 9.304688 29.753906 9.054688 33.675781 9.773438 C 37.15625 10.417969 39.191406 10.222656 41.886719 9.03125 C 43.015625 8.507812 47.058594 5.804688 47.058594 5.558594 C 47.058594 5.507812 46.371094 5.855469 45.539062 6.300781 C 42.84375 7.789062 40.515625 7.988281 35.761719 7.167969 C 31.863281 6.5 29.902344 6.625 25.417969 7.914062 C 23.113281 8.558594 21.984375 8.78125 21.910156 8.582031 C 21.519531 7.492188 20.34375 3.347656 20.34375 3.078125 C 20.34375 2.257812 19.851562 2.953125 18.160156 6.300781 Z M 35.785156 7.816406 C 36.789062 8.011719 38.285156 8.238281 39.070312 8.3125 C 39.878906 8.386719 40.5625 8.484375 40.636719 8.558594 C 40.761719 8.683594 39.632812 9.15625 38.847656 9.328125 C 38.578125 9.378906 38.0625 9.476562 37.71875 9.550781 C 37.351562 9.625 35.710938 9.453125 34.042969 9.179688 C 32.378906 8.882812 30.269531 8.632812 29.363281 8.632812 C 27.792969 8.632812 27.132812 8.410156 27.695312 8.0625 C 28.261719 7.714844 31.324219 7.269531 32.597656 7.367188 C 33.332031 7.417969 34.78125 7.617188 35.785156 7.816406 Z M 30.148438 16.273438 C 31.03125 16.5 31.9375 16.695312 32.15625 16.722656 C 32.402344 16.746094 32.671875 16.871094 32.769531 16.996094 C 32.890625 17.09375 32.820312 17.117188 32.671875 17.019531 C 32.5 16.917969 32.351562 16.96875 32.351562 17.144531 C 32.351562 17.339844 31.765625 17.367188 30.097656 17.242188 C 27.648438 17.070312 26.886719 17.070312 26.078125 17.21875 C 24.707031 17.492188 23.945312 18.582031 24.140625 20.019531 C 24.265625 20.964844 24.070312 21.039062 23.261719 20.367188 L 22.695312 19.921875 L 23.359375 19.25 C 23.726562 18.878906 23.96875 18.484375 23.898438 18.382812 C 23.726562 18.0625 24.828125 16.546875 25.488281 16.199219 C 26.324219 15.777344 28.234375 15.804688 30.148438 16.273438 Z M 30.148438 16.273438 "/>
<path style=" stroke:none;fill-rule:nonzero;fill:rgb(0%,0%,0%);fill-opacity:1;" d="M 16.863281 6.351562 C 15.761719 8.164062 15.121094 9.425781 15.320312 9.425781 C 15.613281 9.425781 18.996094 3.5 18.800781 3.324219 C 18.773438 3.300781 17.890625 4.664062 16.863281 6.351562 Z M 16.863281 6.351562 "/>
<path style=" stroke:none;fill-rule:nonzero;fill:rgb(0%,0%,0%);fill-opacity:1;" d="M 15.636719 6.996094 C 13.871094 9.773438 13.921875 9.675781 14.140625 9.675781 C 14.238281 9.675781 14.753906 8.980469 15.246094 8.113281 C 15.761719 7.269531 16.398438 6.203125 16.691406 5.753906 C 16.984375 5.332031 17.15625 4.960938 17.082031 4.960938 C 17.011719 4.960938 16.371094 5.878906 15.636719 6.996094 Z M 15.636719 6.996094 "/>
<path style=" stroke:none;fill-rule:nonzero;fill:rgb(0%,0%,0%);fill-opacity:1;" d="M 43.503906 9.824219 C 43.234375 10.046875 42.402344 10.519531 41.667969 10.867188 C 40.417969 11.460938 40.074219 11.511719 36.765625 11.511719 C 34.804688 11.511719 31.765625 11.414062 30 11.3125 C 27.28125 11.113281 26.617188 11.164062 25.5625 11.511719 C 23.96875 12.058594 22.179688 13.867188 22.425781 14.710938 C 22.523438 15.007812 22.648438 15.457031 22.695312 15.703125 C 22.820312 16.078125 22.941406 16.027344 23.601562 15.332031 C 25.367188 13.570312 26.714844 13.347656 33.359375 13.769531 C 36.152344 13.941406 36.640625 13.894531 38.160156 13.445312 C 39.828125 12.925781 41.984375 11.636719 43.628906 10.195312 C 44.484375 9.402344 44.386719 9.128906 43.503906 9.824219 Z M 27.28125 11.808594 C 27.5 11.882812 27.597656 12.132812 27.523438 12.429688 C 27.449219 12.675781 27.304688 12.851562 27.207031 12.777344 C 27.082031 12.703125 26.910156 12.777344 26.8125 12.949219 C 26.691406 13.148438 26.59375 13.097656 26.46875 12.777344 C 26.371094 12.503906 26.421875 12.15625 26.570312 11.984375 C 26.886719 11.609375 26.839844 11.636719 27.28125 11.808594 Z M 32.109375 12.40625 C 32.082031 12.726562 31.691406 13.023438 31.226562 13.074219 C 30.859375 13.125 30.710938 13 30.734375 12.703125 C 30.785156 11.984375 31.175781 11.683594 31.667969 12.007812 C 31.910156 12.15625 32.109375 12.332031 32.109375 12.40625 Z M 30.097656 12.332031 C 30.148438 12.554688 29.902344 12.652344 29.3125 12.652344 C 28.480469 12.652344 28.039062 12.378906 28.359375 12.058594 C 28.628906 11.785156 29.976562 12.007812 30.097656 12.332031 Z M 33.675781 12.304688 C 34.140625 12.480469 34.191406 13.074219 33.773438 13.222656 C 33.1875 13.398438 32.621094 13.097656 32.671875 12.628906 C 32.695312 12.132812 33.015625 12.058594 33.675781 12.304688 Z M 35.710938 13.074219 C 35.710938 13.519531 34.976562 13.371094 34.78125 12.902344 C 34.679688 12.703125 34.730469 12.453125 34.878906 12.355469 C 35.171875 12.179688 35.710938 12.628906 35.710938 13.074219 Z M 25.589844 13.023438 C 25.464844 13.324219 24.238281 13.917969 23.800781 13.894531 C 23.726562 13.867188 24.019531 13.546875 24.484375 13.148438 C 25.320312 12.429688 25.832031 12.355469 25.589844 13.023438 Z M 37.746094 12.628906 C 37.746094 12.75 37.476562 12.902344 37.132812 12.949219 C 36.542969 13.074219 36.347656 12.902344 36.691406 12.578125 C 36.910156 12.332031 37.746094 12.378906 37.746094 12.628906 Z M 37.746094 12.628906 "/>
<path style=" stroke:none;fill-rule:nonzero;fill:rgb(0%,0%,0%);fill-opacity:1;" d="M 8.824219 11.984375 C 8.824219 12.03125 9.535156 12.652344 10.417969 13.371094 C 11.300781 14.089844 12.011719 14.785156 12.011719 14.933594 C 12.011719 15.058594 11.226562 16.796875 10.292969 18.78125 C 9.339844 20.789062 8.601562 22.425781 8.652344 22.476562 C 8.726562 22.578125 12.746094 14.960938 12.746094 14.710938 C 12.746094 14.539062 8.824219 11.808594 8.824219 11.984375 Z M 8.824219 11.984375 "/>
<path style=" stroke:none;fill-rule:nonzero;fill:rgb(0%,0%,0%);fill-opacity:1;" d="M 9.828125 14.015625 L 10.980469 15.183594 L 10 17.292969 C 9.484375 18.457031 9.09375 19.449219 9.140625 19.5 C 9.238281 19.597656 11.273438 15.332031 11.273438 15.058594 C 11.273438 15.007812 10.6875 14.488281 10 13.894531 L 8.699219 12.828125 Z M 9.828125 14.015625 "/>
<path style=" stroke:none;fill-rule:nonzero;fill:rgb(0%,0%,0%);fill-opacity:1;" d="M 17.058594 18.804688 C 17.011719 18.90625 18.234375 19.75 19.804688 20.667969 C 21.398438 21.582031 23.160156 22.625 23.773438 23 C 25.5625 24.066406 24.804688 23.46875 21.175781 20.964844 C 17.890625 18.679688 17.328125 18.382812 17.058594 18.804688 Z M 17.058594 18.804688 "/>
<path style=" stroke:none;fill-rule:nonzero;fill:rgb(0%,0%,0%);fill-opacity:1;" d="M 16.175781 19.523438 C 16.175781 19.648438 17.425781 20.367188 18.945312 21.164062 C 22.207031 22.898438 22.132812 22.699219 18.800781 20.765625 C 16.273438 19.277344 16.175781 19.226562 16.175781 19.523438 Z M 16.175781 19.523438 "/>
</g>
</svg>
